<svg id="Layer_1" data-name="Layer 1" xmlns="http://www.w3.org/2000/svg" width="100" height="100" viewBox="0 0 100 100"><defs><style>.cls-1{fill:#d30d0d;}.cls-2{fill:#e54545;}.cls-3{fill:#ef9595;}.cls-4{fill:#56cc2f;}.cls-5{fill:#56291d;}</style></defs><title>aeble</title><ellipse class="cls-1" cx="50" cy="56.94" rx="39.58" ry="34.55" transform="translate(-1.82 1.65) rotate(-1.85)"/><ellipse class="cls-2" cx="68.09" cy="38.69" rx="8.45" ry="10.29" transform="translate(-7.35 59.72) rotate(-45.18)"/><ellipse class="cls-3" cx="67.04" cy="37.48" rx="3.36" ry="4.1" transform="translate(-6.8 58.62) rotate(-45.18)"/><path class="cls-4" d="M23.92,12.93l.39-.25.36-.21.74-.42c.47-.24.93-.48,1.37-.67a24.26,24.26,0,0,1,2.54-1,17.48,17.48,0,0,1,4.42-.85,12.09,12.09,0,0,1,6.94,1.55,11.91,11.91,0,0,1,4.78,5.26,17.51,17.51,0,0,1,1.44,4.27c.07.43.16.84.23,1.29s.12.9.16,1.4.07,1,.09,1.53v1.28l0,.46-.39.25-.37.21-.73.42c-.47.25-.94.49-1.38.68s-.87.37-1.3.55-.83.29-1.24.44a18.16,18.16,0,0,1-4.42.86,12,12,0,0,1-6.93-1.58,12.17,12.17,0,0,1-4.77-5.28,18.1,18.1,0,0,1-1.44-4.27A24.8,24.8,0,0,1,24,16.18c-.05-.48-.07-1-.09-1.52V13.39Z"/><path class="cls-4" d="M69,11.11l.06.46L69,12l.07.84c0,.53,0,1.05,0,1.53,0,1-.09,1.86-.18,2.71a18,18,0,0,1-1.1,4.36,11.8,11.8,0,0,1-11.13,7.76,17.52,17.52,0,0,1-4.47-.51c-.43-.12-.83-.21-1.27-.34s-.87-.26-1.34-.45-.94-.36-1.43-.57L47.46,27l-.39-.18-.41-.22-.06-.46,0-.42-.07-.85c0-.53,0-1,0-1.53s0-.95,0-1.41.09-.87.13-1.31a17.78,17.78,0,0,1,1.09-4.37,11.76,11.76,0,0,1,11.16-7.7,18.06,18.06,0,0,1,4.48.5,22.69,22.69,0,0,1,2.6.78c.45.16.93.35,1.42.56l.77.36.38.18Z"/><path class="cls-5" d="M48.18,25.92a7.74,7.74,0,0,0,.22-5.18,14.4,14.4,0,0,0-.9-2.19c-.14-.3-.29-.58-.44-.87s-.38-.86-.24-.48a4.59,4.59,0,0,1-.22-.69.62.62,0,0,1,0-.13c-.05.11.11.05-.05.13.3-.15.33-.33.62-.52,2.6-1.78,6.4-2.29,9.4-2.94,2.74-.59,1.58-4.79-1.16-4.2-3.83.83-13.3,2.08-13.16,7.73a10.88,10.88,0,0,0,1.54,4.27A4.24,4.24,0,0,1,44,24.76c-1.08,2.59,3.14,3.71,4.21,1.16Z"/></svg>
