<svg id="Layer_1" data-name="Layer 1" xmlns="http://www.w3.org/2000/svg" width="100" height="100" viewBox="0 0 100 100"><defs><style>.cls-1{fill:#d30d0d;}.cls-2{fill:#e54545;}.cls-3{fill:#ef9595;}.cls-4{fill:#56cc2f;}.cls-5{fill:#56291d;}.cls-6{fill:#5b5a45;}.cls-7{fill:#161506;}.cls-8{fill:#f7a794;}.cls-9{fill:#fff;}</style></defs><title>aeble_orm</title><ellipse class="cls-1" cx="57.69" cy="55.45" rx="34.51" ry="30.12" transform="translate(-1.76 1.9) rotate(-1.85)"/><ellipse class="cls-2" cx="73.46" cy="39.54" rx="7.37" ry="8.97" transform="translate(-8.04 21.73) rotate(-15.96)"/><ellipse class="cls-3" cx="72.55" cy="38.48" rx="2.93" ry="3.57" transform="translate(-5.88 62.82) rotate(-45.18)"/><path class="cls-4" d="M35,17.07a11.34,11.34,0,0,1,1.88-.29,14.79,14.79,0,0,1,1.75-.05,17.3,17.3,0,0,1,3.2.38,18.94,18.94,0,0,1,5.57,2.16A18.74,18.74,0,0,1,52,23.05a18.52,18.52,0,0,1,1.9,2.6,15,15,0,0,1,.81,1.55A11,11,0,0,1,55.38,29a11.36,11.36,0,0,1-1.89.3,16.33,16.33,0,0,1-5-.32,19.2,19.2,0,0,1-10.2-6,17.28,17.28,0,0,1-1.91-2.6,14.85,14.85,0,0,1-.81-1.54A11.32,11.32,0,0,1,35,17.07Z"/><path class="cls-4" d="M74.21,15.49a12,12,0,0,1-.52,1.83,16.74,16.74,0,0,1-.69,1.6,18.12,18.12,0,0,1-1.7,2.74A19,19,0,0,1,67,25.8a18.85,18.85,0,0,1-5.39,2.61,17.17,17.17,0,0,1-3.16.63c-.56.05-1.14.08-1.74.08A11.81,11.81,0,0,1,54.78,29a12.53,12.53,0,0,1,.52-1.84,16.74,16.74,0,0,1,.69-1.6,17.35,17.35,0,0,1,1.7-2.74A18.59,18.59,0,0,1,62,18.65a18.82,18.82,0,0,1,5.39-2.6,18,18,0,0,1,3.16-.63c.56-.05,1.14-.08,1.74-.08A10.69,10.69,0,0,1,74.21,15.49Z"/><path class="cls-5" d="M55.09,28.38c1-2.3.41-4.31-.66-6.43-.19-.38-.41-.81-.48-1a1.68,1.68,0,0,1-.18-.89c0-.18,0,.15,0-.07a1.21,1.21,0,0,1,.08-.25c0,.09.15-.21.17-.24a4.34,4.34,0,0,1,1.3-.91,31.35,31.35,0,0,1,7.83-2.31c1.19-.26.68-2.08-.51-1.83a40.33,40.33,0,0,0-7.54,2.16,5.66,5.66,0,0,0-2.94,2.3c-.93,1.85.65,3.76,1.22,5.27a4,4,0,0,1,.06,3.25c-.48,1.11,1.15,2.07,1.64,1Z"/><ellipse class="cls-6" cx="37.77" cy="54.73" rx="8.58" ry="12.33" transform="translate(-0.34 0.24) rotate(-0.36)"/><ellipse class="cls-7" cx="37.36" cy="54.79" rx="5.77" ry="8.29" transform="translate(-0.34 0.23) rotate(-0.36)"/><path class="cls-8" d="M39.78,59.3c-3.86,4.8-13,2.53-17.78.19-6.7-3.31-9.67-9.28-11.14-12.22C9.18,43.9,6.93,39.38,8.15,34.05c.73-3.16,3.08-8.36,7.19-8.92,2.48-.34,4.53,1.15,6.09,2.29,1.22.89,5.74,4.18,5.63,9.51-.07,3.21-3,3.7-3,7a7,7,0,0,0,2.45,5.46c4.14,3.11,10.46-2.83,13.65-.19C42.35,51,42.13,56.37,39.78,59.3Z"/><ellipse class="cls-9" cx="20.14" cy="35.52" rx="2.2" ry="2.93" transform="translate(-5.25 3.54) rotate(-8.9)"/><ellipse class="cls-9" cx="13.81" cy="36.51" rx="2.2" ry="2.93" transform="translate(-5.48 2.58) rotate(-8.9)"/><ellipse class="cls-9" cx="20.29" cy="35.89" rx="0.76" ry="1.37" transform="translate(-5.31 3.57) rotate(-8.9)"/><ellipse cx="20.23" cy="35.51" rx="0.76" ry="1.76" transform="translate(-5.25 3.56) rotate(-8.9)"/><ellipse cx="13.81" cy="36.51" rx="0.76" ry="1.76" transform="translate(-5.48 2.58) rotate(-8.9)"/></svg>
