<svg id="Layer_1" data-name="Layer 1" xmlns="http://www.w3.org/2000/svg" xmlns:xlink="http://www.w3.org/1999/xlink" width="450" height="550" viewBox="0 0 450 550"><defs><style>.cls-1,.cls-13,.cls-14{fill:none;}.cls-2{fill:#a8360e;}.cls-3{fill:#553000;}.cls-3,.cls-4{opacity:0.76;}.cls-4,.cls-5{fill:#352600;}.cls-5{stroke:#7c5508;}.cls-13,.cls-14,.cls-5{stroke-miterlimit:10;}.cls-6{fill:#f9d4ac;}.cls-7{fill:#000c55;}.cls-8{fill:url(#New_Pattern_Swatch_3);}.cls-9{fill:#e2b983;}.cls-10{fill:#744800;}.cls-11{fill:#e2a683;}.cls-12{fill:#fff;}.cls-13{stroke:#000c55;stroke-width:2px;}.cls-14{stroke:#4c3202;stroke-width:0.75px;}.cls-15{fill:#89531d;}</style><pattern id="New_Pattern_Swatch_3" data-name="New Pattern Swatch 3" width="279.97" height="270.04" patternTransform="translate(73.82 -46.72) scale(0.76)" patternUnits="userSpaceOnUse" viewBox="0 0 279.97 270.04"><rect class="cls-1" width="279.97" height="270.04"/><rect class="cls-2" width="279.97" height="270.04"/><rect class="cls-3" x="263.23" width="15.87" height="270.04"/><rect class="cls-3" x="224.73" width="15.87" height="270.04"/><rect class="cls-3" x="186.23" width="15.87" height="270.04"/><rect class="cls-3" x="147.73" width="15.87" height="270.04"/><rect class="cls-3" x="109.23" width="15.87" height="270.04"/><rect class="cls-3" x="70.73" width="15.87" height="270.04"/><rect class="cls-3" x="32.23" width="15.87" height="270.04"/><polygon class="cls-4" points="279.97 252.99 279.97 245.44 0 245.44 0 252.99 279.97 252.99"/><polygon class="cls-4" points="279.97 228.44 279.97 220.9 0 220.9 0 228.44 279.97 228.44"/><polygon class="cls-4" points="279.97 203.9 279.97 196.35 0 196.35 0 203.9 279.97 203.9"/><polygon class="cls-4" points="279.97 179.35 279.97 171.81 0 171.81 0 179.35 279.97 179.35"/><polygon class="cls-4" points="279.97 154.81 279.97 147.26 0 147.26 0 154.81 279.97 154.81"/><polygon class="cls-4" points="279.97 130.26 279.97 122.72 0 122.72 0 130.26 279.97 130.26"/><polygon class="cls-4" points="279.97 105.72 279.97 98.18 0 98.18 0 105.72 279.97 105.72"/><polygon class="cls-4" points="279.97 81.18 279.97 73.63 0 73.63 0 81.18 279.97 81.18"/><polygon class="cls-4" points="279.97 56.63 279.97 49.09 0 49.09 0 56.63 279.97 56.63"/><polygon class="cls-4" points="279.97 32.09 279.97 24.54 0 24.54 0 32.09 279.97 32.09"/><polygon class="cls-4" points="279.97 7.54 279.97 0 0 0 0 7.54 279.97 7.54"/><line class="cls-5" x1="258.26" x2="258.26" y2="270.04"/><line class="cls-5" x1="219.82" x2="219.82" y2="270.04"/><line class="cls-5" x1="181.24" x2="181.24" y2="270.04"/><line class="cls-5" x1="142.42" x2="142.42" y2="270.04"/><line class="cls-5" x1="142.78" x2="142.78" y2="270.04"/><line class="cls-5" x1="104.24" x2="104.24" y2="270.04"/><line class="cls-5" x1="65.74" x2="65.74" y2="270.04"/><line class="cls-5" x1="27.22" x2="27.22" y2="270.04"/></pattern></defs><title>aevar</title><rect class="cls-6" x="186.59" y="493.66" width="19.5" height="33.26" rx="8.93" ry="8.93"/><rect class="cls-6" x="233.89" y="493.66" width="19.5" height="33.26" rx="8.93" ry="8.93"/><rect class="cls-7" x="229.32" y="359.36" width="28.63" height="150.94" rx="12" ry="12"/><rect class="cls-7" x="181.83" y="359.36" width="28.63" height="150.94" rx="12" ry="12"/><path class="cls-6" d="M279.92,397.26h0a2.64,2.64,0,0,1-1.14-3.31l5.23-13.3a2.15,2.15,0,0,1,2.95-1.28h0a2.65,2.65,0,0,1,1.13,3.31L282.86,396A2.14,2.14,0,0,1,279.92,397.26Z"/><rect class="cls-6" x="283.44" y="352.03" width="21.66" height="43.47" rx="7.05" ry="7.05"/><rect class="cls-6" x="301.53" y="387" width="3.27" height="16.93" rx="1.14" ry="1.14" transform="translate(606.33 790.93) rotate(-180)"/><rect class="cls-6" x="296.54" y="391.11" width="3.27" height="18.01" rx="1.14" ry="1.14" transform="translate(596.35 800.22) rotate(-180)"/><rect class="cls-6" x="290.69" y="391.54" width="3.57" height="23.05" rx="1.24" ry="1.24" transform="translate(584.95 806.13) rotate(180)"/><rect class="cls-6" x="285.17" y="390.09" width="2.97" height="21.25" rx="1.04" ry="1.04" transform="translate(573.3 801.44) rotate(180)"/><path class="cls-6" d="M165.75,397.26h0a2.65,2.65,0,0,0,1.14-3.31l-5.24-13.3a2.14,2.14,0,0,0-2.94-1.28h0a2.66,2.66,0,0,0-1.14,3.31l5.24,13.3A2.14,2.14,0,0,0,165.75,397.26Z"/><rect class="cls-6" x="140.57" y="352.03" width="21.66" height="43.47" rx="7.05" ry="7.05"/><rect class="cls-6" x="140.87" y="387" width="3.27" height="16.93" rx="1.14" ry="1.14"/><rect class="cls-6" x="145.86" y="391.11" width="3.27" height="18.01" rx="1.14" ry="1.14"/><rect class="cls-6" x="151.41" y="391.54" width="3.57" height="23.05" rx="1.24" ry="1.24"/><rect class="cls-6" x="157.53" y="390.09" width="2.97" height="21.25" rx="1.04" ry="1.04"/><path class="cls-8" d="M233.26,182.24H212.41A73.65,73.65,0,0,0,139,255.67V371.75h26.63V241a2.6,2.6,0,0,1,5.2,0V371.75H275V241a2.61,2.61,0,0,1,5.21,0V371.75h26.53V255.67A73.65,73.65,0,0,0,233.26,182.24Z"/><rect class="cls-9" x="170.62" y="67.64" width="104.42" height="150.9" rx="47.82" ry="47.82"/><path class="cls-10" d="M236.43,235H209.24a38.62,38.62,0,0,1-38.62-38.62V151.88s17.51,25.27,49.4,25.27c35.44,0,55-25.27,55-25.27v44.54A38.63,38.63,0,0,1,236.43,235Z"/><path class="cls-11" d="M170.62,115.93a11.77,11.77,0,0,0,0,23.54"/><path class="cls-11" d="M274.5,115a11.77,11.77,0,0,1,0,23.54"/><circle class="cls-12" cx="243.72" cy="127.7" r="9.96"/><path d="M249.45,126.79a5.74,5.74,0,0,1-11.47,0"/><path d="M238,126.8a5.74,5.74,0,1,1,11.47,0"/><path class="cls-10" d="M190,188.84c0-13.84,13.46-25.05,30.06-25.05s30.06,11.21,30.06,25.05"/><rect class="cls-11" x="212.3" y="122.03" width="15.45" height="43.59" rx="7.07" ry="7.07"/><path class="cls-13" d="M212.23,128.67a7.47,7.47,0,0,1,7.28-7.61h1a7.48,7.48,0,0,1,7.28,7.61"/><line class="cls-14" x1="179.95" y1="177.24" x2="179.95" y2="192.44"/><line class="cls-14" x1="193.86" y1="182.24" x2="193.86" y2="197.44"/><line class="cls-14" x1="186.32" y1="189.84" x2="186.32" y2="205.04"/><line class="cls-14" x1="201.28" y1="190.48" x2="201.28" y2="205.69"/><line class="cls-14" x1="196.34" y1="210.29" x2="196.34" y2="225.49"/><line class="cls-14" x1="210.11" y1="207.06" x2="210.11" y2="222.26"/><line class="cls-14" x1="222.83" y1="193.46" x2="222.83" y2="208.67"/><line class="cls-14" x1="227.76" y1="213.29" x2="227.76" y2="228.49"/><line class="cls-14" x1="237.79" y1="197.44" x2="237.79" y2="212.65"/><line class="cls-14" x1="243.72" y1="213.29" x2="243.72" y2="228.49"/><line class="cls-14" x1="235.74" y1="219.84" x2="235.74" y2="235.04"/><line class="cls-14" x1="246.17" y1="185.86" x2="246.17" y2="201.07"/><line class="cls-14" x1="252.23" y1="198.08" x2="252.23" y2="213.29"/><line class="cls-14" x1="258.29" y1="205.69" x2="258.29" y2="220.89"/><line class="cls-14" x1="266" y1="198.08" x2="266" y2="213.29"/><line class="cls-14" x1="262.36" y1="184.84" x2="262.36" y2="200.04"/><line class="cls-14" x1="273.31" y1="178.26" x2="273.31" y2="193.46"/><line class="cls-14" x1="266" y1="167.04" x2="266" y2="182.24"/><line class="cls-14" x1="257.02" y1="170.66" x2="257.02" y2="185.86"/><line class="cls-14" x1="240.17" y1="173.53" x2="240.17" y2="188.73"/><line class="cls-14" x1="172.13" y1="158.33" x2="172.13" y2="173.53"/><line class="cls-14" x1="174.61" y1="189.84" x2="174.61" y2="205.04"/><line class="cls-14" x1="185.28" y1="168.71" x2="185.28" y2="183.91"/><line class="cls-14" x1="212.06" y1="191.17" x2="212.06" y2="198.77"/><line class="cls-14" x1="217.68" y1="219.84" x2="217.68" y2="235.04"/><line class="cls-14" x1="181.47" y1="210.29" x2="181.47" y2="223.26"/><line class="cls-14" x1="203.22" y1="214.66" x2="203.22" y2="229.86"/><rect class="cls-7" x="163.89" y="80.55" width="116.5" height="25.97" rx="11.89" ry="11.89"/><path class="cls-7" d="M173.54,82.42a48.6,48.6,0,0,1,97.2,0"/><circle class="cls-13" cx="196.34" cy="126.39" r="15.96"/><circle class="cls-13" cx="243.72" cy="126.39" r="15.96"/><line class="cls-13" x1="180.99" y1="122.03" x2="170.62" y2="115.93"/><line class="cls-13" x1="259.06" y1="122.03" x2="274.5" y2="115.02"/><path class="cls-11" d="M255.49,126.79a11.77,11.77,0,0,0-23.54,0s2.24-3.09,11.77-3.09C252.78,123.7,255.49,126.79,255.49,126.79Z"/><circle class="cls-12" cx="196.34" cy="127.7" r="9.96"/><path d="M202.08,126.79a5.74,5.74,0,0,1-11.47,0"/><path d="M190.61,126.8a5.74,5.74,0,1,1,11.47,0"/><path class="cls-11" d="M208.11,126.79a11.77,11.77,0,0,0-23.54,0s2.24-3.09,11.77-3.09C205.4,123.7,208.11,126.79,208.11,126.79Z"/><path d="M234.16,179.65c0,6.36-6.19,11.52-13.82,11.52s-13.83-5.16-13.83-11.52"/><path class="cls-12" d="M233.91,181.75s-11.74,6.95-27.17,0l-.23-2.1h27.65Z"/><path class="cls-15" d="M230.41,533.85c-.06,3.48,3.31,6.35,7.51,6.42l50.85.84s12.67.93,12.81-7.33c.15-9-10.35-8.33-10.35-8.33-1.11-.21-16.21.7-30.34-7.42a16.5,16.5,0,0,0-7.94-2.11l-14.62-.25c-4.21-.07-7.66,2.69-7.72,6.17Z"/><path class="cls-15" d="M212,533.85c.06,3.48-3.3,6.35-7.51,6.42l-50.85.84s-12.67.93-12.81-7.33c-.15-9,10.35-8.33,10.35-8.33,1.12-.21,16.21.7,30.34-7.42a16.5,16.5,0,0,1,7.94-2.11l14.62-.25c4.21-.07,7.66,2.69,7.72,6.17Z"/></svg>
