<svg id="Layer_1" data-name="Layer 1" xmlns="http://www.w3.org/2000/svg" width="1269.36" height="714.02" viewBox="0 0 1269.36 714.02"><defs><style>.cls-1{fill:#338e1c;}.cls-2{fill:#6b572f;}.cls-3{fill:#7f6840;}.cls-4{fill:#33971c;}.cls-5{fill:#33b21c;}.cls-6{fill:#b2884b;}.cls-7{fill:#fff;}.cls-10,.cls-8,.cls-9{fill:#f6ff3e;}.cls-9{opacity:0.6;}.cls-10{opacity:0.8;}</style></defs><title>Artboard 6</title><path class="cls-1" d="M1259.42,587.12c-.47-28.68-17.23-53.75-42.49-68.63,11.63-9.52,18.8-23.1,18.56-38.08-.46-28.16-27-50.55-59.23-50a65.46,65.46,0,0,0-23.91,4.89c-16.73-19.28-43.43-31.55-73.32-31.06-35.41.58-65.76,18.89-80.1,45.05a61.76,61.76,0,0,0-36.17-10.63c-31.36.51-56.43,23.12-56,50.5a43.87,43.87,0,0,0,2.61,14.17c-.79,0-1.58,0-2.38,0-47.39.78-85.25,34.94-84.58,76.31s39.64,74.27,87,73.5a94.14,94.14,0,0,0,49.75-14.85c19.51,16.58,46.32,26.61,75.76,26.13a117,117,0,0,0,58.28-16.31c17.92,15.94,43,25.65,70.68,25.2C1217.43,672.38,1260.18,633.82,1259.42,587.12Z"/><rect class="cls-2" x="127.13" y="148.19" width="38.17" height="136.1" rx="12" ry="12" transform="translate(292.43 432.47) rotate(-180)"/><rect class="cls-3" x="143.96" y="148.19" width="21.34" height="136.1" rx="10.67" ry="10.67" transform="translate(309.25 432.47) rotate(180)"/><path class="cls-4" d="M12.49,127.42c.3-18,10.85-33.82,26.73-43.18-7.31-6-11.82-14.54-11.67-24,.29-17.71,17-31.81,37.27-31.47a41,41,0,0,1,15,3.07C90.38,19.75,107.18,12,126,12.34a64,64,0,0,1,18,2.85V175.24A72.51,72.51,0,0,1,117,165.76c-11.27,10-27.07,16.13-44.47,15.85C38.91,181.06,12,156.8,12.49,127.42Z"/><path class="cls-5" d="M144,15.19c14.29,4.43,25.94,13.69,32.41,25.49A38.87,38.87,0,0,1,199.19,34c19.74.32,35.5,14.55,35.22,31.78a27.42,27.42,0,0,1-1.64,8.91c.5,0,1,0,1.5,0,29.81.49,53.64,22,53.21,48s-24.94,46.73-54.75,46.24a59.19,59.19,0,0,1-31.3-9.34C189.15,170,172.29,176.32,153.76,176a77.55,77.55,0,0,1-9.73-.78Z"/><path class="cls-5" d="M83.8,180.9a70.14,70.14,0,0,1-20,0Z"/><path class="cls-6" d="M373.36,333.76h-85a39.83,39.83,0,0,1-36-22.79l-39.12-82.73a20.45,20.45,0,0,1,18.49-29.19H432.63a20.45,20.45,0,0,1,18.26,29.66l-42,83.17A39.84,39.84,0,0,1,373.36,333.76Z"/><rect class="cls-7" x="294.24" y="147.65" width="16.48" height="230.99" transform="translate(-82.61 151.57) rotate(-24.86)"/><rect class="cls-7" x="337.73" y="147.65" width="16.48" height="230.99" transform="translate(-78.58 169.86) rotate(-24.86)"/><rect class="cls-7" x="379.98" y="147.65" width="16.48" height="230.99" transform="translate(-74.66 187.63) rotate(-24.86)"/><rect class="cls-7" x="417.13" y="133.26" width="16.48" height="230.99" transform="translate(-65.17 201.91) rotate(-24.86)"/><rect class="cls-7" x="259.06" y="158.41" width="16.48" height="230.99" transform="translate(-90.39 137.78) rotate(-24.86)"/><circle class="cls-8" cx="543.19" cy="503" r="115.75"/><circle class="cls-9" cx="543.19" cy="503" r="159.51"/><ellipse class="cls-10" cx="543.19" cy="503" rx="134.36" ry="139.18"/></svg>