<svg id="Layer_1" data-name="Layer 1" xmlns="http://www.w3.org/2000/svg" width="1920" height="1080" viewBox="0 0 1920 1080"><defs><style>.cls-1{fill:#00a8f5;}.cls-2{fill:#00c2ff;}.cls-3{fill:#00d0ff;}.cls-4{fill:#00e3ff;}.cls-5{fill:#006837;}.cls-6{fill:#187c4a;}.cls-7{fill:#2ba568;}.cls-8{fill:#6b572f;}.cls-9{fill:#7f6840;}.cls-10{fill:#33971c;}.cls-11{fill:#33b21c;}.cls-12{fill:none;stroke:#b2884b;stroke-miterlimit:10;stroke-width:15px;}.cls-13{fill:#b2884b;}.cls-14{fill:#c69c6d;}.cls-15{fill:#a07200;}.cls-16{fill:#98a02a;}.cls-17{fill:#56291d;}.cls-18{fill:#4c4c1d;}.cls-19{fill:#2b2a0e;}.cls-20{fill:#d30d0d;}.cls-21{fill:#e54545;}.cls-22{fill:#ef9595;}.cls-23{fill:#56cc2f;}.cls-24{fill:#5b5a45;}.cls-25{fill:#161506;}.cls-26{fill:#f7a794;}.cls-27{fill:#fff;}.cls-28{fill:#a8a7a7;}.cls-29{fill:#7ebbb2;opacity:0.75;}.cls-30{fill:#e8d350;}.cls-31,.cls-32,.cls-33{fill:#f6ff3e;}.cls-32{opacity:0.6;}.cls-33{opacity:0.8;}</style></defs><title>Artboard 5</title><rect class="cls-1" width="1920" height="189.83"/><rect class="cls-2" y="189.83" width="1920" height="189.83"/><rect class="cls-3" y="379.66" width="1920" height="189.83"/><rect class="cls-4" y="569.48" width="1920" height="189.83"/><rect class="cls-5" y="759.31" width="1920" height="122.69"/><rect class="cls-6" y="880" width="1920" height="102"/><rect class="cls-7" y="980" width="1920" height="102"/><rect class="cls-8" x="1292.5" y="478.81" width="118.38" height="501.19" rx="12" ry="12"/><rect class="cls-9" x="1292.5" y="478.81" width="66.19" height="501.19" rx="12" ry="12"/><rect class="cls-8" x="1355.28" y="493.84" width="13.05" height="74.07" rx="3.34" ry="3.34" transform="translate(2466.14 1488.35) rotate(-160.37)"/><rect class="cls-9" x="1360.86" y="494.81" width="7.3" height="74.07" rx="1.87" ry="1.87" transform="translate(2471.08 1491.14) rotate(-160.37)"/><path class="cls-10" d="M1766.42,414.39c-.92-56-33.63-104.87-82.91-133.91,22.68-18.58,36.69-45.09,36.21-74.31-.9-54.94-52.64-98.65-115.58-97.62a127.75,127.75,0,0,0-46.65,9.54c-32.65-37.63-84.75-61.57-143.08-60.61a199.32,199.32,0,0,0-55.78,8.83v496.4a224.86,224.86,0,0,0,83.54-29.4c35,31.09,84,50,137.92,49.16C1684.48,580.77,1767.9,505.51,1766.42,414.39Z"/><path class="cls-11" d="M1358.46,66.31C1314.14,80.05,1278,108.78,1258,145.39c-19.34-13.37-43.93-21.19-70.58-20.75-61.2,1-110.11,45.11-109.23,98.54a85.2,85.2,0,0,0,5.09,27.65c-1.55,0-3.09-.06-4.64,0-92.47,1.51-166.37,68.17-165,148.89s77.35,144.94,169.82,143.43c36.4-.6,69.89-11.32,97.08-29,38.06,32.36,90.38,51.93,147.83,51a237.35,237.35,0,0,0,30.19-2.41Z"/><path class="cls-11" d="M1545.26,580.28a218.66,218.66,0,0,0,62.15,0Z"/><rect class="cls-8" x="1115.84" y="696.27" width="28.12" height="100.26" rx="12" ry="12"/><rect class="cls-9" x="1115.84" y="696.27" width="15.72" height="100.26" rx="7.86" ry="7.86"/><rect class="cls-8" x="1130.75" y="699.84" width="3.1" height="17.59" rx="1.55" ry="1.55" transform="matrix(-0.94, -0.34, 0.34, -0.94, 1960.76, 1756.45)"/><rect class="cls-9" x="1132.08" y="700.07" width="1.73" height="17.59" rx="0.87" ry="0.87" transform="translate(1961.93 1757.12) rotate(-160.37)"/><path class="cls-10" d="M1228.41,681c-.22-13.29-8-24.91-19.7-31.81a22.33,22.33,0,0,0,8.6-17.65c-.21-13-12.5-23.43-27.45-23.19a30.46,30.46,0,0,0-11.08,2.27c-7.75-8.94-20.13-14.63-34-14.4a47.34,47.34,0,0,0-13.25,2.1V716.2a53.38,53.38,0,0,0,19.84-7,48,48,0,0,0,32.76,11.68C1209,720.49,1228.76,702.61,1228.41,681Z"/><path class="cls-11" d="M1131.5,598.29c-10.52,3.26-19.1,10.09-23.87,18.78a28.69,28.69,0,0,0-16.76-4.93c-14.54.24-26.16,10.72-25.95,23.41a20.34,20.34,0,0,0,1.21,6.57c-.37,0-.73,0-1.1,0-22,.36-39.52,16.19-39.2,35.37s18.37,34.42,40.33,34.06a43.55,43.55,0,0,0,23.06-6.88,52.84,52.84,0,0,0,35.11,12.11,58,58,0,0,0,7.17-.57Z"/><path class="cls-11" d="M1175.88,720.37a50.68,50.68,0,0,0,8.23.52,50,50,0,0,0,6.53-.52Z"/><rect class="cls-8" x="1725.67" y="718.21" width="38.17" height="136.1" rx="12" ry="12" transform="translate(3489.51 1572.51) rotate(-180)"/><rect class="cls-9" x="1742.5" y="718.21" width="21.34" height="136.1" rx="10.67" ry="10.67" transform="translate(3506.34 1572.51) rotate(-180)"/><rect class="cls-8" x="1739.39" y="723.05" width="4.21" height="23.88" rx="2.1" ry="2.1" transform="translate(-145.7 627.71) rotate(-19.63)"/><rect class="cls-9" x="1739.44" y="723.36" width="2.35" height="23.88" rx="1.18" ry="1.18" transform="translate(-145.86 627.44) rotate(-19.63)"/><path class="cls-10" d="M1611,697.44c.3-18,10.85-33.82,26.74-43.18-7.32-6-11.83-14.54-11.68-24,.29-17.71,17-31.81,37.27-31.47a41,41,0,0,1,15,3.07c10.52-12.13,27.32-19.85,46.13-19.54a64,64,0,0,1,18,2.85v160a72.51,72.51,0,0,1-26.93-9.48c-11.27,10-27.07,16.14-44.47,15.85C1637.45,751.08,1610.55,726.82,1611,697.44Z"/><path class="cls-11" d="M1742.57,585.21c14.29,4.43,25.94,13.69,32.41,25.49a38.87,38.87,0,0,1,22.75-6.69c19.74.32,35.51,14.55,35.23,31.78a27.69,27.69,0,0,1-1.65,8.91c.5,0,1,0,1.5,0,29.81.49,53.64,22,53.21,48s-24.93,46.73-54.75,46.24a59.24,59.24,0,0,1-31.3-9.34C1787.7,740,1770.83,746.34,1752.3,746a77.71,77.71,0,0,1-9.73-.78Z"/><path class="cls-11" d="M1682.34,750.92a70.14,70.14,0,0,1-20,0Z"/><ellipse class="cls-12" cx="714.97" cy="867.88" rx="29.71" ry="67.04"/><path class="cls-13" d="M752.91,1011.19H674.62c-14.18,0-27.1-8.88-33.16-22.8l-36-82.72c-5.91-13.57,3.2-29.2,17-29.2h185c14,0,23.14,16.06,16.82,29.67L785.65,989.3C779.42,1002.72,766.75,1011.19,752.91,1011.19Z"/><path class="cls-14" d="M740.21,988.64H688.12c-9.43,0-18-5.9-22.06-15.16l-24-55c-3.93-9,2.14-19.43,11.34-19.43H776.53c9.34,0,15.4,10.69,11.19,19.74L762,974.08C757.85,983,749.42,988.64,740.21,988.64Z"/><ellipse class="cls-15" cx="1404.43" cy="272.4" rx="31.1" ry="27.15" transform="translate(-8.08 45.59) rotate(-1.85)"/><path class="cls-16" d="M1383.93,237.81a11.06,11.06,0,0,1,1.7-.27,13.89,13.89,0,0,1,1.57,0,14.75,14.75,0,0,1,2.88.34,17.09,17.09,0,0,1,5,1.95,16.92,16.92,0,0,1,4.18,3.41,15.54,15.54,0,0,1,1.72,2.34c.26.44.5.9.73,1.39a9.92,9.92,0,0,1,.6,1.62,10.12,10.12,0,0,1-1.7.27,14,14,0,0,1-1.57.05,14.76,14.76,0,0,1-2.89-.34,16.94,16.94,0,0,1-5-2,17.14,17.14,0,0,1-4.18-3.42,16.26,16.26,0,0,1-1.72-2.34,15.09,15.09,0,0,1-.73-1.39A10.4,10.4,0,0,1,1383.93,237.81Z"/><path class="cls-16" d="M1419.32,236.38a10.35,10.35,0,0,1-.48,1.65,13.56,13.56,0,0,1-.62,1.44,15.4,15.4,0,0,1-1.53,2.47,16.59,16.59,0,0,1-3.9,3.73,16.81,16.81,0,0,1-4.85,2.36,15.64,15.64,0,0,1-2.85.56,13.35,13.35,0,0,1-1.57.07,10.59,10.59,0,0,1-1.72-.13,11.31,11.31,0,0,1,.47-1.66c.19-.51.4-1,.62-1.45a17.18,17.18,0,0,1,1.53-2.47,17.38,17.38,0,0,1,8.77-6.06,15.69,15.69,0,0,1,2.84-.57,13.44,13.44,0,0,1,1.57-.07A10.59,10.59,0,0,1,1419.32,236.38Z"/><path class="cls-17" d="M1402.08,248c.89-2.07.37-3.88-.59-5.8-.17-.34-.37-.73-.43-.91a1.51,1.51,0,0,1-.17-.8c0-.16,0,.14,0-.06a1.14,1.14,0,0,1,.07-.22c0,.08.14-.2.16-.22a3.79,3.79,0,0,1,1.17-.82,28.33,28.33,0,0,1,7-2.09c1.07-.23.62-1.87-.45-1.64a35.49,35.49,0,0,0-6.8,1.95,5.06,5.06,0,0,0-2.65,2.07c-.83,1.66.59,3.39,1.1,4.75a3.69,3.69,0,0,1,.06,2.93c-.44,1,1,1.86,1.47.86Z"/><ellipse class="cls-18" cx="1400.22" cy="280.62" rx="6.71" ry="9.46" transform="translate(22.24 655.51) rotate(-26.55)"/><ellipse class="cls-19" cx="1400.29" cy="280.19" rx="4.03" ry="5.68" transform="translate(22.44 655.49) rotate(-26.55)"/><ellipse class="cls-18" cx="1384.82" cy="263.02" rx="6.37" ry="4.28" transform="translate(566.6 1410.81) rotate(-65.27)"/><ellipse class="cls-19" cx="1384.82" cy="263.02" rx="4.28" ry="2.88" transform="translate(566.6 1410.81) rotate(-65.27)"/><ellipse class="cls-18" cx="1418.42" cy="253.78" rx="5.81" ry="4.13" transform="translate(-13.25 90.57) rotate(-3.64)"/><ellipse class="cls-19" cx="1418.42" cy="253.78" rx="3.91" ry="2.77" transform="translate(-13.25 90.57) rotate(-3.64)"/><ellipse class="cls-18" cx="1426.06" cy="273.59" rx="5.59" ry="7.88" transform="translate(674.57 1516.06) rotate(-69.69)"/><ellipse class="cls-19" cx="1426.06" cy="273.59" rx="3.76" ry="5.3" transform="translate(674.57 1516.06) rotate(-69.69)"/><ellipse class="cls-15" cx="1464.36" cy="128.16" rx="31.1" ry="27.15" transform="translate(-3.38 47.45) rotate(-1.85)"/><path class="cls-16" d="M1443.86,93.57a11.06,11.06,0,0,1,1.7-.27,13.89,13.89,0,0,1,1.57,0,14.75,14.75,0,0,1,2.88.34,17.09,17.09,0,0,1,5,2,16.92,16.92,0,0,1,4.18,3.41,15.54,15.54,0,0,1,1.72,2.34c.26.44.5.9.73,1.39a9.92,9.92,0,0,1,.6,1.62,10,10,0,0,1-1.7.27,14,14,0,0,1-1.57,0,14.76,14.76,0,0,1-2.89-.34,16.94,16.94,0,0,1-5-2,17.14,17.14,0,0,1-4.18-3.42,15.49,15.49,0,0,1-1.71-2.34,13,13,0,0,1-.74-1.39A10.4,10.4,0,0,1,1443.86,93.57Z"/><path class="cls-16" d="M1479.25,92.14a10.35,10.35,0,0,1-.48,1.65,14.7,14.7,0,0,1-.62,1.45,15,15,0,0,1-1.53,2.46,16.59,16.59,0,0,1-3.9,3.73,16.81,16.81,0,0,1-4.85,2.36,15.64,15.64,0,0,1-2.85.56,13.35,13.35,0,0,1-1.57.07,10.59,10.59,0,0,1-1.72-.13,10.18,10.18,0,0,1,.48-1.66,14.67,14.67,0,0,1,.61-1.45,17.18,17.18,0,0,1,1.53-2.47,17.38,17.38,0,0,1,8.77-6.06,15.69,15.69,0,0,1,2.84-.57,13.44,13.44,0,0,1,1.57-.07A10.59,10.59,0,0,1,1479.25,92.14Z"/><path class="cls-17" d="M1462,103.76c.89-2.07.37-3.88-.59-5.8-.17-.34-.37-.73-.43-.91a1.51,1.51,0,0,1-.17-.8c0-.16,0,.14,0-.06a1.14,1.14,0,0,1,.07-.22c0,.08.14-.2.16-.22a3.79,3.79,0,0,1,1.17-.82,28.33,28.33,0,0,1,7-2.09c1.08-.23.62-1.87-.45-1.64a35.49,35.49,0,0,0-6.8,2,5.06,5.06,0,0,0-2.65,2.07c-.83,1.66.59,3.39,1.1,4.75a3.64,3.64,0,0,1,.06,2.93c-.43,1,1,1.86,1.47.86Z"/><ellipse class="cls-18" cx="1460.15" cy="136.39" rx="6.71" ry="9.46" transform="translate(93.04 667.09) rotate(-26.55)"/><ellipse class="cls-19" cx="1460.22" cy="135.95" rx="4.03" ry="5.68" transform="translate(93.24 667.07) rotate(-26.55)"/><ellipse class="cls-18" cx="1444.75" cy="118.78" rx="6.37" ry="4.28" transform="translate(732.47 1381.34) rotate(-65.27)"/><ellipse class="cls-19" cx="1444.75" cy="118.78" rx="4.28" ry="2.88" transform="translate(732.47 1381.34) rotate(-65.27)"/><ellipse class="cls-18" cx="1478.35" cy="109.54" rx="5.81" ry="4.13" transform="translate(-3.97 94.08) rotate(-3.64)"/><ellipse class="cls-19" cx="1478.35" cy="109.54" rx="3.91" ry="2.77" transform="translate(-3.97 94.08) rotate(-3.64)"/><ellipse class="cls-18" cx="1485.99" cy="129.35" rx="5.59" ry="7.88" transform="translate(848.97 1478.09) rotate(-69.69)"/><ellipse class="cls-19" cx="1485.99" cy="129.35" rx="3.76" ry="5.3" transform="translate(848.97 1478.09) rotate(-69.69)"/><ellipse class="cls-15" cx="1116.72" cy="415.98" rx="31.1" ry="27.15" transform="translate(-12.88 36.35) rotate(-1.85)"/><path class="cls-16" d="M1096.22,381.39a11.06,11.06,0,0,1,1.7-.27c.54,0,1.06-.06,1.57-.05a15.54,15.54,0,0,1,2.88.35,17.23,17.23,0,0,1,9.21,5.36,14.43,14.43,0,0,1,1.72,2.34,15.09,15.09,0,0,1,.73,1.39,9.28,9.28,0,0,1,.6,1.62,11.06,11.06,0,0,1-1.7.27,13.94,13.94,0,0,1-1.57.05,15.77,15.77,0,0,1-2.89-.34,16.7,16.7,0,0,1-5-2,17.1,17.1,0,0,1-4.18-3.41,16,16,0,0,1-1.71-2.34c-.26-.44-.51-.9-.74-1.39A11.54,11.54,0,0,1,1096.22,381.39Z"/><path class="cls-16" d="M1131.61,380a10.35,10.35,0,0,1-.48,1.65,11.77,11.77,0,0,1-.62,1.44,14.72,14.72,0,0,1-1.53,2.47,17.25,17.25,0,0,1-8.75,6.08,15.63,15.63,0,0,1-2.85.57,13.25,13.25,0,0,1-1.57.07,9.45,9.45,0,0,1-1.71-.14,9.41,9.41,0,0,1,.47-1.65,12.64,12.64,0,0,1,.62-1.45,15.37,15.37,0,0,1,1.52-2.47,17.38,17.38,0,0,1,8.77-6.06,15.63,15.63,0,0,1,2.85-.57c.5,0,1-.08,1.56-.08A10.57,10.57,0,0,1,1131.61,380Z"/><path class="cls-17" d="M1114.37,391.57c.89-2.06.37-3.87-.59-5.79-.17-.34-.37-.73-.43-.91a1.63,1.63,0,0,1-.17-.8c0-.16,0,.14,0-.06a1.55,1.55,0,0,1,.07-.23c0,.09.14-.19.16-.21a3.63,3.63,0,0,1,1.17-.82,28.33,28.33,0,0,1,7.05-2.09c1.08-.23.62-1.87-.45-1.64a35.7,35.7,0,0,0-6.8,2,5,5,0,0,0-2.65,2.06c-.83,1.67.59,3.39,1.1,4.75a3.61,3.61,0,0,1,.06,2.93c-.43,1,1,1.87,1.47.86Z"/><ellipse class="cls-18" cx="1112.52" cy="424.2" rx="6.71" ry="9.46" transform="translate(-72.28 542.04) rotate(-26.55)"/><ellipse class="cls-19" cx="1112.58" cy="423.77" rx="4.03" ry="5.68" transform="translate(-72.08 542.03) rotate(-26.55)"/><ellipse class="cls-18" cx="1097.11" cy="406.6" rx="6.37" ry="4.28" transform="translate(268.84 1233) rotate(-65.27)"/><ellipse class="cls-19" cx="1097.11" cy="406.6" rx="4.28" ry="2.88" transform="translate(268.84 1233) rotate(-65.27)"/><ellipse class="cls-18" cx="1130.71" cy="397.36" rx="5.81" ry="4.13" transform="translate(-22.95 72.59) rotate(-3.64)"/><ellipse class="cls-19" cx="1130.71" cy="397.36" rx="3.91" ry="2.77" transform="translate(-22.95 72.59) rotate(-3.64)"/><ellipse class="cls-18" cx="1138.35" cy="417.16" rx="5.59" ry="7.88" transform="translate(352.05 1339.99) rotate(-69.69)"/><ellipse class="cls-19" cx="1138.35" cy="417.16" rx="3.76" ry="5.3" transform="translate(352.05 1339.99) rotate(-69.69)"/><ellipse class="cls-15" cx="1529.14" cy="477.9" rx="31.1" ry="27.15" transform="translate(-14.66 49.73) rotate(-1.85)"/><path class="cls-16" d="M1508.64,443.31a10,10,0,0,1,1.7-.26,13.94,13.94,0,0,1,1.57-.05,15.55,15.55,0,0,1,2.88.34,17,17,0,0,1,5,2,16.65,16.65,0,0,1,4.18,3.4,15.36,15.36,0,0,1,1.72,2.34,13.15,13.15,0,0,1,.73,1.4,9.47,9.47,0,0,1,.6,1.61,9.06,9.06,0,0,1-1.7.27,11.93,11.93,0,0,1-1.57.05,14.94,14.94,0,0,1-2.89-.34,17.28,17.28,0,0,1-9.2-5.38,15,15,0,0,1-1.71-2.34,12.1,12.1,0,0,1-.73-1.39A10.4,10.4,0,0,1,1508.64,443.31Z"/><path class="cls-16" d="M1544,441.88a10.48,10.48,0,0,1-.48,1.66,13.28,13.28,0,0,1-.62,1.44,15.58,15.58,0,0,1-1.53,2.47,17.16,17.16,0,0,1-3.89,3.73,16.85,16.85,0,0,1-4.86,2.35,14.83,14.83,0,0,1-2.85.56,13.19,13.19,0,0,1-1.57.08,10.45,10.45,0,0,1-1.71-.14,9.53,9.53,0,0,1,.47-1.66,11.77,11.77,0,0,1,.62-1.44,15.37,15.37,0,0,1,1.52-2.47,16.82,16.82,0,0,1,3.91-3.73,17.09,17.09,0,0,1,4.86-2.34,14.83,14.83,0,0,1,2.85-.56,13.13,13.13,0,0,1,1.56-.08A10.43,10.43,0,0,1,1544,441.88Z"/><path class="cls-17" d="M1526.79,453.5c.89-2.07.37-3.88-.59-5.8a9.41,9.41,0,0,1-.43-.9,1.67,1.67,0,0,1-.17-.81c0-.15,0,.14,0-.06a1.87,1.87,0,0,1,.07-.22c0,.08.14-.19.16-.22a3.79,3.79,0,0,1,1.17-.82,28.76,28.76,0,0,1,7-2.09c1.08-.22.62-1.87-.45-1.64a35.7,35.7,0,0,0-6.8,1.95,5,5,0,0,0-2.64,2.07c-.84,1.66.58,3.39,1.09,4.75a3.6,3.6,0,0,1,.06,2.93c-.43,1,1,1.86,1.47.86Z"/><ellipse class="cls-18" cx="1524.94" cy="486.13" rx="6.71" ry="9.46" transform="translate(-56.47 732.93) rotate(-26.55)"/><ellipse class="cls-19" cx="1525" cy="485.7" rx="4.03" ry="5.68" transform="translate(-56.27 732.92) rotate(-26.55)"/><ellipse class="cls-18" cx="1509.53" cy="468.53" rx="6.37" ry="4.28" transform="translate(452.48 1643.62) rotate(-65.27)"/><ellipse class="cls-19" cx="1509.53" cy="468.53" rx="4.28" ry="2.88" transform="translate(452.48 1643.62) rotate(-65.27)"/><ellipse class="cls-18" cx="1543.13" cy="459.28" rx="5.81" ry="4.13" transform="translate(-26.05 98.9) rotate(-3.64)"/><ellipse class="cls-19" cx="1543.13" cy="459.28" rx="3.91" ry="2.77" transform="translate(-26.05 98.9) rotate(-3.64)"/><ellipse class="cls-18" cx="1550.77" cy="479.09" rx="5.59" ry="7.88" transform="translate(563.27 1767.21) rotate(-69.69)"/><ellipse class="cls-19" cx="1550.77" cy="479.09" rx="3.76" ry="5.3" transform="translate(563.27 1767.21) rotate(-69.69)"/><ellipse class="cls-20" cx="1555.25" cy="222.49" rx="39.58" ry="34.55" transform="translate(-6.39 50.44) rotate(-1.85)"/><ellipse class="cls-21" cx="1573.34" cy="204.24" rx="8.45" ry="10.29" transform="translate(319.53 1176.38) rotate(-45.18)"/><ellipse class="cls-22" cx="1572.29" cy="203.02" rx="3.36" ry="4.1" transform="translate(320.08 1175.28) rotate(-45.18)"/><path class="cls-23" d="M1529.17,178.47l.39-.25.36-.21.74-.41c.47-.25.93-.48,1.37-.68a24.26,24.26,0,0,1,2.54-1,17.94,17.94,0,0,1,4.42-.85,12.09,12.09,0,0,1,6.94,1.55,11.91,11.91,0,0,1,4.78,5.26,17.51,17.51,0,0,1,1.44,4.27c.07.43.16.84.23,1.29s.12.9.16,1.41.07,1,.09,1.53v1.27l0,.47-.39.25-.37.21-.73.42c-.47.25-.94.48-1.38.68s-.87.37-1.3.55-.83.29-1.24.43a17.7,17.7,0,0,1-4.42.86,12,12,0,0,1-6.93-1.58,12.11,12.11,0,0,1-4.77-5.28,18,18,0,0,1-1.44-4.27,24.25,24.25,0,0,1-.39-2.68c0-.48-.07-1-.09-1.53v-1.27Z"/><path class="cls-23" d="M1574.2,176.65l.06.46,0,.42.07.84c0,.53,0,1,0,1.53,0,1-.09,1.86-.18,2.71a18.23,18.23,0,0,1-1.1,4.37,11.78,11.78,0,0,1-11.13,7.75,17.52,17.52,0,0,1-4.47-.51c-.43-.11-.83-.2-1.27-.34s-.87-.26-1.34-.44-.94-.36-1.43-.57l-.76-.36-.39-.18-.41-.22-.06-.47,0-.42-.07-.84c0-.53,0-1.06,0-1.54s0-.94,0-1.41.09-.87.13-1.31a17.78,17.78,0,0,1,1.09-4.37,11.8,11.8,0,0,1,11.16-7.7,18.06,18.06,0,0,1,4.48.5,24.89,24.89,0,0,1,2.6.78c.45.16.93.36,1.42.57l.77.35.38.18Z"/><path class="cls-17" d="M1553.43,191.46a7.71,7.71,0,0,0,.22-5.17,14.51,14.51,0,0,0-.9-2.2c-.14-.29-.29-.58-.44-.87-.07-.13-.38-.86-.24-.48a4,4,0,0,1-.22-.69.62.62,0,0,1,0-.13c0,.12.11.06,0,.14.3-.16.33-.33.62-.52,2.6-1.79,6.4-2.29,9.4-2.94,2.74-.59,1.58-4.8-1.16-4.2-3.83.82-13.3,2.07-13.16,7.73a10.84,10.84,0,0,0,1.54,4.26,4.26,4.26,0,0,1,.19,3.92c-1.08,2.58,3.14,3.71,4.21,1.15Z"/><ellipse class="cls-20" cx="1249.28" cy="314.45" rx="39.58" ry="34.55" transform="translate(-9.52 40.59) rotate(-1.85)"/><ellipse class="cls-21" cx="1267.37" cy="296.2" rx="8.45" ry="10.29" transform="translate(163.97 986.48) rotate(-45.18)"/><ellipse class="cls-22" cx="1266.31" cy="294.99" rx="3.36" ry="4.1" transform="translate(164.52 985.37) rotate(-45.18)"/><path class="cls-23" d="M1223.19,270.43l.4-.24.36-.21.74-.42c.47-.25.93-.48,1.37-.67a22.1,22.1,0,0,1,2.53-1,17.64,17.64,0,0,1,4.43-.85,12.11,12.11,0,0,1,6.94,1.55,11.94,11.94,0,0,1,4.78,5.25,17.66,17.66,0,0,1,1.44,4.27c.07.44.16.84.22,1.3s.13.9.17,1.4.07,1,.08,1.53v1.28l0,.46-.39.25-.37.21-.74.42c-.47.25-.93.49-1.37.68s-.87.37-1.3.55-.83.29-1.24.44a17.65,17.65,0,0,1-4.42.85,12,12,0,0,1-6.93-1.57,12.11,12.11,0,0,1-4.77-5.28,18.1,18.1,0,0,1-1.44-4.27,24.8,24.8,0,0,1-.39-2.69c0-.48-.07-1-.09-1.53V270.9Z"/><path class="cls-23" d="M1268.23,268.61l.06.46,0,.43.07.84c0,.53,0,1.05,0,1.52a24.88,24.88,0,0,1-.19,2.72,17.7,17.7,0,0,1-1.09,4.36,12.21,12.21,0,0,1-4.34,5.64,12,12,0,0,1-6.79,2.11,18.06,18.06,0,0,1-4.48-.5c-.42-.12-.83-.21-1.26-.34s-.87-.27-1.34-.45-.94-.36-1.43-.57l-.77-.36-.38-.18-.41-.22-.06-.46,0-.42-.07-.85c0-.53,0-1,0-1.53s0-.95,0-1.42.09-.87.13-1.3a17.67,17.67,0,0,1,1.09-4.37,12,12,0,0,1,4.36-5.62,12.23,12.23,0,0,1,6.8-2.09,18.11,18.11,0,0,1,4.48.51,21.9,21.9,0,0,1,2.6.78c.45.15.93.35,1.42.56l.76.36.39.18Z"/><path class="cls-17" d="M1247.45,283.43a7.69,7.69,0,0,0,.23-5.18,15,15,0,0,0-.91-2.2c-.14-.29-.29-.58-.43-.86s-.38-.86-.24-.48a5.73,5.73,0,0,1-.23-.7v-.12c0,.11.11.05,0,.13.3-.15.33-.33.61-.52,2.61-1.79,6.41-2.29,9.41-2.94,2.74-.59,1.58-4.79-1.16-4.2-3.84.82-13.3,2.07-13.16,7.73,0,1.55.89,2.9,1.54,4.26a4.26,4.26,0,0,1,.19,3.92c-1.08,2.58,3.14,3.71,4.2,1.16Z"/><ellipse class="cls-20" cx="1361.8" cy="476.67" rx="39.58" ry="34.55" transform="translate(-14.71 44.32) rotate(-1.85)"/><ellipse class="cls-21" cx="1379.89" cy="458.42" rx="8.45" ry="10.29" transform="translate(82.11 1114.18) rotate(-45.18)"/><ellipse class="cls-22" cx="1378.84" cy="457.21" rx="3.36" ry="4.1" transform="translate(82.66 1113.08) rotate(-45.18)"/><path class="cls-23" d="M1335.72,432.65l.39-.25.37-.21.73-.41c.47-.25.94-.48,1.37-.67a23,23,0,0,1,2.54-1,18.07,18.07,0,0,1,4.42-.86,12.28,12.28,0,0,1,7,1.55,12.08,12.08,0,0,1,4.78,5.26,18.11,18.11,0,0,1,1.43,4.27c.08.44.17.84.23,1.3s.13.9.16,1.4.07,1,.09,1.53v1.27l0,.47-.4.25-.36.21-.74.42c-.47.25-.94.49-1.38.68s-.87.37-1.3.55-.82.29-1.24.44a17.57,17.57,0,0,1-4.42.85,11.78,11.78,0,0,1-11.7-6.85,18.11,18.11,0,0,1-1.43-4.27,22.49,22.49,0,0,1-.4-2.69c0-.48-.07-1-.09-1.53v-1.26Z"/><path class="cls-23" d="M1380.75,430.83l.06.46,0,.42.06.85c0,.52,0,1,0,1.52a22.4,22.4,0,0,1-.18,2.71,17.66,17.66,0,0,1-1.1,4.37,12.15,12.15,0,0,1-4.34,5.64,12,12,0,0,1-6.78,2.11,18,18,0,0,1-4.48-.5c-.42-.12-.83-.21-1.27-.34s-.87-.27-1.34-.45-.94-.36-1.42-.57l-.77-.36-.39-.18-.41-.22-.06-.46,0-.43-.07-.84c0-.53,0-1.05,0-1.53s0-.95.06-1.42.08-.87.12-1.3a17.66,17.66,0,0,1,1.1-4.37,11.94,11.94,0,0,1,4.35-5.62,12.19,12.19,0,0,1,6.81-2.09,17.57,17.57,0,0,1,4.47.51,20.84,20.84,0,0,1,2.6.78c.46.15.94.35,1.43.56l.76.36.38.18Z"/><path class="cls-17" d="M1360,445.65a7.69,7.69,0,0,0,.23-5.18,15.67,15.67,0,0,0-.91-2.2c-.14-.29-.29-.58-.44-.86s-.38-.86-.24-.48c-.08-.23-.16-.46-.22-.7,0,0,0-.13,0-.12s.12.05,0,.13c.29-.15.33-.33.61-.52,2.6-1.79,6.4-2.29,9.4-2.94,2.74-.59,1.58-4.79-1.16-4.2-3.83.82-13.3,2.07-13.16,7.73,0,1.55.9,2.9,1.54,4.26a4.2,4.2,0,0,1,.19,3.92c-1.08,2.58,3.14,3.71,4.21,1.16Z"/><ellipse class="cls-20" cx="1222.12" cy="425.6" rx="39.58" ry="34.55" transform="translate(-13.13 39.77) rotate(-1.85)"/><ellipse class="cls-21" cx="1240.21" cy="407.35" rx="8.45" ry="10.29" transform="translate(77.11 1000.02) rotate(-45.18)"/><ellipse class="cls-22" cx="1239.16" cy="406.13" rx="3.36" ry="4.1" transform="translate(77.66 998.91) rotate(-45.18)"/><path class="cls-23" d="M1196,381.58l.39-.25.37-.21.73-.42c.47-.24.93-.48,1.37-.67a25.14,25.14,0,0,1,2.54-1,18,18,0,0,1,4.42-.85,11.8,11.8,0,0,1,11.73,6.81,18,18,0,0,1,1.43,4.27c.07.43.16.84.23,1.29s.13.9.16,1.41.07,1,.09,1.53v1.27l0,.47-.39.25-.37.21-.73.42c-.47.24-.94.48-1.38.68s-.87.37-1.3.55-.82.29-1.24.43a17.61,17.61,0,0,1-4.42.86,12,12,0,0,1-6.93-1.58,12.11,12.11,0,0,1-4.77-5.28,18,18,0,0,1-1.43-4.27,22.18,22.18,0,0,1-.4-2.69c0-.47-.07-1-.09-1.52V382Z"/><path class="cls-23" d="M1241.07,379.76l.06.46,0,.42.07.84c0,.53,0,1,0,1.53a22.54,22.54,0,0,1-.18,2.71,18.23,18.23,0,0,1-1.1,4.37,11.78,11.78,0,0,1-11.13,7.75,17.57,17.57,0,0,1-4.47-.51c-.43-.11-.83-.2-1.27-.34s-.87-.26-1.34-.44-.94-.36-1.43-.57l-.76-.36-.39-.19-.41-.21-.06-.47,0-.42-.07-.84c0-.54,0-1.06,0-1.54s0-.94.05-1.41.09-.87.13-1.31a18.25,18.25,0,0,1,1.09-4.37,11.8,11.8,0,0,1,11.16-7.7,18.06,18.06,0,0,1,4.48.5,24.89,24.89,0,0,1,2.6.78c.45.16.94.36,1.42.56l.77.36.38.18Z"/><path class="cls-17" d="M1220.3,394.57a7.78,7.78,0,0,0,.23-5.17,15.67,15.67,0,0,0-.91-2.2c-.14-.29-.29-.58-.44-.87-.07-.13-.38-.86-.24-.48a4.26,4.26,0,0,1-.22-.69.62.62,0,0,1,0-.13c0,.12.11.05,0,.14.3-.16.34-.33.62-.52,2.6-1.79,6.4-2.3,9.4-2.94,2.74-.59,1.58-4.8-1.16-4.21-3.83.83-13.3,2.08-13.16,7.74,0,1.55.9,2.9,1.54,4.26a4.19,4.19,0,0,1,.19,3.91c-1.08,2.59,3.14,3.72,4.21,1.16Z"/><ellipse class="cls-20" cx="1494.26" cy="367.23" rx="39.58" ry="34.55" transform="translate(-11.1 48.55) rotate(-1.85)"/><ellipse class="cls-21" cx="1512.35" cy="348.98" rx="8.45" ry="10.29" transform="translate(198.85 1175.84) rotate(-45.18)"/><ellipse class="cls-22" cx="1511.3" cy="347.77" rx="3.36" ry="4.1" transform="translate(199.4 1174.74) rotate(-45.18)"/><path class="cls-23" d="M1468.18,323.21l.39-.24.37-.21.73-.42c.47-.25.93-.48,1.37-.67a23,23,0,0,1,2.54-1,17.57,17.57,0,0,1,4.42-.85,12.09,12.09,0,0,1,6.94,1.55,12,12,0,0,1,4.79,5.25,18.11,18.11,0,0,1,1.43,4.27c.07.44.16.84.23,1.3s.13.9.16,1.4.07,1,.09,1.53v1.27l0,.47-.39.25-.37.21-.73.42c-.47.25-.94.49-1.38.68s-.87.37-1.3.55-.82.29-1.24.44a17.57,17.57,0,0,1-4.42.85,12,12,0,0,1-6.93-1.57,12.17,12.17,0,0,1-4.77-5.28,18.11,18.11,0,0,1-1.43-4.27,22.49,22.49,0,0,1-.4-2.69c0-.48-.07-1-.09-1.53v-1.26Z"/><path class="cls-23" d="M1513.21,321.39l.06.46,0,.43.07.84c0,.53,0,1.05,0,1.52a22.71,22.71,0,0,1-.18,2.72,18.14,18.14,0,0,1-1.1,4.36,12.15,12.15,0,0,1-4.34,5.64,12,12,0,0,1-6.79,2.11,17.94,17.94,0,0,1-4.47-.5c-.43-.12-.83-.21-1.27-.34s-.87-.27-1.34-.45-.94-.36-1.43-.57l-.76-.36-.39-.18-.41-.22-.06-.46,0-.43-.07-.84c0-.53,0-1.05,0-1.53s0-.95,0-1.42.09-.87.13-1.3a17.67,17.67,0,0,1,1.09-4.37,12,12,0,0,1,4.36-5.62,12.18,12.18,0,0,1,6.8-2.09,17.64,17.64,0,0,1,4.48.51,20.84,20.84,0,0,1,2.6.78c.45.15.93.35,1.42.56l.77.36.38.18Z"/><path class="cls-17" d="M1492.44,336.21a7.81,7.81,0,0,0,.23-5.18,15.67,15.67,0,0,0-.91-2.2c-.14-.29-.29-.58-.44-.86s-.38-.86-.24-.48a4.37,4.37,0,0,1-.22-.7.53.53,0,0,1,0-.12c0,.11.11.05,0,.13.3-.15.34-.33.62-.52,2.6-1.79,6.4-2.29,9.4-2.94,2.74-.59,1.58-4.79-1.16-4.2-3.83.82-13.3,2.07-13.16,7.73,0,1.55.9,2.9,1.54,4.26a4.23,4.23,0,0,1,.19,3.92c-1.08,2.58,3.14,3.71,4.21,1.16Z"/><ellipse class="cls-20" cx="1299.18" cy="177.89" rx="39.58" ry="34.55" transform="translate(-5.08 42.13) rotate(-1.85)"/><ellipse class="cls-21" cx="1317.27" cy="159.64" rx="8.45" ry="10.29" transform="translate(275.58 981.57) rotate(-45.18)"/><ellipse class="cls-22" cx="1316.22" cy="158.42" rx="3.36" ry="4.1" transform="translate(276.13 980.46) rotate(-45.18)"/><path class="cls-23" d="M1273.1,133.87l.39-.25.37-.21.73-.41c.47-.25.93-.48,1.37-.68a25.14,25.14,0,0,1,2.54-1,18.5,18.5,0,0,1,4.42-.85,12.25,12.25,0,0,1,6.94,1.55,12,12,0,0,1,4.79,5.26,18.11,18.11,0,0,1,1.43,4.27c.07.43.16.84.23,1.29s.13.9.16,1.41.07,1,.09,1.53v1.27l0,.47-.39.25-.37.21-.73.42c-.47.25-.94.48-1.38.68s-.87.37-1.3.55-.82.29-1.24.44a17.57,17.57,0,0,1-4.42.85,11.77,11.77,0,0,1-11.7-6.86,18,18,0,0,1-1.43-4.26,22.49,22.49,0,0,1-.4-2.69c-.05-.48-.07-1-.09-1.53v-1.27Z"/><path class="cls-23" d="M1318.13,132.05l.06.46,0,.42.07.84c0,.53,0,1,0,1.53a22.54,22.54,0,0,1-.18,2.71,18.23,18.23,0,0,1-1.1,4.37,11.78,11.78,0,0,1-11.13,7.75,17.94,17.94,0,0,1-4.47-.5c-.43-.12-.83-.21-1.27-.34s-.87-.27-1.34-.45-.94-.36-1.43-.57l-.76-.36-.39-.18-.41-.22-.06-.46,0-.43-.07-.84c0-.53,0-1.05,0-1.54s0-.94,0-1.41.09-.87.13-1.3a17.56,17.56,0,0,1,1.09-4.37,12,12,0,0,1,4.36-5.62,12.18,12.18,0,0,1,6.8-2.09,18.06,18.06,0,0,1,4.48.5,24.89,24.89,0,0,1,2.6.78c.45.16.93.36,1.42.57l.77.35.38.18Z"/><path class="cls-17" d="M1297.36,146.87a7.81,7.81,0,0,0,.23-5.18,15.67,15.67,0,0,0-.91-2.2c-.14-.29-.29-.58-.44-.87-.07-.13-.38-.85-.24-.48a4,4,0,0,1-.22-.69.57.57,0,0,1,0-.12c0,.11.11,0,0,.13.3-.15.34-.33.62-.52,2.6-1.79,6.4-2.29,9.4-2.94,2.74-.59,1.58-4.79-1.16-4.2-3.83.82-13.3,2.07-13.16,7.73,0,1.55.9,2.9,1.54,4.26a4.23,4.23,0,0,1,.19,3.92c-1.08,2.58,3.14,3.71,4.21,1.16Z"/><ellipse class="cls-20" cx="1037.49" cy="354.42" rx="34.51" ry="30.12" transform="translate(-10.93 33.76) rotate(-1.85)"/><ellipse class="cls-21" cx="1053.27" cy="338.5" rx="7.37" ry="8.97" transform="translate(-52.48 302.73) rotate(-15.96)"/><ellipse class="cls-22" cx="1052.35" cy="337.44" rx="2.93" ry="3.57" transform="translate(71.25 846.12) rotate(-45.18)"/><path class="cls-23" d="M1014.75,316a11.36,11.36,0,0,1,1.89-.3,14.68,14.68,0,0,1,1.74-.05,17.3,17.3,0,0,1,3.2.38,18.85,18.85,0,0,1,5.58,2.17,18.66,18.66,0,0,1,4.64,3.78,16.74,16.74,0,0,1,1.9,2.6,14.85,14.85,0,0,1,.81,1.54,11.32,11.32,0,0,1,.67,1.79,11.36,11.36,0,0,1-1.89.3,14.74,14.74,0,0,1-1.74.06,17.1,17.1,0,0,1-3.2-.38,18.5,18.5,0,0,1-5.58-2.18,18.7,18.7,0,0,1-4.63-3.79,16.79,16.79,0,0,1-1.91-2.6,14.85,14.85,0,0,1-.81-1.54A11.19,11.19,0,0,1,1014.75,316Z"/><path class="cls-23" d="M1054,314.45a11,11,0,0,1-.52,1.83,15.71,15.71,0,0,1-.69,1.6,16.49,16.49,0,0,1-1.7,2.74,19,19,0,0,1-4.32,4.14,18.59,18.59,0,0,1-5.39,2.61,17.17,17.17,0,0,1-3.16.63,16.38,16.38,0,0,1-1.74.08,11.84,11.84,0,0,1-1.91-.15,11.11,11.11,0,0,1,.53-1.84,14.68,14.68,0,0,1,.68-1.61,17.35,17.35,0,0,1,1.7-2.74,19.14,19.14,0,0,1,9.72-6.72,16.53,16.53,0,0,1,3.16-.63,16.33,16.33,0,0,1,1.74-.09A10.69,10.69,0,0,1,1054,314.45Z"/><path class="cls-17" d="M1034.89,327.34c1-2.29.41-4.3-.66-6.43a11,11,0,0,1-.47-1,1.71,1.71,0,0,1-.19-.89c0-.17,0,.15,0-.07a1,1,0,0,1,.08-.24c-.05.09.15-.22.17-.24a4.2,4.2,0,0,1,1.3-.92,31.78,31.78,0,0,1,7.83-2.31c1.19-.26.69-2.08-.5-1.83a40.24,40.24,0,0,0-7.55,2.17,5.58,5.58,0,0,0-2.93,2.29c-.93,1.85.64,3.76,1.21,5.27a4,4,0,0,1,.06,3.25c-.47,1.11,1.16,2.07,1.64,1Z"/><ellipse class="cls-24" cx="1017.57" cy="353.69" rx="8.58" ry="12.33" transform="translate(-2.19 6.37) rotate(-0.36)"/><ellipse class="cls-25" cx="1017.16" cy="353.75" rx="5.77" ry="8.29" transform="translate(-2.19 6.36) rotate(-0.36)"/><path class="cls-26" d="M1019.58,358.26c-3.85,4.81-13,2.54-17.78.19-6.7-3.31-9.67-9.27-11.14-12.22-1.68-3.37-3.93-7.89-2.71-13.22.73-3.16,3.08-8.36,7.2-8.92,2.47-.33,4.52,1.16,6.08,2.3,1.22.88,5.74,4.17,5.63,9.51-.07,3.2-3,3.69-3.05,7a7,7,0,0,0,2.45,5.46c4.14,3.12,10.46-2.83,13.65-.19C1022.15,350,1021.93,355.34,1019.58,358.26Z"/><ellipse class="cls-27" cx="999.94" cy="334.49" rx="2.2" ry="2.93" transform="translate(-39.71 158.75) rotate(-8.9)"/><ellipse class="cls-27" cx="993.61" cy="335.48" rx="2.2" ry="2.93" transform="translate(-39.94 157.79) rotate(-8.9)"/><ellipse class="cls-27" cx="1000.09" cy="334.86" rx="0.76" ry="1.37" transform="translate(-39.77 158.78) rotate(-8.9)"/><ellipse cx="1000.03" cy="334.47" rx="0.76" ry="1.76" transform="translate(-39.71 158.77) rotate(-8.9)"/><ellipse cx="993.61" cy="335.48" rx="0.76" ry="1.76" transform="translate(-39.94 157.79) rotate(-8.9)"/><ellipse class="cls-20" cx="1173.32" cy="197.2" rx="30.12" ry="34.51" transform="translate(938.25 1363.52) rotate(-88.15)"/><ellipse class="cls-21" cx="1157.54" cy="181.29" rx="8.97" ry="7.37" transform="translate(664.9 1244.33) rotate(-74.04)"/><ellipse class="cls-22" cx="1158.46" cy="180.23" rx="3.57" ry="2.93" transform="translate(209.64 868.89) rotate(-44.82)"/><path class="cls-23" d="M1196.06,158.82a11.36,11.36,0,0,0-1.89-.3,17,17,0,0,0-1.74-.05,17.3,17.3,0,0,0-3.2.38,18.85,18.85,0,0,0-5.58,2.17,18.66,18.66,0,0,0-4.64,3.78,16.74,16.74,0,0,0-1.9,2.6,15.94,15.94,0,0,0-.81,1.54,11.7,11.7,0,0,0-.67,1.79,10.46,10.46,0,0,0,1.89.31,14.68,14.68,0,0,0,1.74.05,17.31,17.31,0,0,0,3.21-.38,19.27,19.27,0,0,0,10.2-6,17.8,17.8,0,0,0,1.91-2.6,15.94,15.94,0,0,0,.81-1.54A11.32,11.32,0,0,0,1196.06,158.82Z"/><path class="cls-23" d="M1156.8,157.23a12.53,12.53,0,0,0,.52,1.84c.21.56.44,1.09.69,1.6a18.12,18.12,0,0,0,1.7,2.74,19.22,19.22,0,0,0,4.32,4.14,18.82,18.82,0,0,0,5.39,2.6,17.17,17.17,0,0,0,3.16.63,14.1,14.1,0,0,0,1.74.08,10.8,10.8,0,0,0,1.91-.15,11.4,11.4,0,0,0-.53-1.84,13.74,13.74,0,0,0-.68-1.6,16.49,16.49,0,0,0-1.7-2.74,18.59,18.59,0,0,0-4.33-4.13,18.82,18.82,0,0,0-5.39-2.6,17.17,17.17,0,0,0-3.16-.63,16.33,16.33,0,0,0-1.74-.09A13,13,0,0,0,1156.8,157.23Z"/><path class="cls-17" d="M1175.92,170.12c-1-2.29-.41-4.3.66-6.43.19-.37.4-.81.48-1a1.65,1.65,0,0,0,.18-.89c0-.17,0,.16,0-.07a1,1,0,0,0-.08-.24c0,.09-.15-.22-.17-.24a4,4,0,0,0-1.3-.91,31.8,31.8,0,0,0-7.83-2.32c-1.19-.25-.68-2.08.5-1.82a39.48,39.48,0,0,1,7.55,2.16,5.64,5.64,0,0,1,2.94,2.29c.93,1.85-.65,3.77-1.22,5.28a4,4,0,0,0-.06,3.25c.47,1.1-1.15,2.07-1.64,1Z"/><ellipse class="cls-24" cx="1193.24" cy="196.47" rx="12.33" ry="8.58" transform="translate(989.32 1388.46) rotate(-89.64)"/><ellipse class="cls-25" cx="1193.65" cy="196.54" rx="8.29" ry="5.77" transform="translate(989.66 1388.94) rotate(-89.64)"/><path class="cls-26" d="M1191.23,201.05c3.86,4.8,13,2.53,17.78.18,6.7-3.31,9.67-9.27,11.14-12.22,1.68-3.37,3.93-7.88,2.71-13.21-.73-3.16-3.08-8.37-7.19-8.93-2.48-.33-4.53,1.16-6.09,2.3-1.22.89-5.74,4.18-5.63,9.51.07,3.21,3,3.69,3,7a7,7,0,0,1-2.45,5.47c-4.14,3.11-10.46-2.83-13.65-.19C1188.66,192.78,1188.88,198.12,1191.23,201.05Z"/><ellipse class="cls-27" cx="1210.87" cy="177.27" rx="2.93" ry="2.2" transform="translate(848.38 1346.13) rotate(-81.1)"/><ellipse class="cls-27" cx="1217.2" cy="178.26" rx="2.93" ry="2.2" transform="translate(852.74 1353.22) rotate(-81.1)"/><ellipse class="cls-27" cx="1210.72" cy="177.64" rx="1.37" ry="0.76" transform="translate(847.88 1346.29) rotate(-81.1)"/><ellipse cx="1210.78" cy="177.26" rx="1.76" ry="0.76" transform="translate(848.31 1346.02) rotate(-81.1)"/><ellipse cx="1217.2" cy="178.26" rx="1.76" ry="0.76" transform="translate(852.74 1353.22) rotate(-81.1)"/><ellipse class="cls-20" cx="1631.69" cy="327.45" rx="34.51" ry="30.12" transform="translate(-9.74 52.97) rotate(-1.85)"/><ellipse class="cls-21" cx="1647.46" cy="311.54" rx="7.37" ry="8.97" transform="translate(-22.15 465.1) rotate(-15.96)"/><ellipse class="cls-22" cx="1646.54" cy="310.48" rx="2.93" ry="3.57" transform="translate(265.77 1259.67) rotate(-45.18)"/><path class="cls-23" d="M1608.94,289.07a11.29,11.29,0,0,1,1.89-.29,17.25,17.25,0,0,1,1.74-.06,19,19,0,0,1,13.42,6.33,16.57,16.57,0,0,1,1.9,2.6,15,15,0,0,1,.81,1.55,11,11,0,0,1,.67,1.79,11.36,11.36,0,0,1-1.89.3,16.28,16.28,0,0,1-4.94-.32,19.17,19.17,0,0,1-10.21-6,17.8,17.8,0,0,1-1.91-2.6,17.07,17.07,0,0,1-.81-1.54A12.4,12.4,0,0,1,1608.94,289.07Z"/><path class="cls-23" d="M1648.21,287.49a11.27,11.27,0,0,1-.53,1.83,16.74,16.74,0,0,1-.69,1.6,17.35,17.35,0,0,1-1.7,2.74,19.19,19.19,0,0,1-9.71,6.75,18,18,0,0,1-3.16.63c-.56,0-1.14.08-1.74.08a12,12,0,0,1-1.91-.16,11.4,11.4,0,0,1,.53-1.84,16.72,16.72,0,0,1,.68-1.6,17.18,17.18,0,0,1,1.7-2.74,18.59,18.59,0,0,1,4.33-4.13,18.82,18.82,0,0,1,5.39-2.6,17.51,17.51,0,0,1,3.16-.63,14.1,14.1,0,0,1,1.74-.08A10.73,10.73,0,0,1,1648.21,287.49Z"/><path class="cls-17" d="M1629.08,300.37c1-2.29.41-4.3-.66-6.42-.19-.38-.4-.81-.47-1a1.81,1.81,0,0,1-.19-.89c0-.18,0,.15,0-.07a1.21,1.21,0,0,1,.08-.25c0,.09.15-.21.18-.24a4.22,4.22,0,0,1,1.3-.91,31.59,31.59,0,0,1,7.82-2.32c1.19-.25.69-2.07-.5-1.82a39.48,39.48,0,0,0-7.55,2.16,5.59,5.59,0,0,0-2.93,2.3c-.93,1.85.64,3.76,1.22,5.27a4.08,4.08,0,0,1,.06,3.25c-.48,1.11,1.15,2.07,1.63.95Z"/><ellipse class="cls-24" cx="1611.76" cy="326.73" rx="8.58" ry="12.33" transform="translate(-2.01 10.08) rotate(-0.36)"/><ellipse class="cls-25" cx="1611.35" cy="326.79" rx="5.77" ry="8.29" transform="translate(-2.01 10.08) rotate(-0.36)"/><path class="cls-26" d="M1613.78,331.3c-3.86,4.8-13,2.53-17.79.19-6.7-3.31-9.67-9.28-11.14-12.22-1.68-3.38-3.93-7.89-2.7-13.22.72-3.16,3.07-8.36,7.19-8.92,2.47-.34,4.52,1.15,6.08,2.29,1.22.89,5.74,4.18,5.63,9.51-.07,3.21-3,3.7-3,7a7.08,7.08,0,0,0,2.45,5.46c4.14,3.11,10.46-2.83,13.65-.19C1616.34,323,1616.13,328.37,1613.78,331.3Z"/><ellipse class="cls-27" cx="1594.13" cy="307.52" rx="2.2" ry="2.93" transform="translate(-28.38 250.37) rotate(-8.9)"/><ellipse class="cls-27" cx="1587.8" cy="308.51" rx="2.2" ry="2.93" transform="translate(-28.61 249.4) rotate(-8.9)"/><ellipse class="cls-27" cx="1594.28" cy="307.89" rx="0.76" ry="1.37" transform="translate(-28.44 250.4) rotate(-8.9)"/><ellipse cx="1594.22" cy="307.51" rx="0.76" ry="1.76" transform="translate(-28.38 250.38) rotate(-8.9)"/><ellipse cx="1587.8" cy="308.51" rx="0.76" ry="1.76" transform="translate(-28.61 249.4) rotate(-8.9)"/><path class="cls-20" d="M1463.1,1016.79h0a17.9,17.9,0,0,0-25.17,25.46h0l.22.22,25.26,25,.22.22,25-25.69h0a17.91,17.91,0,0,0-25.47-25.19Z"/><path class="cls-20" d="M1532.89,1016.79h0a17.9,17.9,0,0,0-25.17,25.46h0l.22.22,25.25,25,.22.22,25-25.69h0a17.91,17.91,0,0,0-25.47-25.19Z"/><path class="cls-20" d="M1605.89,1016.79h0a17.9,17.9,0,0,0-25.17,25.46h0l.22.22,25.25,25,.22.22,25-25.69h0a17.91,17.91,0,0,0-25.47-25.19Z"/><rect x="1657.56" y="999.12" width="166.3" height="76.97" rx="12" ry="12"/><rect class="cls-28" x="1653.25" y="994.99" width="166.3" height="76.97" rx="12" ry="12"/><path d="M1706,1031c0,10.16-3.77,15.77-10.39,15.77-5.85,0-9.8-5.47-9.89-15.36s4.32-15.55,10.39-15.55C1702.45,1015.85,1706,1021.46,1706,1031Zm-16.24.46c0,7.77,2.4,12.19,6.08,12.19,4.14,0,6.12-4.83,6.12-12.47,0-7.36-1.89-12.19-6.08-12.19C1692.37,1019,1689.79,1023.3,1689.79,1031.45Z"/><path d="M1718.54,1020.13h-.09l-5.2,2.8-.78-3.08,6.53-3.49h3.46v29.9h-3.92Z"/><path d="M1733.68,1027.67a2.74,2.74,0,1,1,5.47,0,2.74,2.74,0,1,1-5.47,0Zm0,16.24a2.74,2.74,0,1,1,5.47,0,2.74,2.74,0,1,1-5.47,0Z"/><path d="M1762.75,1031c0,10.16-3.77,15.77-10.4,15.77-5.84,0-9.8-5.47-9.89-15.36s4.33-15.55,10.4-15.55C1759.16,1015.85,1762.75,1021.46,1762.75,1031Zm-16.24.46c0,7.77,2.39,12.19,6.07,12.19,4.14,0,6.12-4.83,6.12-12.47,0-7.36-1.88-12.19-6.07-12.19C1749.09,1019,1746.51,1023.3,1746.51,1031.45Z"/><path d="M1786.35,1031c0,10.16-3.77,15.77-10.4,15.77-5.84,0-9.8-5.47-9.89-15.36s4.32-15.55,10.4-15.55C1782.76,1015.85,1786.35,1021.46,1786.35,1031Zm-16.24.46c0,7.77,2.39,12.19,6.07,12.19,4.14,0,6.12-4.83,6.12-12.47,0-7.36-1.89-12.19-6.07-12.19C1772.69,1019,1770.11,1023.3,1770.11,1031.45Z"/><path class="cls-29" d="M164.86,778.55c0-.71.07-1.42.07-2.14,0-21.91-18.58-40.52-44.44-47.3v-42a5.36,5.36,0,0,0-5.36-5.36H83a5.37,5.37,0,0,0-5.37,5.36V729c-26,6.71-44.75,25.38-44.75,47.38,0,1.1.07,2.18.16,3.26a12.59,12.59,0,0,0-.16,1.85v243.09c0,8.69,9.39,15.8,20.85,15.8h90.66c11.47,0,20.85-7.11,20.85-15.8V781.52A12.21,12.21,0,0,0,164.86,778.55Z"/><path class="cls-30" d="M46.85,833.37H150a2.73,2.73,0,0,1,2.73,2.73V1017.7a12,12,0,0,1-12,12H56.12a12,12,0,0,1-12-12V836.11A2.73,2.73,0,0,1,46.85,833.37Z"/><path d="M724.49,924v2.67l-13,27.23h-4.19l13-26.45v-.09H705.62V924Z"/><circle class="cls-31" cx="222.33" cy="207.29" r="115.75"/><circle class="cls-32" cx="222.33" cy="207.29" r="159.51"/><ellipse class="cls-33" cx="222.33" cy="207.29" rx="134.36" ry="139.18"/><path class="cls-28" d="M1904.84,1041.53l0-11.35-12.64-2.33a.77.77,0,0,1-.07-.16l7.34-10.56-8-8-10.63,7.32-.11,0-2.29-12.7-11.35,0-2.34,12.72-.08,0-10.63-7.38-8,8,7.33,10.66,0,.07-12.73,2.3,0,11.35,12.69,2.34,0,.1-7.36,10.61,8,8,10.6-7.29.15.06,2.28,12.66,11.35,0,2.33-12.62.18-.07,10.54,7.31,8-8-7.28-10.57c0-.06,0-.12.08-.19Zm-32.12,3.83a9.57,9.57,0,1,1,9.56-9.57A9.57,9.57,0,0,1,1872.72,1045.36Z"/></svg>