<svg id="Layer_1" data-name="Layer 1" xmlns="http://www.w3.org/2000/svg" width="1920" height="1080" viewBox="0 0 1920 1080"><defs><style>.cls-1{fill:#00a8f5;}.cls-2{fill:#00c2ff;}.cls-3{fill:#00d0ff;}.cls-4{fill:#00e3ff;}.cls-5{fill:#006837;}.cls-6{fill:#187c4a;}.cls-7{fill:#2ba568;}.cls-8{fill:#e2a683;}.cls-10,.cls-9{fill:none;stroke-miterlimit:10;}.cls-9{stroke:#4c3202;stroke-width:0.75px;}.cls-10{stroke:#000c55;stroke-width:2px;}.cls-11,.cls-12,.cls-13{fill:#f6ff3e;}.cls-12{opacity:0.6;}.cls-13{opacity:0.8;}.cls-14{fill:#6b572f;}.cls-15{fill:#7f6840;}.cls-16{fill:#33b21c;}.cls-17{fill:#fff;}.cls-18{fill:#d30d0d;}.cls-19{fill:#e54545;}.cls-20{fill:#ef9595;}.cls-21{fill:#56cc2f;}.cls-22{fill:#56291d;}.cls-23{fill:#a8a7a7;}</style></defs><title>Artboard 8</title><rect class="cls-1" y="-1" width="1920" height="189.83"/><rect class="cls-2" y="188.83" width="1920" height="189.83"/><rect class="cls-3" y="378.66" width="1920" height="189.83"/><rect class="cls-4" y="568.48" width="1920" height="189.83"/><rect class="cls-5" y="758.31" width="1920" height="122.69"/><rect class="cls-6" y="879" width="1920" height="102"/><rect class="cls-7" y="979" width="1920" height="102"/><path class="cls-8" d="M863.61,385.86a18.71,18.71,0,1,1,0,37.41"/><line class="cls-9" x1="844.31" y1="496.81" x2="844.31" y2="520.97"/><line class="cls-9" x1="861.72" y1="486.36" x2="861.72" y2="510.51"/><line class="cls-9" x1="850.1" y1="468.53" x2="850.1" y2="492.69"/><line class="cls-9" x1="835.84" y1="474.28" x2="835.84" y2="498.44"/><line class="cls-10" x1="839.08" y1="397" x2="863.61" y2="385.86"/><circle class="cls-11" cx="267.87" cy="250.37" r="115.75"/><circle class="cls-12" cx="267.87" cy="250.37" r="159.51"/><ellipse class="cls-13" cx="267.87" cy="250.37" rx="134.36" ry="139.18"/><rect class="cls-14" x="1168.06" y="659.51" width="170.52" height="530.82" rx="12" ry="12"/><path class="cls-15" d="M1238.25,1191.76h-71.34c-6.6,0-12-5.4,1.15-12V672.94c-13.15-6.6-7.75-12-1.15-12h71.34c6.6,0,12,5.4,25.16,12v506.82C1250.25,1186.36,1244.85,1191.76,1238.25,1191.76Z"/><path class="cls-16" d="M1770.18,550.37c-1.31-80.59-48.44-151-119.42-192.88,32.67-26.76,52.84-64.95,52.16-107-1.29-79.14-75.83-142.09-166.49-140.61a184,184,0,0,0-67.2,13.74c-47-54.2-122.07-88.68-206.09-87.31A286.9,286.9,0,0,0,1182.8,49V764a323.89,323.89,0,0,0,120.33-42.35c50.35,44.8,120.93,72.09,198.66,70.82C1652.16,790,1772.32,681.64,1770.18,550.37Z"/><path class="cls-16" d="M1182.54,49c-63.83,19.8-115.88,61.18-144.78,113.92-27.86-19.27-63.27-30.53-101.66-29.9C848,134.45,777.5,198,778.76,275a123,123,0,0,0,7.33,39.82c-2.23,0-4.44-.08-6.69,0-133.19,2.17-239.63,98.19-237.73,214.47S653.08,738,786.28,735.8C838.71,735,887,719.51,926.12,694.05c54.83,46.62,130.19,74.8,212.94,73.45a342.6,342.6,0,0,0,43.48-3.48Z"/><path class="cls-16" d="M1451.62,789.33a314.49,314.49,0,0,0,89.53,0Z"/><path class="cls-17" d="M1117.84,182q-8-.56-15.89-1c9.17-20,17.75-43.64,26-70.12a364,364,0,0,1,51.47-17v19.87q-15.93,3.07-31.61,7.27,1.35,5.63,2.72,11.39,13.8-2.88,27.78-5.08v19.58q-11.89,1.2-23.71,2.72c1,4.34,2,8.73,3,13.17q10.89-.81,21.81-1.45v19.76q-16.63.06-33.27.16-1.73-8.07-3.43-15.87-9.94.81-19.86,1.76Q1120.41,174.8,1117.84,182Zm16.74-54q-3.24,12-6.55,23.27,5.68-1,11.37-1.89Q1137,138.39,1134.58,128Z"/><path class="cls-17" d="M1214.57,149.39c3.94-21.26,7.88-42.88,11.84-64.73q8.65-.16,17.34.1c-7.35,32.55-14.64,64.85-21.91,96.24l-14.91,0c-7.36-30.63-14.72-60.06-22-87.64q8.57-2.75,17.18-5.12C1206.28,108.13,1210.43,128.55,1214.57,149.39Z"/><path class="cls-17" d="M1239.89,180.07c7.67-32,15.39-64.55,23.17-97,5-.06,10,0,15,.12,7.72,32.5,15.37,65,23,96.86l-16.12,1.66q-2.16-10.53-4.33-21.09-10.09-.08-20.18,0-2.17,10.56-4.34,21.11Zm30.64-68.6q-2.88,13.92-5.75,27.87,5.74,0,11.49,0Q1273.4,125.43,1270.53,111.47Z"/><path class="cls-17" d="M1340.78,182c-5.75-12.33-11.47-25.12-17.21-38.22q-.06,18.6-.11,37.21l-16,0q.13-47.87.26-95.72,13.47,1.49,26.83,4c11.78,2.3,20.49,13.73,20.49,29.45s-8.41,20.13-15.09,22.35c6.42,13.61,12.85,26.74,19.32,39.18Q1350.06,181.09,1340.78,182ZM1331,126.69c4.5.46,8.6-1.7,8.62-8.54s-4-10.15-8.49-10.79c-2.51-.35-5-.69-7.56-1l-.06,19.59C1326,126.18,1328.53,126.43,1331,126.69Z"/><path class="cls-17" d="M1364.38,118.74c0-17.63,10.43-21.63,22.53-17.2s21.68,15.55,24.37,29.26q-7.48-.27-15.09,0c-.87-6.32-4.26-10.85-9-12.2-4.54-1.26-6.81.19-6.79,3.71,0,4.26,3.51,6.54,10.55,11.26,12.48,8.39,21.19,14.43,21.59,28.37.45,14.78-10.94,20.48-23.38,20.65-12.9.13-24-8.06-26.21-24.91q7.89-2.62,15.73-4.81c.68,7.83,4.71,11.93,10.55,12.34,4.72.34,7.17-1.15,7.12-4.62-.07-4.27-3.59-6.38-10-10.15C1373.5,142.94,1364.4,136.06,1364.38,118.74Z"/><path class="cls-17" d="M1431.22,137.4c.34,6.25-4.09,6.72-12,5q-.49-2.9-1-5.82c4.2,2.13,9.2,3.74,9,.48-.09-1.89-1.49-3.05-3.57-4.12-4-2.07-6.86-5.67-7-10.29-.15-4.81,2.63-6.62,6.54-4.74s7.24,6,7.48,10.55Q1431,132.93,1431.22,137.4Z"/><path class="cls-17" d="M1125.73,268.23q-7.79-3-15.49-6.29c8.85-17.11,17.84-37.23,26.8-59.68h52.13q-.24,9.11-.5,18.22-15.89-.6-31.73-1.48,1.2,5.73,2.42,11.56,13.91,1.24,27.86,2.15-.26,9-.5,18-11.91-1.22-23.75-2.83c.88,4.33,1.77,8.68,2.66,13.08q10.89,1.81,21.85,3.21-.26,9.06-.5,18.12-16.73-2.72-33.25-6.75l-3-15.94q-9.93-1.94-19.77-4.26Q1128.34,261.94,1125.73,268.23Zm17.7-47q-3.54,10.39-7.08,20.24,5.7.94,11.42,1.81Q1145.59,232.1,1143.43,221.27Z"/><path class="cls-17" d="M1222.1,202.26c11.68,0,20,8,19.92,23.32-.07,10.87-6.36,15.74-10.73,18.07,4.39,2.61,11.27,7.86,11.21,19.75-.08,16.19-8.89,24.14-21.47,23.07q-12.6-1.07-25.14-2.84,1-40.69,2-81.37ZM1213,218.82q-.13,8.12-.29,16.22c1.79.08,3.57.15,5.36.21,4.64.18,8.58-1.5,8.66-8s-3.87-8.24-8.4-8.33Zm-.59,32.56q-.15,8.72-.31,17.44c1.86.16,3.72.3,5.58.44,5,.37,9.11-1.75,9.19-8.26s-3.92-9-9-9.3Z"/><path class="cls-17" d="M1266.81,202.26q.11,32.34.23,64.67,14-.21,28-1.13l.3,20.63a439.83,439.83,0,0,1-44.45,1.53l.24-85.7Z"/><path class="cls-17" d="M1300.84,202.26h43.29q.3,8.79.59,17.58-13.92.66-27.87,1.12.14,6.21.29,12.43,13.45-.72,26.86-1.77.29,8.65.58,17.33-13.47,1.67-27,2.81.17,6.71.32,13.41,14.16-1.53,28.23-3.76.29,8.79.59,17.58a440.09,440.09,0,0,1-44.41,6.79Q1301.58,244,1300.84,202.26Z"/><path class="cls-17" d="M1387.67,269.2c-6.07-7.24-12.16-15.32-18.25-24.08q.57,14.13,1.16,28.26-7.89,2.08-15.84,3.88-1.35-37.5-2.72-75h26.31c11.61.16,20.61,6.64,21.14,17.65s-7.55,16.33-14,19.52a235.13,235.13,0,0,0,20.23,22.43Q1396.73,265.67,1387.67,269.2Zm-11.52-38.47c4.43-.54,8.38-3,8.15-8s-4.26-6.71-8.69-6.47l-7.44.42q.32,7.44.61,14.88C1371.24,231.29,1373.7,231,1376.15,230.73Z"/><ellipse class="cls-18" cx="1264.82" cy="533.5" rx="128.52" ry="112.19" transform="translate(-16.6 41.21) rotate(-1.85)"/><ellipse class="cls-19" cx="1323.56" cy="474.23" rx="27.44" ry="33.42" transform="translate(54.27 1078.89) rotate(-45.18)"/><ellipse class="cls-20" cx="1320.14" cy="470.29" rx="10.92" ry="13.3" transform="translate(56.06 1075.3) rotate(-45.18)"/><path class="cls-21" d="M1180.13,390.56l1.26-.8,1.2-.69,2.38-1.35c1.53-.79,3-1.56,4.46-2.18a75.25,75.25,0,0,1,8.23-3.18,58.45,58.45,0,0,1,14.35-2.77,39.48,39.48,0,0,1,22.56,5,39,39,0,0,1,15.53,17.08,58.1,58.1,0,0,1,4.65,13.87c.24,1.4.53,2.72.74,4.19s.42,2.92.52,4.56.23,3.25.29,5v4.13l-.08,1.51-1.28.81-1.19.69-2.39,1.36c-1.53.81-3,1.57-4.47,2.2s-2.83,1.21-4.23,1.79-2.68.94-4,1.42a58.19,58.19,0,0,1-14.36,2.78,39.06,39.06,0,0,1-22.51-5.11,39.56,39.56,0,0,1-15.48-17.16,58.61,58.61,0,0,1-4.66-13.86,79.7,79.7,0,0,1-1.28-8.73c-.16-1.55-.23-3.23-.29-4.95v-4.12Z"/><path class="cls-21" d="M1326.35,384.65l.19,1.49.12,1.37.22,2.73c.07,1.72.13,3.41.09,5a76.51,76.51,0,0,1-.59,8.8,58.17,58.17,0,0,1-3.57,14.18,39.34,39.34,0,0,1-14.09,18.31,38.94,38.94,0,0,1-22,6.86,57.71,57.71,0,0,1-14.53-1.64c-1.38-.38-2.7-.67-4.12-1.11s-2.82-.85-4.35-1.45-3-1.16-4.63-1.84l-2.49-1.18-1.25-.59-1.33-.71-.2-1.5-.12-1.37-.22-2.75c-.08-1.72-.14-3.41-.11-5s.1-3.07.17-4.58.27-2.83.41-4.24a57.93,57.93,0,0,1,3.55-14.19A39,39,0,0,1,1271.61,383a39.43,39.43,0,0,1,22.09-6.78,58.09,58.09,0,0,1,14.53,1.63,77.94,77.94,0,0,1,8.45,2.53c1.47.51,3,1.16,4.62,1.83l2.48,1.16,1.24.59Z"/><path class="cls-22" d="M1258.9,432.76a25,25,0,0,0,.74-16.82,48.66,48.66,0,0,0-3-7.13c-.45-.95-.94-1.88-1.41-2.82-.22-.44-1.25-2.79-.79-1.55a19.63,19.63,0,0,1-.72-2.25s0-.42,0-.41c-.16.36.37.16-.16.43,1-.5,1.08-1.07,2-1.69,8.45-5.8,20.79-7.44,30.53-9.54,8.9-1.92,5.14-15.57-3.76-13.65-12.45,2.68-43.19,6.74-42.74,25.11.12,5,2.91,9.42,5,13.84,2,4.15,2.78,7.56.63,12.71-3.51,8.4,10.18,12.06,13.65,3.77Z"/><path class="cls-17" d="M1206.67,529c8.79,0,15.57,4.81,15.57,14.38s-6.72,14.32-15.69,14.32h-7.9v16.16h-11.77V529Zm-2,19.55c3.39,0,6.24-1.55,6.24-5.11s-2.8-5.23-6.18-5.23h-6.12v10.34Z"/><path class="cls-17" d="M1239.35,529v33.87h20.56v11h-32.32V529Z"/><path class="cls-17" d="M1262.59,573.45,1279.7,529h11l17,44.44-11.88.77-3.21-9.68h-14.85l-3.21,9.68ZM1285.17,542,1281,554.8h8.43Z"/><path class="cls-17" d="M1346.31,529.36l-14.8,26.15v18.36h-11.76V555.63l-15-26.27,12.77-.71,8.14,16.58,8-16.58Z"/><path class="cls-23" d="M1904.84,1033.68l0-11.34-12.64-2.33a1.11,1.11,0,0,1-.07-.16l7.34-10.56-8-8-10.63,7.32-.11,0-2.29-12.71-11.35,0-2.34,12.73-.08,0-10.63-7.38-8,8,7.33,10.65,0,.08-12.73,2.3,0,11.34,12.69,2.34a1.17,1.17,0,0,0,0,.11l-7.36,10.6,8,8,10.6-7.29.15.06,2.28,12.66,11.35,0,2.33-12.62.18-.07,10.54,7.31,8-8-7.28-10.56c0-.06,0-.13.08-.19Zm-32.12,3.83a9.56,9.56,0,1,1,9.56-9.56A9.56,9.56,0,0,1,1872.72,1037.51Z"/></svg>