<svg id="Layer_1" data-name="Layer 1" xmlns="http://www.w3.org/2000/svg" xmlns:xlink="http://www.w3.org/1999/xlink" width="1366" height="768" viewBox="0 0 1366 768"><defs><style>.cls-1,.cls-13,.cls-14,.cls-7{fill:none;}.cls-2{fill:#a8360e;}.cls-3{fill:#553000;}.cls-3,.cls-4{opacity:0.76;}.cls-4,.cls-5{fill:#352600;}.cls-5{stroke:#7c5508;}.cls-13,.cls-14,.cls-5,.cls-7{stroke-miterlimit:10;}.cls-6{fill:#f9d4ac;}.cls-7{stroke:#fff;stroke-linecap:round;stroke-width:5px;}.cls-8{fill:url(#New_Pattern_Swatch_3);}.cls-9{fill:#e2b983;}.cls-10{fill:#744800;}.cls-11{fill:#fff;}.cls-12{fill:#e2a683;}.cls-13{stroke:#000c55;stroke-width:2px;}.cls-14{stroke:#4c3202;stroke-width:0.75px;}.cls-15{fill:#000c55;}</style><pattern id="New_Pattern_Swatch_3" data-name="New Pattern Swatch 3" width="279.97" height="270.04" patternUnits="userSpaceOnUse" viewBox="0 0 279.97 270.04"><rect class="cls-1" width="279.97" height="270.04"/><rect class="cls-2" width="279.97" height="270.04"/><rect class="cls-3" x="263.23" width="15.87" height="270.04"/><rect class="cls-3" x="224.73" width="15.87" height="270.04"/><rect class="cls-3" x="186.23" width="15.87" height="270.04"/><rect class="cls-3" x="147.73" width="15.87" height="270.04"/><rect class="cls-3" x="109.23" width="15.87" height="270.04"/><rect class="cls-3" x="70.73" width="15.87" height="270.04"/><rect class="cls-3" x="32.23" width="15.87" height="270.04"/><polygon class="cls-4" points="279.97 252.99 279.97 245.44 0 245.44 0 252.99 279.97 252.99"/><polygon class="cls-4" points="279.97 228.44 279.97 220.9 0 220.9 0 228.44 279.97 228.44"/><polygon class="cls-4" points="279.97 203.9 279.97 196.35 0 196.35 0 203.9 279.97 203.9"/><polygon class="cls-4" points="279.97 179.35 279.97 171.81 0 171.81 0 179.35 279.97 179.35"/><polygon class="cls-4" points="279.97 154.81 279.97 147.26 0 147.26 0 154.81 279.97 154.81"/><polygon class="cls-4" points="279.97 130.26 279.97 122.72 0 122.72 0 130.26 279.97 130.26"/><polygon class="cls-4" points="279.97 105.72 279.97 98.18 0 98.18 0 105.72 279.97 105.72"/><polygon class="cls-4" points="279.97 81.18 279.97 73.63 0 73.63 0 81.18 279.97 81.18"/><polygon class="cls-4" points="279.97 56.63 279.97 49.09 0 49.09 0 56.63 279.97 56.63"/><polygon class="cls-4" points="279.97 32.09 279.97 24.54 0 24.54 0 32.09 279.97 32.09"/><polygon class="cls-4" points="279.97 7.54 279.97 0 0 0 0 7.54 279.97 7.54"/><line class="cls-5" x1="258.26" x2="258.26" y2="270.04"/><line class="cls-5" x1="219.82" x2="219.82" y2="270.04"/><line class="cls-5" x1="181.24" x2="181.24" y2="270.04"/><line class="cls-5" x1="142.42" x2="142.42" y2="270.04"/><line class="cls-5" x1="142.78" x2="142.78" y2="270.04"/><line class="cls-5" x1="104.24" x2="104.24" y2="270.04"/><line class="cls-5" x1="65.74" x2="65.74" y2="270.04"/><line class="cls-5" x1="27.22" x2="27.22" y2="270.04"/></pattern></defs><title>Artboard 1</title><path class="cls-6" d="M234.81,378.55h0a2.56,2.56,0,0,1-1.1-3.18l5-12.78a2.06,2.06,0,0,1,2.83-1.23h0a2.54,2.54,0,0,1,1.09,3.18l-5,12.78A2,2,0,0,1,234.81,378.55Z"/><rect class="cls-6" x="238.19" y="335.1" width="20.81" height="41.76" rx="7.05" ry="7.05"/><rect class="cls-6" x="255.57" y="368.69" width="3.14" height="16.26" rx="1.14" ry="1.14" transform="translate(514.28 753.64) rotate(-180)"/><rect class="cls-6" x="250.78" y="372.64" width="3.14" height="17.3" rx="1.14" ry="1.14" transform="translate(504.69 762.57) rotate(-180)"/><rect class="cls-6" x="245.16" y="373.05" width="3.43" height="22.14" rx="1.24" ry="1.24" transform="translate(493.75 768.25) rotate(180)"/><rect class="cls-6" x="239.85" y="371.66" width="2.85" height="20.41" rx="1.04" ry="1.04" transform="translate(482.55 763.74) rotate(180)"/><path class="cls-6" d="M125.13,378.55h0a2.56,2.56,0,0,0,1.1-3.18l-5-12.78a2.06,2.06,0,0,0-2.83-1.23h0a2.54,2.54,0,0,0-1.09,3.18l5,12.78A2,2,0,0,0,125.13,378.55Z"/><rect class="cls-6" x="100.94" y="335.1" width="20.81" height="41.76" rx="7.05" ry="7.05"/><line class="cls-7" x1="127.62" y1="231.96" x2="127.62" y2="360.31"/><line class="cls-7" x1="232.67" y1="231.96" x2="232.67" y2="360.31"/><rect class="cls-6" x="101.23" y="368.69" width="3.14" height="16.26" rx="1.14" ry="1.14"/><rect class="cls-6" x="106.02" y="372.64" width="3.14" height="17.3" rx="1.14" ry="1.14"/><rect class="cls-6" x="111.35" y="373.05" width="3.43" height="22.14" rx="1.24" ry="1.24"/><rect class="cls-6" x="117.24" y="371.66" width="2.85" height="20.41" rx="1.04" ry="1.04"/><path class="cls-6" d="M472.84,378.55h0a2.54,2.54,0,0,1-1.09-3.18l5-12.78a2.06,2.06,0,0,1,2.83-1.23h0a2.56,2.56,0,0,1,1.09,3.18l-5,12.78A2.06,2.06,0,0,1,472.84,378.55Z"/><rect class="cls-6" x="476.22" y="335.1" width="20.81" height="41.76" rx="7.05" ry="7.05"/><rect class="cls-6" x="493.6" y="368.69" width="3.14" height="16.26" rx="1.14" ry="1.14" transform="translate(990.35 753.64) rotate(-180)"/><rect class="cls-6" x="488.81" y="372.64" width="3.14" height="17.3" rx="1.14" ry="1.14" transform="translate(980.76 762.57) rotate(-180)"/><rect class="cls-6" x="483.2" y="373.05" width="3.43" height="22.14" rx="1.24" ry="1.24" transform="translate(969.82 768.25) rotate(180)"/><rect class="cls-6" x="477.88" y="371.66" width="2.85" height="20.41" rx="1.04" ry="1.04" transform="translate(958.62 763.74) rotate(180)"/><path class="cls-6" d="M363.17,378.55h0a2.54,2.54,0,0,0,1.09-3.18l-5-12.78a2.06,2.06,0,0,0-2.83-1.23h0a2.55,2.55,0,0,0-1.09,3.18l5,12.78A2.06,2.06,0,0,0,363.17,378.55Z"/><rect class="cls-6" x="338.98" y="335.1" width="20.81" height="41.76" rx="7.05" ry="7.05"/><path class="cls-8" d="M170,175.53h20a70.54,70.54,0,0,1,70.54,70.54V357.58a0,0,0,0,1,0,0H99.42a0,0,0,0,1,0,0V246.07A70.54,70.54,0,0,1,170,175.53Z"/><rect class="cls-9" x="129.81" y="65.43" width="100.32" height="144.96" rx="50.16" ry="50.16"/><path class="cls-10" d="M193,226.26H166.91a37.11,37.11,0,0,1-37.1-37.11V146.37s16.82,24.27,47.46,24.27c34,0,52.86-24.27,52.86-24.27v42.78A37.11,37.11,0,0,1,193,226.26Z"/><circle class="cls-11" cx="156.2" cy="123.13" r="9.57"/><path class="cls-12" d="M144.89,122.26a11.31,11.31,0,1,1,22.61,0"/><path class="cls-12" d="M129.81,111.82a11.31,11.31,0,0,0,0,22.62"/><path class="cls-12" d="M229.61,111a11.31,11.31,0,0,1,0,22.62"/><path d="M161.7,122.26a5.51,5.51,0,1,1-11,0"/><circle class="cls-11" cx="198.34" cy="123.13" r="9.57"/><path class="cls-12" d="M187,122.26a11.31,11.31,0,1,1,22.61,0"/><path d="M203.85,122.26a5.51,5.51,0,1,1-11,0"/><path class="cls-10" d="M148.39,181.87c0-13.29,12.93-24.07,28.88-24.07s28.88,10.78,28.88,24.07"/><rect class="cls-12" x="169.85" y="117.68" width="14.84" height="41.87" rx="7.42" ry="7.42"/><path class="cls-13" d="M169.78,124.07a7.18,7.18,0,0,1,7-7.31h.93a7.18,7.18,0,0,1,7,7.31"/><line class="cls-14" x1="137.51" y1="171.71" x2="137.51" y2="186.31"/><line class="cls-14" x1="152.13" y1="175.53" x2="152.13" y2="190.13"/><line class="cls-14" x1="144.89" y1="182.83" x2="144.89" y2="197.43"/><line class="cls-14" x1="159.26" y1="179.01" x2="159.26" y2="193.61"/><rect class="cls-15" x="123.34" y="77.84" width="111.92" height="24.94" rx="12" ry="12"/><path class="cls-15" d="M132.61,79.63a46.69,46.69,0,0,1,93.38,0"/><circle class="cls-13" cx="154.52" cy="121.87" r="15.33"/><circle class="cls-13" cx="200.03" cy="121.87" r="15.33"/><line class="cls-13" x1="139.78" y1="117.68" x2="129.81" y2="111.82"/><line class="cls-13" x1="214.77" y1="117.68" x2="229.61" y2="110.95"/><line class="cls-7" x1="127.49" y1="231.96" x2="127.49" y2="360.31"/><line class="cls-7" x1="232.54" y1="231.96" x2="232.54" y2="360.31"/><path class="cls-11" d="M190.85,173c0,6.11-5.94,11.07-13.28,11.07s-13.28-5-13.28-11.07"/><path class="cls-8" d="M408.12,175.53h20a70.54,70.54,0,0,1,70.54,70.54V357.58a0,0,0,0,1,0,0H337.58a0,0,0,0,1,0,0V246.07A70.54,70.54,0,0,1,408.12,175.53Z"/><rect class="cls-9" x="367.98" y="65.43" width="100.32" height="144.96" rx="50.16" ry="50.16"/><path class="cls-10" d="M431.19,226.26H405.08A37.11,37.11,0,0,1,368,189.15V146.37s16.81,24.27,47.46,24.27c34,0,52.85-24.27,52.85-24.27v42.78A37.11,37.11,0,0,1,431.19,226.26Z"/><circle class="cls-11" cx="394.36" cy="123.13" r="9.57"/><path class="cls-12" d="M383.05,122.26a11.31,11.31,0,1,1,22.62,0"/><path class="cls-12" d="M368,111.82a11.31,11.31,0,0,0,0,22.62"/><path class="cls-12" d="M467.77,111a11.31,11.31,0,1,1,0,22.62"/><path d="M399.87,122.26a5.51,5.51,0,0,1-11,0"/><circle class="cls-11" cx="436.51" cy="123.13" r="9.57"/><path class="cls-12" d="M425.2,122.26a11.31,11.31,0,1,1,22.62,0"/><path d="M442,122.26a5.51,5.51,0,0,1-11,0"/><path class="cls-10" d="M386.56,181.87c0-13.29,12.93-24.07,28.88-24.07s28.87,10.78,28.87,24.07"/><rect class="cls-12" x="408.02" y="117.68" width="14.84" height="41.87" rx="7.42" ry="7.42"/><path class="cls-13" d="M407.94,124.07a7.18,7.18,0,0,1,7-7.31h.93a7.18,7.18,0,0,1,7,7.31"/><line class="cls-14" x1="375.68" y1="171.71" x2="375.68" y2="186.31"/><line class="cls-14" x1="390.3" y1="175.53" x2="390.3" y2="190.13"/><line class="cls-14" x1="383.05" y1="182.83" x2="383.05" y2="197.43"/><line class="cls-14" x1="397.43" y1="179.01" x2="397.43" y2="193.61"/><rect class="cls-15" x="361.51" y="77.84" width="111.92" height="24.94" rx="12" ry="12"/><path class="cls-15" d="M370.78,79.63a46.69,46.69,0,1,1,93.37,0"/><circle class="cls-13" cx="392.69" cy="121.87" r="15.33"/><circle class="cls-13" cx="438.2" cy="121.87" r="15.33"/><line class="cls-13" x1="377.94" y1="117.68" x2="367.98" y2="111.82"/><line class="cls-13" x1="452.94" y1="117.68" x2="467.77" y2="110.95"/><line class="cls-7" x1="365.66" y1="231.96" x2="365.66" y2="360.31"/><line class="cls-7" x1="470.7" y1="231.96" x2="470.7" y2="360.31"/><rect class="cls-6" x="339.27" y="368.69" width="3.14" height="16.26" rx="1.14" ry="1.14"/><rect class="cls-6" x="344.06" y="372.64" width="3.14" height="17.3" rx="1.14" ry="1.14"/><rect class="cls-6" x="349.39" y="373.05" width="3.43" height="22.14" rx="1.24" ry="1.24"/><rect class="cls-6" x="355.27" y="371.66" width="2.85" height="20.41" rx="1.04" ry="1.04"/></svg>