<svg id="Layer_1" data-name="Layer 1" xmlns="http://www.w3.org/2000/svg" width="300" height="500" viewBox="0 0 300 500"><defs><style>.cls-1{fill:#7ebbb2;opacity:0.75;}.cls-2{fill:#e8d350;}</style></defs><title>Ciderflaske</title><path class="cls-1" d="M220.43,192.89c0-.71.07-1.42.07-2.13,0-21.91-18.58-40.52-44.44-47.3v-42a5.37,5.37,0,0,0-5.36-5.37H138.57a5.37,5.37,0,0,0-5.36,5.37v41.9c-26,6.71-44.75,25.38-44.75,47.38,0,1.1.06,2.18.15,3.26a12.57,12.57,0,0,0-.15,1.84V439c0,8.69,9.38,15.8,20.85,15.8H200c11.47,0,20.85-7.11,20.85-15.8V195.86A12.34,12.34,0,0,0,220.43,192.89Z"/><path class="cls-2" d="M102.42,247.72H205.54a2.73,2.73,0,0,1,2.73,2.73V432a12,12,0,0,1-12,12H111.69a12,12,0,0,1-12-12V250.46A2.73,2.73,0,0,1,102.42,247.72Z"/></svg>
