<svg id="Layer_1" data-name="Layer 1" xmlns="http://www.w3.org/2000/svg" width="1500" height="1080" viewBox="0 0 1500 1080"><defs><style>.cls-1{fill:#6b572f;}.cls-2{fill:#7f6840;}.cls-3{fill:#33971c;}.cls-4{fill:#33b21c;}</style></defs><title>forgrund</title><rect class="cls-1" x="846.82" y="433.44" width="118.38" height="501.19" rx="12" ry="12"/><rect class="cls-2" x="846.82" y="433.44" width="66.19" height="501.19" rx="12" ry="12"/><path class="cls-3" d="M1320.74,369c-.92-55.95-33.63-104.87-82.91-133.91,22.68-18.57,36.69-45.08,36.21-74.3-.9-54.94-52.64-98.65-115.58-97.62a127.54,127.54,0,0,0-46.65,9.54c-32.65-37.63-84.75-61.57-143.08-60.62A199.38,199.38,0,0,0,913,20.93v496.4a224.68,224.68,0,0,0,83.54-29.4c35,31.1,84,50.05,137.92,49.17C1238.81,535.39,1322.22,460.14,1320.74,369Z"/><path class="cls-4" d="M912.78,20.93C868.46,34.68,832.33,63.41,812.27,100c-19.34-13.37-43.93-21.19-70.58-20.76-61.2,1-110.11,45.12-109.23,98.55a85.14,85.14,0,0,0,5.09,27.64c-1.55,0-3.09,0-4.64,0-92.47,1.51-166.37,68.17-165,148.89s77.35,144.93,169.82,143.42c36.4-.59,69.89-11.31,97.08-29,38.06,32.36,90.38,51.93,147.83,51a239.18,239.18,0,0,0,30.19-2.42Z"/><path class="cls-4" d="M1099.58,534.9a217.68,217.68,0,0,0,62.15,0Z"/><rect class="cls-1" x="518.91" y="673.18" width="28.12" height="100.26" rx="12" ry="12"/><rect class="cls-2" x="518.91" y="673.18" width="15.72" height="100.26" rx="7.86" ry="7.86"/><rect class="cls-1" x="533.83" y="676.75" width="3.1" height="17.59" rx="1.55" ry="1.55" transform="translate(809.35 1511.11) rotate(-160.37)"/><rect class="cls-2" x="535.15" y="676.98" width="1.73" height="17.59" rx="0.87" ry="0.87" transform="translate(810.52 1511.77) rotate(-160.37)"/><path class="cls-3" d="M631.48,657.88c-.21-13.29-8-24.91-19.69-31.8a22.38,22.38,0,0,0,8.6-17.65c-.21-13-12.5-23.44-27.45-23.19a30.21,30.21,0,0,0-11.08,2.26c-7.76-8.93-20.13-14.62-34-14.39a47.39,47.39,0,0,0-13.25,2.09V693.11a53.42,53.42,0,0,0,19.85-7,48,48,0,0,0,32.76,11.68C612,697.4,631.84,679.53,631.48,657.88Z"/><path class="cls-4" d="M534.58,575.2c-10.53,3.27-19.11,10.09-23.87,18.79a28.67,28.67,0,0,0-16.77-4.93c-14.53.24-26.15,10.72-25.94,23.41a20,20,0,0,0,1.21,6.56H468.1c-22,.35-39.51,16.19-39.2,35.36s18.37,34.43,40.34,34.07a43.67,43.67,0,0,0,23.06-6.88,52.87,52.87,0,0,0,35.11,12.11,56.22,56.22,0,0,0,7.17-.58Z"/><path class="cls-4" d="M579,697.29a53.12,53.12,0,0,0,8.23.52,53.75,53.75,0,0,0,6.53-.52Z"/><rect class="cls-1" x="1282.22" y="744.76" width="38.17" height="136.1" rx="12" ry="12" transform="translate(2602.61 1625.62) rotate(-180)"/><rect class="cls-2" x="1299.05" y="744.76" width="21.34" height="136.1" rx="10.67" ry="10.67" transform="translate(2619.44 1625.62) rotate(-180)"/><path class="cls-3" d="M1167.59,724c.29-18,10.84-33.81,26.73-43.18-7.32-6-11.83-14.53-11.68-23.95.29-17.72,17-31.81,37.27-31.48a41.14,41.14,0,0,1,15,3.08c10.53-12.14,27.32-19.85,46.13-19.55a64.49,64.49,0,0,1,18,2.85v160a72.39,72.39,0,0,1-26.94-9.48c-11.27,10-27.07,16.14-44.47,15.86C1194,777.64,1167.11,753.37,1167.59,724Z"/><path class="cls-4" d="M1299.12,611.76c14.29,4.43,25.94,13.7,32.41,25.5a38.9,38.9,0,0,1,22.76-6.69c19.73.32,35.5,14.54,35.22,31.77a27.33,27.33,0,0,1-1.65,8.91h1.5c29.82.48,53.64,22,53.22,48s-24.94,46.73-54.76,46.25a59.25,59.25,0,0,1-31.3-9.35c-12.27,10.43-29.14,16.74-47.66,16.44a76,76,0,0,1-9.74-.78Z"/><path class="cls-4" d="M1238.89,777.48a70.77,70.77,0,0,1-11.17.71,71.55,71.55,0,0,1-8.87-.71Z"/></svg>
