<svg id="Layer_1" data-name="Layer 1" xmlns="http://www.w3.org/2000/svg" width="800" height="600" viewBox="0 0 800 600"><defs><style>.cls-1{fill:#cc3b15;}.cls-2{fill:#e53838;}</style></defs><title>gameover</title><rect class="cls-1" x="35.53" y="48.51" width="728.94" height="502.98" rx="12" ry="12"/><rect class="cls-2" x="200.58" y="287.87" width="408.3" height="192.39" rx="12" ry="12"/><path d="M295.48,391.19l6.33-.62a7.65,7.65,0,0,0,2.32,4.68,7,7,0,0,0,4.71,1.5,7.28,7.28,0,0,0,4.74-1.33,4,4,0,0,0,1.59-3.11,2.94,2.94,0,0,0-.67-1.95,5.39,5.39,0,0,0-2.34-1.39c-.76-.27-2.5-.73-5.21-1.41q-5.22-1.29-7.34-3.18a8.43,8.43,0,0,1-3-6.49,8.27,8.27,0,0,1,1.39-4.6,8.67,8.67,0,0,1,4-3.26,16.09,16.09,0,0,1,6.34-1.12c4.05,0,7.09.88,9.13,2.66a9.33,9.33,0,0,1,3.22,7.09l-6.5.29a5.53,5.53,0,0,0-1.79-3.57,6.54,6.54,0,0,0-4.12-1.09,7.41,7.41,0,0,0-4.44,1.17,2.32,2.32,0,0,0-1,2,2.47,2.47,0,0,0,1,2q1.23,1,6,2.15a31.73,31.73,0,0,1,7,2.32,9,9,0,0,1,3.56,3.28,10.17,10.17,0,0,1-.25,10.31,9.24,9.24,0,0,1-4.35,3.59,18.17,18.17,0,0,1-7,1.18c-4.08,0-7.2-.94-9.39-2.82S295.91,394.79,295.48,391.19Z"/><path d="M327.14,401.67V369.46h10.44a38.14,38.14,0,0,1,7.74.48,8.4,8.4,0,0,1,4.63,3.15,10,10,0,0,1,1.87,6.28,10.45,10.45,0,0,1-1.08,5,8.81,8.81,0,0,1-2.73,3.18,9.47,9.47,0,0,1-3.37,1.53,38,38,0,0,1-6.75.46h-4.24v12.15Zm6.51-26.76v9.14h3.56a16.66,16.66,0,0,0,5.14-.51,4.28,4.28,0,0,0,2-1.58,4.34,4.34,0,0,0,.74-2.51,4.22,4.22,0,0,0-1-2.9,4.5,4.5,0,0,0-2.62-1.42,30.73,30.73,0,0,0-4.68-.22Z"/><path d="M357,401.67V369.46h6.51v32.21Z"/><path d="M369.84,401.67V369.72h6.5v26.52h16.17v5.43Z"/><path d="M408.64,401.67V369.46h6.51v32.21Z"/><path d="M436.33,389.82V384.4h14v12.83a17.64,17.64,0,0,1-5.93,3.48,21.38,21.38,0,0,1-7.85,1.51,17.65,17.65,0,0,1-8.81-2.12,13.5,13.5,0,0,1-5.65-6.07,19.6,19.6,0,0,1-1.89-8.58,18.51,18.51,0,0,1,2.11-8.94,14.17,14.17,0,0,1,6.18-6,16.62,16.62,0,0,1,7.71-1.6q6,0,9.37,2.51a11.4,11.4,0,0,1,4.34,7l-6.46,1.21a6.86,6.86,0,0,0-2.56-3.75,7.71,7.71,0,0,0-4.69-1.37,8.83,8.83,0,0,0-6.78,2.7q-2.52,2.7-2.52,8,0,5.73,2.55,8.6a8.53,8.53,0,0,0,6.68,2.87,11.32,11.32,0,0,0,4.1-.8,14.45,14.45,0,0,0,3.53-1.95v-4.09Z"/><path d="M456.34,401.67V369.46h23.89v5.45H462.85v7.14H479v5.42H462.85v8.77h18v5.43Z"/><path d="M486.42,401.67V369.46h6.33L505.93,391V369.46H512v32.21h-6.53l-13-21v21Z"/><path d="M138.67,100.93h11.88a23.31,23.31,0,0,1,6.14.61,10.81,10.81,0,0,1,4.85,3,14.12,14.12,0,0,1,3.08,5.22,23.84,23.84,0,0,1,1,7.61,21.19,21.19,0,0,1-1,6.86,14.1,14.1,0,0,1-3.45,5.69,11.41,11.41,0,0,1-4.57,2.57,19.76,19.76,0,0,1-5.75.68H138.67Zm6.5,5.45v21.33H150a18.13,18.13,0,0,0,3.93-.3,6.09,6.09,0,0,0,2.63-1.35,6.86,6.86,0,0,0,1.7-3.1,21,21,0,0,0,.66-5.9,19.25,19.25,0,0,0-.66-5.74,7.43,7.43,0,0,0-1.85-3.12,6.2,6.2,0,0,0-3-1.52,30.1,30.1,0,0,0-5.34-.3Z"/><path d="M171.19,133.14V100.93h23.88v5.45H177.69v7.14h16.17V119H177.69v8.76h18v5.43Z"/><path d="M199.55,122.66l6.33-.62a7.71,7.71,0,0,0,2.32,4.68,7,7,0,0,0,4.71,1.5,7.28,7.28,0,0,0,4.74-1.33,4,4,0,0,0,1.59-3.11,2.9,2.9,0,0,0-.67-1.94,5.39,5.39,0,0,0-2.34-1.4q-1.14-.39-5.21-1.41c-3.48-.86-5.93-1.92-7.33-3.18a8.38,8.38,0,0,1-3-6.48,8.28,8.28,0,0,1,1.39-4.61,8.71,8.71,0,0,1,4-3.26,16,16,0,0,1,6.33-1.12c4.05,0,7.09.88,9.13,2.66a9.35,9.35,0,0,1,3.22,7.09l-6.5.29a5.53,5.53,0,0,0-1.79-3.57,6.54,6.54,0,0,0-4.12-1.09,7.41,7.41,0,0,0-4.44,1.17,2.33,2.33,0,0,0-1,2,2.47,2.47,0,0,0,1,1.95c.82.69,2.82,1.41,6,2.15a31.73,31.73,0,0,1,7,2.32,9,9,0,0,1,3.56,3.28,10.11,10.11,0,0,1-.25,10.31,9.32,9.32,0,0,1-4.35,3.6,18.34,18.34,0,0,1-7,1.17q-6.1,0-9.38-2.82T199.55,122.66Z"/><path d="M239.44,133.14l-11.52-32.21H235l8.16,23.84L251,100.93h6.9l-11.53,32.21Z"/><path d="M256.07,133.14l15-32.21h29.09v5.45H284.24v7.16h14.7V119h-14.7v8.72h16.54v5.43h-23v-7.58H266.57l-3.29,7.58ZM269,119.93h8.83V105.81h-2.53Z"/><path d="M306.25,133.14V100.93h13.69a23.43,23.43,0,0,1,7.51.87,7.34,7.34,0,0,1,3.74,3.08A9.26,9.26,0,0,1,332.6,110a8.61,8.61,0,0,1-2.13,6,10.27,10.27,0,0,1-6.37,3,15.16,15.16,0,0,1,3.48,2.71,36.59,36.59,0,0,1,3.7,5.23l3.93,6.28h-7.77l-4.71-7a46.78,46.78,0,0,0-3.42-4.73,5.06,5.06,0,0,0-2-1.35,10.79,10.79,0,0,0-3.27-.36h-1.32v13.45Zm6.51-18.59h4.81a25.1,25.1,0,0,0,5.84-.39,3.52,3.52,0,0,0,1.83-1.37,4.17,4.17,0,0,0,.66-2.41,3.86,3.86,0,0,0-.87-2.63,4,4,0,0,0-2.45-1.26c-.53-.08-2.11-.11-4.75-.11h-5.07Z"/><path d="M338.75,133.14V100.93h13.69a23.36,23.36,0,0,1,7.5.87,7.36,7.36,0,0,1,3.75,3.08A9.26,9.26,0,0,1,365.1,110a8.57,8.57,0,0,1-2.14,6,10.24,10.24,0,0,1-6.37,3,15,15,0,0,1,3.49,2.71,37.43,37.43,0,0,1,3.7,5.23l3.93,6.28h-7.78l-4.7-7a44.71,44.71,0,0,0-3.43-4.73,5,5,0,0,0-1.95-1.35,10.82,10.82,0,0,0-3.28-.36h-1.32v13.45Zm6.5-18.59h4.82a25.16,25.16,0,0,0,5.84-.39,3.52,3.52,0,0,0,1.83-1.37,4.25,4.25,0,0,0,.65-2.41,3.86,3.86,0,0,0-.86-2.63,4,4,0,0,0-2.45-1.26c-.53-.08-2.11-.11-4.75-.11h-5.08Z"/><path d="M371.23,133.14V100.93h23.88v5.45H377.73v7.14H393.9V119H377.73v8.76h18v5.43Z"/><path d="M403.61,124.83,402,108.49v-7.56h6.68v7.56l-1.58,16.34Zm-1.34,8.31V127h6.18v6.17Z"/><path d="M428.71,100.93h11.88a23.18,23.18,0,0,1,6.13.61,10.84,10.84,0,0,1,4.86,3,14.12,14.12,0,0,1,3.08,5.22,23.84,23.84,0,0,1,1,7.61,21.19,21.19,0,0,1-1,6.86,14.1,14.1,0,0,1-3.45,5.69,11.48,11.48,0,0,1-4.57,2.57,19.76,19.76,0,0,1-5.75.68H428.71Zm6.5,5.45v21.33h4.86a18.19,18.19,0,0,0,3.93-.3,6.15,6.15,0,0,0,2.63-1.35,6.86,6.86,0,0,0,1.7-3.1,21,21,0,0,0,.66-5.9,19.25,19.25,0,0,0-.66-5.74,7.43,7.43,0,0,0-1.85-3.12,6.2,6.2,0,0,0-3-1.52,30.26,30.26,0,0,0-5.34-.3Z"/><path d="M461.18,100.93h6.51v17.44a36.54,36.54,0,0,0,.24,5.39,5.2,5.2,0,0,0,2,3.17,6.9,6.9,0,0,0,4.29,1.2,6.59,6.59,0,0,0,4.18-1.13,4.47,4.47,0,0,0,1.69-2.78,36.13,36.13,0,0,0,.29-5.47V100.93h6.5v16.92a43.48,43.48,0,0,1-.53,8.19,9.12,9.12,0,0,1-1.94,4,9.94,9.94,0,0,1-3.79,2.62,16.53,16.53,0,0,1-6.2,1,17.84,17.84,0,0,1-7-1.07,10,10,0,0,1-3.77-2.77,8.8,8.8,0,0,1-1.82-3.57,39.36,39.36,0,0,1-.64-8.17Z"/><path d="M513.48,133.14V106.38h-9.56v-5.45h25.6v5.45H520v26.76Z"/><path d="M559.42,133.14h-7.07l-2.81-7.32H536.66L534,133.14h-6.9l12.55-32.21h6.88Zm-12-12.74-4.44-12-4.35,12Z"/><path d="M562.9,100.93h12.87a36.14,36.14,0,0,1,5.7.32,8.16,8.16,0,0,1,3.36,1.33,8.25,8.25,0,0,1,2.48,2.69,7.27,7.27,0,0,1,1,3.77,7.62,7.62,0,0,1-4.53,7A8.5,8.5,0,0,1,588.3,119a7.75,7.75,0,0,1,1.58,4.85,9.62,9.62,0,0,1-1,4.28,8.63,8.63,0,0,1-2.79,3.31,9.22,9.22,0,0,1-4.37,1.53c-1.08.12-3.7.19-7.84.22h-11Zm6.5,5.36v7.45h4.26c2.54,0,4.11,0,4.73-.11a4.28,4.28,0,0,0,2.62-1.16,3.37,3.37,0,0,0,1-2.51,3.53,3.53,0,0,0-.83-2.43,3.72,3.72,0,0,0-2.45-1.13c-.64-.07-2.49-.11-5.56-.11Zm0,12.81v8.61h6a28.23,28.23,0,0,0,4.46-.2,4,4,0,0,0,2.36-1.28,3.94,3.94,0,0,0,.91-2.74,4.22,4.22,0,0,0-.7-2.46,4,4,0,0,0-2-1.47,22,22,0,0,0-5.77-.46Z"/><path d="M602.62,133.14V106.38h-9.56v-5.45h25.6v5.45h-9.53v26.76Z"/><path d="M622.86,133.14V100.93h23.88v5.45H629.36v7.14h16.18V119H629.36v8.76h18v5.43Z"/><path d="M655.25,124.83l-1.61-16.34v-7.56h6.68v7.56l-1.58,16.34Zm-1.34,8.31V127h6.17v6.17Z"/></svg>
