<svg id="Layer_1" data-name="Layer 1" xmlns="http://www.w3.org/2000/svg" width="300" height="320" viewBox="0 0 300 320"><defs><style>.cls-1{fill:none;stroke:#b2884b;stroke-miterlimit:10;stroke-width:15px;}.cls-2{fill:#b2884b;}.cls-3{fill:#c69c6d;}</style></defs><title>kurv</title><ellipse class="cls-1" cx="150" cy="118.55" rx="29.71" ry="67.04"/><path class="cls-2" d="M187.93,261.86H109.64c-14.18,0-27.09-8.87-33.16-22.79l-36-82.73c-5.91-13.56,3.21-29.19,17-29.19h185c14,0,23.15,16.06,16.82,29.66L220.68,240C214.44,253.4,201.78,261.86,187.93,261.86Z"/><path class="cls-3" d="M175.24,239.32H123.15c-9.44,0-18-5.91-22.06-15.17l-24-55c-3.93-9,2.13-19.43,11.33-19.43H211.56c9.34,0,15.4,10.69,11.19,19.74L197,224.76C192.88,233.69,184.45,239.32,175.24,239.32Z"/></svg>
