<svg id="Layer_1" data-name="Layer 1" xmlns="http://www.w3.org/2000/svg" width="450" height="350" viewBox="0 0 450 350"><defs><style>.cls-1{fill:#d30d0d;}.cls-2{fill:#e54545;}.cls-3{fill:#ef9595;}.cls-4{fill:#56cc2f;}.cls-5{fill:#56291d;}.cls-6{fill:#fff;}</style></defs><title>Play</title><ellipse class="cls-1" cx="217.2" cy="194.11" rx="128.52" ry="112.19" transform="translate(-6.17 7.13) rotate(-1.85)"/><ellipse class="cls-2" cx="275.94" cy="134.84" rx="27.44" ry="33.42" transform="translate(-14.21 235.55) rotate(-45.18)"/><ellipse class="cls-3" cx="272.52" cy="130.9" rx="10.92" ry="13.3" transform="translate(-12.42 231.96) rotate(-45.18)"/><path class="cls-4" d="M132.5,51.17l1.27-.8,1.2-.69,2.38-1.35c1.52-.79,3-1.56,4.46-2.18A75.92,75.92,0,0,1,150,43a58.61,58.61,0,0,1,14.36-2.77,39.45,39.45,0,0,1,22.55,5,39,39,0,0,1,15.53,17.08,57.65,57.65,0,0,1,4.66,13.87c.24,1.4.53,2.72.74,4.19s.42,2.93.52,4.56.23,3.25.29,5V94l-.09,1.51-1.27.81-1.2.69-2.39,1.36c-1.53.81-3,1.57-4.47,2.2s-2.82,1.21-4.22,1.79-2.68.94-4,1.42a58.19,58.19,0,0,1-14.36,2.78,38.24,38.24,0,0,1-38-22.27A57.72,57.72,0,0,1,134,70.47a75.14,75.14,0,0,1-1.28-8.73c-.16-1.55-.24-3.23-.3-5V52.67Z"/><path class="cls-4" d="M278.72,45.26l.2,1.49.11,1.37.22,2.73c.08,1.72.13,3.41.1,5a78.73,78.73,0,0,1-.6,8.8,58.18,58.18,0,0,1-3.56,14.18A39.4,39.4,0,0,1,261.1,97.11a38.94,38.94,0,0,1-22,6.86,57.79,57.79,0,0,1-14.54-1.64c-1.37-.38-2.69-.67-4.11-1.11s-2.83-.85-4.36-1.45-3-1.16-4.62-1.84l-2.49-1.18-1.25-.59-1.33-.71-.2-1.5L206,92.58l-.23-2.75c-.08-1.72-.13-3.41-.1-5s.1-3.07.17-4.58.27-2.83.4-4.24a57.91,57.91,0,0,1,3.56-14.19A38.84,38.84,0,0,1,224,43.6a39.43,39.43,0,0,1,22.09-6.78,58.13,58.13,0,0,1,14.53,1.63A77.94,77.94,0,0,1,269.06,41c1.47.51,3,1.16,4.61,1.83L276.15,44l1.25.59Z"/><path class="cls-5" d="M211.28,93.37A25,25,0,0,0,212,76.55a49.79,49.79,0,0,0-3-7.13c-.46-1-.94-1.88-1.42-2.82-.21-.44-1.24-2.79-.78-1.55a17.84,17.84,0,0,1-.72-2.25s0-.42,0-.41c-.16.36.36.16-.16.43,1-.5,1.08-1.07,2-1.69,8.45-5.8,20.79-7.44,30.53-9.54,8.9-1.92,5.13-15.57-3.76-13.65-12.46,2.68-43.19,6.74-42.74,25.11.12,5,2.91,9.42,5,13.84,2,4.15,2.78,7.56.62,12.71-3.51,8.4,10.19,12.06,13.66,3.77Z"/><path class="cls-6" d="M159.05,189.62c8.79,0,15.56,4.81,15.56,14.38s-6.71,14.32-15.68,14.32H151v16.16H139.26V189.62Zm-2,19.55c3.38,0,6.23-1.55,6.23-5.11s-2.79-5.23-6.17-5.23H151v10.34Z"/><path class="cls-6" d="M191.73,189.62v33.87h20.56v11H180V189.62Z"/><path class="cls-6" d="M215,234.06l17.12-44.44h11l17,44.44-11.88.77L245,225.15H230.12l-3.21,9.68Zm22.58-31.43-4.22,12.77h8.44Z"/><path class="cls-6" d="M298.69,190l-14.8,26.14v18.36H272.13V216.24l-15-26.26,12.78-.72L278,205.84l8-16.58Z"/></svg>
