<svg id="Layer_1" data-name="Layer 1" xmlns="http://www.w3.org/2000/svg" width="100" height="100" viewBox="0 0 100 100"><defs><style>.cls-1{fill:#a07200;}.cls-2{fill:#98a02a;}.cls-3{fill:#56291d;}.cls-4{fill:#4c4c1d;}.cls-5{fill:#2b2a0e;}</style></defs><title>raaddent_aeble</title><ellipse class="cls-1" cx="47.38" cy="54.91" rx="31.1" ry="27.15" transform="translate(-1.75 1.56) rotate(-1.85)"/><path class="cls-2" d="M26.88,20.32a9.9,9.9,0,0,1,1.7-.26,13.94,13.94,0,0,1,1.57,0,16.46,16.46,0,0,1,2.88.34,17.11,17.11,0,0,1,5,2,16.83,16.83,0,0,1,4.18,3.4A15.64,15.64,0,0,1,44,28.06a13.91,13.91,0,0,1,.73,1.39,11.54,11.54,0,0,1,.6,1.61,10.19,10.19,0,0,1-1.7.28c-.54,0-1.07.06-1.58.05a16.46,16.46,0,0,1-2.88-.34,17,17,0,0,1-5-2,17.1,17.1,0,0,1-4.18-3.41,16.36,16.36,0,0,1-1.72-2.35,13.91,13.91,0,0,1-.73-1.39A9.47,9.47,0,0,1,26.88,20.32Z"/><path class="cls-2" d="M62.26,18.89a9.29,9.29,0,0,1-.47,1.66c-.19.51-.4,1-.62,1.44a16.34,16.34,0,0,1-1.53,2.47,17.2,17.2,0,0,1-3.9,3.73,16.92,16.92,0,0,1-4.85,2.35,15.81,15.81,0,0,1-2.85.57c-.51.05-1,.07-1.57.07A9.63,9.63,0,0,1,44.75,31a11.68,11.68,0,0,1,.47-1.66c.19-.51.4-1,.62-1.44a15.4,15.4,0,0,1,1.53-2.47,16.73,16.73,0,0,1,3.9-3.72,17.1,17.1,0,0,1,4.86-2.35A16,16,0,0,1,59,18.84a13.42,13.42,0,0,1,1.57-.08A10.39,10.39,0,0,1,62.26,18.89Z"/><path class="cls-3" d="M45,30.51c.89-2.07.37-3.88-.6-5.79a10,10,0,0,1-.42-.91,1.56,1.56,0,0,1-.17-.81c0-.15,0,.14,0-.06a.94.94,0,0,1,.07-.22c0,.08.14-.19.16-.22a3.79,3.79,0,0,1,1.17-.82,28.31,28.31,0,0,1,7-2.08c1.07-.23.62-1.88-.45-1.65a35.49,35.49,0,0,0-6.8,1.95A5.06,5.06,0,0,0,42.4,22c-.84,1.67.58,3.39,1.1,4.75a3.64,3.64,0,0,1,0,2.93c-.43,1,1,1.87,1.48.86Z"/><ellipse class="cls-4" cx="43.17" cy="63.14" rx="6.71" ry="9.46" transform="translate(-23.67 25.96) rotate(-26.55)"/><ellipse class="cls-5" cx="43.24" cy="62.71" rx="4.03" ry="5.68" transform="translate(-23.47 25.94) rotate(-26.55)"/><ellipse class="cls-4" cx="27.76" cy="45.54" rx="6.37" ry="4.28" transform="translate(-25.21 51.7) rotate(-65.27)"/><ellipse class="cls-5" cx="27.76" cy="45.54" rx="4.28" ry="2.88" transform="translate(-25.21 51.7) rotate(-65.27)"/><ellipse class="cls-4" cx="61.36" cy="36.29" rx="5.81" ry="4.13" transform="translate(-2.18 3.97) rotate(-3.64)"/><ellipse class="cls-5" cx="61.36" cy="36.29" rx="3.91" ry="2.77" transform="translate(-2.18 3.97) rotate(-3.64)"/><ellipse class="cls-4" cx="69.01" cy="56.1" rx="5.59" ry="7.88" transform="translate(-7.56 101.35) rotate(-69.69)"/><ellipse class="cls-5" cx="69.01" cy="56.1" rx="3.76" ry="5.3" transform="translate(-7.56 101.35) rotate(-69.69)"/></svg>
