<svg id="Layer_1" data-name="Layer 1" xmlns="http://www.w3.org/2000/svg" width="1140" height="800" viewBox="0 0 1140 800"><defs><style>.cls-1{fill:#a8a7a7;}.cls-2{fill:#fff;}</style></defs><title>settings_on_off</title><rect x="41.11" y="51.66" width="1024" height="676" rx="12" ry="12"/><rect class="cls-1" x="30.18" y="40.73" width="1024" height="676" rx="12" ry="12"/><path d="M141.47,142.16,153,141q1,5.81,4.23,8.53t8.59,2.72q5.72,0,8.63-2.42a7.24,7.24,0,0,0,2.9-5.67,5.34,5.34,0,0,0-1.22-3.54,9.75,9.75,0,0,0-4.27-2.54q-2.09-.74-9.49-2.57-9.52-2.36-13.37-5.8a15.28,15.28,0,0,1-5.4-11.81,15,15,0,0,1,2.54-8.39,15.86,15.86,0,0,1,7.33-6,29.32,29.32,0,0,1,11.55-2q11,0,16.63,4.84a17.11,17.11,0,0,1,5.87,12.94l-11.85.52q-.76-4.53-3.27-6.51t-7.5-2c-3.45,0-6.14.71-8.09,2.12a4.26,4.26,0,0,0-1.88,3.64,4.5,4.5,0,0,0,1.76,3.57q2.24,1.88,10.89,3.92t12.79,4.23a16.47,16.47,0,0,1,6.49,6,18.5,18.5,0,0,1-.46,18.8,16.79,16.79,0,0,1-7.93,6.55,33.43,33.43,0,0,1-12.77,2.14q-11.13,0-17.1-5.15T141.47,142.16Z"/><path d="M199.17,161.26v-58.7h43.52v9.93H211v13h29.47v9.89H211v16h32.79v9.89Z"/><path d="M267.08,161.26V112.49H249.66v-9.93H296.3v9.93H278.93v48.77Z"/><path d="M317.16,161.26V112.49H299.75v-9.93h46.64v9.93H329v48.77Z"/><path d="M353.68,161.26v-58.7h11.85v58.7Z"/><path d="M376.94,161.26v-58.7h11.53l24,39.2v-39.2h11v58.7H411.62L388,123v38.28Z"/><path d="M463.35,139.68v-9.89h25.54v23.38a32.21,32.21,0,0,1-10.79,6.35,39.43,39.43,0,0,1-14.31,2.74,32.12,32.12,0,0,1-16.06-3.87,24.54,24.54,0,0,1-10.29-11A35.77,35.77,0,0,1,434,131.71a33.83,33.83,0,0,1,3.84-16.3,25.89,25.89,0,0,1,11.25-10.93q5.66-2.92,14.06-2.92,10.92,0,17.07,4.58a20.68,20.68,0,0,1,7.91,12.68L476.36,121a12.47,12.47,0,0,0-4.66-6.83,14.12,14.12,0,0,0-8.55-2.5q-7.77,0-12.35,4.92t-4.59,14.62q0,10.46,4.64,15.67A15.51,15.51,0,0,0,463,152.13a20.45,20.45,0,0,0,7.46-1.46,25.7,25.7,0,0,0,6.43-3.55v-7.44Z"/><path d="M496.82,142.16,508.35,141q1,5.81,4.23,8.53t8.58,2.72q5.73,0,8.63-2.42a7.21,7.21,0,0,0,2.9-5.67,5.29,5.29,0,0,0-1.22-3.54,9.65,9.65,0,0,0-4.26-2.54q-2.09-.74-9.49-2.57-9.53-2.36-13.37-5.8a15.41,15.41,0,0,1-2.87-20.2,16,16,0,0,1,7.33-6,29.39,29.39,0,0,1,11.55-2q11.05,0,16.64,4.84a17.1,17.1,0,0,1,5.86,12.94l-11.85.52q-.75-4.53-3.26-6.51t-7.51-2q-5.16,0-8.09,2.12a4.28,4.28,0,0,0-1.88,3.64A4.53,4.53,0,0,0,512,120.7q2.25,1.88,10.9,3.92a57.29,57.29,0,0,1,12.79,4.23,16.45,16.45,0,0,1,6.48,6,18.43,18.43,0,0,1-.46,18.8,16.81,16.81,0,0,1-7.92,6.55A33.45,33.45,0,0,1,521,162.3q-11.13,0-17.09-5.15T496.82,142.16Z"/><path d="M141.67,269.94V237.73h6.41l7.63,22.81q1,3.18,1.54,4.76.54-1.76,1.71-5.16l7.71-22.41h5.74v32.21H168.3V243l-9.36,27h-3.85l-9.31-27.42v27.42Z"/><path d="M200.42,237.73h4.27v18.61a22,22,0,0,1-1.1,7.71,9.47,9.47,0,0,1-4,4.65,14.07,14.07,0,0,1-7.52,1.79,15.49,15.49,0,0,1-7.41-1.56,8.91,8.91,0,0,1-4.11-4.52,21.51,21.51,0,0,1-1.23-8.07V237.73h4.26v18.59a18.06,18.06,0,0,0,.78,6.18,6,6,0,0,0,2.68,3.07,9.3,9.3,0,0,0,4.65,1.07q4.71,0,6.7-2.13c1.34-1.42,2-4.15,2-8.19Z"/><path d="M210.33,259.59l4-.35a9,9,0,0,0,1.33,4,7.31,7.31,0,0,0,3.25,2.5,12.2,12.2,0,0,0,4.94,1,12,12,0,0,0,4.31-.73,5.92,5.92,0,0,0,2.77-2,4.59,4.59,0,0,0,.92-2.75,4.21,4.21,0,0,0-.88-2.65,6.51,6.51,0,0,0-2.9-1.9,56.42,56.42,0,0,0-5.74-1.57,29.35,29.35,0,0,1-6.22-2,8.78,8.78,0,0,1-3.43-3,7.32,7.32,0,0,1-1.14-4A8.12,8.12,0,0,1,213,241.5a8.51,8.51,0,0,1,4-3.22,15.36,15.36,0,0,1,5.91-1.1,16.16,16.16,0,0,1,6.32,1.15,9.16,9.16,0,0,1,4.21,3.4A9.79,9.79,0,0,1,235,246.8l-4.09.31a6.59,6.59,0,0,0-2.23-4.61,8.68,8.68,0,0,0-5.61-1.56q-3.87,0-5.64,1.41a4.27,4.27,0,0,0-1.77,3.42,3.66,3.66,0,0,0,1.26,2.86c.82.74,3,1.51,6.42,2.29a42.45,42.45,0,0,1,7.13,2.06,9.8,9.8,0,0,1,4.16,3.28,8.05,8.05,0,0,1,1.34,4.58,8.79,8.79,0,0,1-1.48,4.85,9.77,9.77,0,0,1-4.23,3.54,14.74,14.74,0,0,1-6.2,1.26,18.71,18.71,0,0,1-7.33-1.27,10.26,10.26,0,0,1-4.64-3.84A10.88,10.88,0,0,1,210.33,259.59Z"/><path d="M242.52,269.94V237.73h4.27v32.21Z"/><path d="M277.28,258.65l4.27,1.07a14.36,14.36,0,0,1-4.83,8,13.27,13.27,0,0,1-8.51,2.76,15.32,15.32,0,0,1-8.47-2.12,13.23,13.23,0,0,1-5-6.14,22,22,0,0,1-1.7-8.64,19,19,0,0,1,1.92-8.78,13.25,13.25,0,0,1,5.47-5.69,16.08,16.08,0,0,1,7.82-1.94,13.22,13.22,0,0,1,8.13,2.46,12.85,12.85,0,0,1,4.59,6.92l-4.2,1a10,10,0,0,0-3.25-5.12,8.66,8.66,0,0,0-5.36-1.6,10.38,10.38,0,0,0-6.21,1.78,9.36,9.36,0,0,0-3.5,4.78,19,19,0,0,0-1,6.18,19.68,19.68,0,0,0,1.19,7.18,8.92,8.92,0,0,0,3.73,4.58,10.41,10.41,0,0,0,5.47,1.51,9.17,9.17,0,0,0,6.06-2.06A10.52,10.52,0,0,0,277.28,258.65Z"/><rect class="cls-2" x="685.18" y="226.41" width="67.4" height="45.54" rx="12" ry="12"/><rect class="cls-2" x="870.2" y="226.41" width="67.4" height="45.54" rx="12" ry="12"/><path d="M605.39,251.35q0-8,4.3-12.56a14.63,14.63,0,0,1,11.12-4.54,15.44,15.44,0,0,1,8,2.13,13.91,13.91,0,0,1,5.46,6,19.31,19.31,0,0,1,1.88,8.64,19,19,0,0,1-2,8.77,13.51,13.51,0,0,1-5.6,5.86,16.06,16.06,0,0,1-7.82,2,15.28,15.28,0,0,1-8.13-2.19,14.19,14.19,0,0,1-5.43-6A18.21,18.21,0,0,1,605.39,251.35Zm4.39.06q0,5.82,3.13,9.18a10.92,10.92,0,0,0,15.78,0q3.1-3.37,3.11-9.6a16.64,16.64,0,0,0-1.33-6.87,10.25,10.25,0,0,0-3.89-4.54,10.53,10.53,0,0,0-5.75-1.62A10.92,10.92,0,0,0,613,241Q609.79,244.14,609.78,251.41Z"/><path d="M641.64,267V234.82H646l16.92,25.29V234.82H667V267h-4.37l-16.92-25.32V267Z"/><path d="M764.12,251.35q0-8,4.31-12.56a14.62,14.62,0,0,1,11.12-4.54,15.44,15.44,0,0,1,8,2.13,14,14,0,0,1,5.46,6,19.31,19.31,0,0,1,1.88,8.64,19,19,0,0,1-2,8.77,13.57,13.57,0,0,1-5.6,5.86,16.09,16.09,0,0,1-7.83,2,15.28,15.28,0,0,1-8.13-2.19,14.23,14.23,0,0,1-5.42-6A18.22,18.22,0,0,1,764.12,251.35Zm4.4.06q0,5.82,3.13,9.18a10.91,10.91,0,0,0,15.77,0q3.12-3.37,3.11-9.6a16.48,16.48,0,0,0-1.33-6.87,10.13,10.13,0,0,0-3.89-4.54,10.49,10.49,0,0,0-5.74-1.62,10.9,10.9,0,0,0-7.79,3.11Q768.51,244.14,768.52,251.41Z"/><path d="M800.64,267V234.82h21.73v3.8H804.9v10H820v3.8H804.9V267Z"/><path d="M828.13,267V234.82h21.73v3.8H832.39v10h15.12v3.8H832.39V267Z"/><path d="M1000.61,131.93,1013,115.76a5.45,5.45,0,0,0-8.66-6.61L993.76,123l-10.54-13.81a5.44,5.44,0,1,0-8.65,6.61l12.34,16.17L974.57,148.1a5.44,5.44,0,0,0,8.65,6.61l10.54-13.81,10.54,13.81a5.45,5.45,0,0,0,8.66-6.61Z"/><rect class="cls-2" x="685.18" y="346.29" width="67.4" height="45.54" rx="12" ry="12"/><rect class="cls-2" x="870.2" y="346.29" width="67.4" height="45.54" rx="12" ry="12"/><path d="M605.39,371.23q0-8,4.3-12.56a14.66,14.66,0,0,1,11.12-4.53,15.44,15.44,0,0,1,8,2.13,13.88,13.88,0,0,1,5.46,5.94,19.33,19.33,0,0,1,1.88,8.65,18.93,18.93,0,0,1-2,8.76,13.51,13.51,0,0,1-5.6,5.86,16,16,0,0,1-7.82,2,15.2,15.2,0,0,1-8.13-2.2,14.07,14.07,0,0,1-5.43-6A18.15,18.15,0,0,1,605.39,371.23Zm4.39.07q0,5.82,3.13,9.17a10.93,10.93,0,0,0,15.78,0q3.1-3.39,3.11-9.61a16.56,16.56,0,0,0-1.33-6.86,10.28,10.28,0,0,0-3.89-4.55,10.52,10.52,0,0,0-5.75-1.61,10.91,10.91,0,0,0-7.79,3.1Q609.79,364,609.78,371.3Z"/><path d="M641.64,386.92V354.71H646L662.93,380V354.71H667v32.21h-4.37l-16.92-25.31v25.31Z"/><path d="M764.12,371.23q0-8,4.31-12.56a14.65,14.65,0,0,1,11.12-4.54,15.45,15.45,0,0,1,8,2.14,14,14,0,0,1,5.46,5.94,19.33,19.33,0,0,1,1.88,8.65,19,19,0,0,1-2,8.76,13.57,13.57,0,0,1-5.6,5.86,16.1,16.1,0,0,1-7.83,2,15.2,15.2,0,0,1-8.13-2.2,14.11,14.11,0,0,1-5.42-6A18.16,18.16,0,0,1,764.12,371.23Zm4.4.06q0,5.83,3.13,9.18a10.92,10.92,0,0,0,15.77,0q3.12-3.39,3.11-9.61A16.4,16.4,0,0,0,789.2,364a10.15,10.15,0,0,0-3.89-4.55,10.49,10.49,0,0,0-5.74-1.62,10.9,10.9,0,0,0-7.79,3.11Q768.51,364,768.52,371.29Z"/><path d="M800.64,386.92V354.71h21.73v3.8H804.9v10H820v3.8H804.9v14.64Z"/><path d="M828.13,386.92V354.71h21.73v3.8H832.39v10h15.12v3.8H832.39v14.64Z"/><path d="M907.71,369.06l6.88-9a3,3,0,1,0-4.82-3.68l-5.87,7.68L898,356.38a3,3,0,0,0-4.82,3.68l6.88,9-6.88,9a3,3,0,0,0,4.82,3.68l5.87-7.68,5.87,7.68a3,3,0,1,0,4.82-3.68Z"/><rect class="cls-2" x="870.2" y="450.34" width="67.4" height="45.54" rx="12" ry="12"/><path d="M605.39,475.28q0-8,4.3-12.56a14.67,14.67,0,0,1,11.12-4.54,15.45,15.45,0,0,1,8,2.14,13.88,13.88,0,0,1,5.46,5.94,19.33,19.33,0,0,1,1.88,8.65,19,19,0,0,1-2,8.76,13.51,13.51,0,0,1-5.6,5.86,16.07,16.07,0,0,1-7.82,2,15.2,15.2,0,0,1-8.13-2.2,14.07,14.07,0,0,1-5.43-6A18.15,18.15,0,0,1,605.39,475.28Zm4.39.06q0,5.84,3.13,9.18a10.93,10.93,0,0,0,15.78,0q3.1-3.39,3.11-9.61a16.56,16.56,0,0,0-1.33-6.86,10.28,10.28,0,0,0-3.89-4.55,10.53,10.53,0,0,0-5.75-1.62A10.92,10.92,0,0,0,613,465Q609.79,468.08,609.78,475.34Z"/><path d="M641.64,491V458.76H646l16.92,25.29V458.76H667V491h-4.37l-16.92-25.31V491Z"/><path d="M764.12,475.28q0-8,4.31-12.56a14.65,14.65,0,0,1,11.12-4.54,15.45,15.45,0,0,1,8,2.14,14,14,0,0,1,5.46,5.94,19.33,19.33,0,0,1,1.88,8.65,19,19,0,0,1-2,8.76,13.57,13.57,0,0,1-5.6,5.86,16.1,16.1,0,0,1-7.83,2,15.2,15.2,0,0,1-8.13-2.2,14.11,14.11,0,0,1-5.42-6A18.16,18.16,0,0,1,764.12,475.28Zm4.4.06q0,5.84,3.13,9.18a10.92,10.92,0,0,0,15.77,0q3.12-3.39,3.11-9.61A16.4,16.4,0,0,0,789.2,468a10.15,10.15,0,0,0-3.89-4.55,10.49,10.49,0,0,0-5.74-1.62,10.9,10.9,0,0,0-7.79,3.11Q768.51,468.08,768.52,475.34Z"/><path d="M800.64,491V458.76h21.73v3.8H804.9v10H820v3.8H804.9V491Z"/><path d="M828.13,491V458.76h21.73v3.8H832.39v10h15.12v3.8H832.39V491Z"/><path d="M907.71,473.11l6.88-9a3,3,0,1,0-4.82-3.68l-5.87,7.68L898,460.43a3,3,0,0,0-4.82,3.68l6.88,9-6.88,9a3,3,0,0,0,4.82,3.68l5.87-7.68,5.87,7.68a3,3,0,1,0,4.82-3.68Z"/><path d="M140.35,373.51l4-.35a8.79,8.79,0,0,0,1.33,4,7.24,7.24,0,0,0,3.24,2.51,12.36,12.36,0,0,0,4.94.95,11.91,11.91,0,0,0,4.31-.72,6,6,0,0,0,2.78-2,4.59,4.59,0,0,0,.91-2.76,4.19,4.19,0,0,0-.88-2.65,6.56,6.56,0,0,0-2.9-1.9,58,58,0,0,0-5.73-1.57,29.35,29.35,0,0,1-6.22-2,8.66,8.66,0,0,1-3.44-3,7.38,7.38,0,0,1-1.13-4,8.24,8.24,0,0,1,1.38-4.56,8.66,8.66,0,0,1,4-3.22,15.36,15.36,0,0,1,5.91-1.1,16.07,16.07,0,0,1,6.31,1.16,9.1,9.1,0,0,1,4.21,3.39,9.76,9.76,0,0,1,1.58,5.08l-4.08.31a6.63,6.63,0,0,0-2.23-4.62,8.7,8.7,0,0,0-5.62-1.56c-2.57,0-4.45.48-5.63,1.42a4.24,4.24,0,0,0-1.77,3.42,3.66,3.66,0,0,0,1.25,2.85q1.23,1.13,6.43,2.3a43,43,0,0,1,7.13,2.05,9.78,9.78,0,0,1,4.15,3.29,8,8,0,0,1,1.34,4.58,8.75,8.75,0,0,1-1.47,4.84,9.64,9.64,0,0,1-4.23,3.54,14.79,14.79,0,0,1-6.21,1.27,18.55,18.55,0,0,1-7.33-1.28,10.28,10.28,0,0,1-4.63-3.83A10.91,10.91,0,0,1,140.35,373.51Z"/><path d="M170.52,368.17q0-8,4.3-12.56a14.67,14.67,0,0,1,11.12-4.54,15.39,15.39,0,0,1,8,2.13,14,14,0,0,1,5.46,5.95,20.65,20.65,0,0,1-.09,17.41,13.53,13.53,0,0,1-5.61,5.86,16,16,0,0,1-7.82,2,15.29,15.29,0,0,1-8.13-2.2,14.19,14.19,0,0,1-5.43-6A18.15,18.15,0,0,1,170.52,368.17Zm4.39.06c0,3.89,1.05,6.94,3.13,9.18a10.92,10.92,0,0,0,15.78,0q3.1-3.37,3.11-9.6a16.4,16.4,0,0,0-1.33-6.86,10.16,10.16,0,0,0-3.89-4.55,10.53,10.53,0,0,0-5.75-1.62,10.89,10.89,0,0,0-7.78,3.11C176,359.92,174.91,363.39,174.91,368.23Z"/><path d="M228,351.64h4.27v18.61a22.14,22.14,0,0,1-1.1,7.72,9.46,9.46,0,0,1-4,4.65,14.07,14.07,0,0,1-7.52,1.79,15.49,15.49,0,0,1-7.41-1.56,8.91,8.91,0,0,1-4.11-4.52,21.53,21.53,0,0,1-1.23-8.08V351.64h4.27v18.59a18.16,18.16,0,0,0,.78,6.19,5.89,5.89,0,0,0,2.68,3.06,9.23,9.23,0,0,0,4.64,1.08q4.71,0,6.7-2.13c1.34-1.42,2-4.15,2-8.2Z"/><path d="M239.27,383.86V351.64h4.37l16.92,25.29V351.64h4.09v32.22h-4.37l-16.92-25.32v25.32Z"/><path d="M271.81,383.86V351.64h11.1a26.58,26.58,0,0,1,5.73.47,10.92,10.92,0,0,1,4.73,2.3,13.08,13.08,0,0,1,3.81,5.51,21.62,21.62,0,0,1,1.26,7.66,22.56,22.56,0,0,1-.85,6.5,15.85,15.85,0,0,1-2.2,4.69,11.58,11.58,0,0,1-2.93,2.92,12.18,12.18,0,0,1-3.85,1.62,22.28,22.28,0,0,1-5.17.55Zm4.27-3.8H283a16.5,16.5,0,0,0,5-.6,7.07,7.07,0,0,0,2.89-1.67,10.14,10.14,0,0,0,2.36-4.07,19.78,19.78,0,0,0,.85-6.21q0-5.06-1.66-7.77a8.4,8.4,0,0,0-4-3.64,16.7,16.7,0,0,0-5.52-.65h-6.76Z"/><path d="M316.9,383.86V351.64h23.29v3.81h-19v9.86H339v3.78H321.16v11h19.78v3.8Z"/><path d="M347.05,383.86V351.64h21.73v3.81H351.31v10h15.12v3.8H351.31v14.64Z"/><path d="M374.53,383.86V351.64h21.74v3.81H378.8v10h15.11v3.8H378.8v14.64Z"/><path d="M401.89,383.86V351.64h23.29v3.81h-19v9.86H424v3.78H406.15v11h19.78v3.8Z"/><path d="M454.8,372.56l4.26,1.08a14.35,14.35,0,0,1-4.82,8,13.27,13.27,0,0,1-8.51,2.76,15.3,15.3,0,0,1-8.47-2.12,13.26,13.26,0,0,1-5-6.15,21.82,21.82,0,0,1-1.7-8.63,19,19,0,0,1,1.92-8.78A13.2,13.2,0,0,1,438,353a16,16,0,0,1,7.81-2,13.2,13.2,0,0,1,8.13,2.47,12.71,12.71,0,0,1,4.59,6.92l-4.19,1a10,10,0,0,0-3.25-5.12,8.7,8.7,0,0,0-5.37-1.61,10.44,10.44,0,0,0-6.2,1.78A9.42,9.42,0,0,0,436,361.3a19.35,19.35,0,0,0-1,6.19,19.58,19.58,0,0,0,1.2,7.17,9,9,0,0,0,3.72,4.58,10.48,10.48,0,0,0,5.48,1.52,9.17,9.17,0,0,0,6.06-2.07A10.54,10.54,0,0,0,454.8,372.56Z"/><path d="M472.51,383.86V355.45H461.9v-3.81h25.53v3.81H476.77v28.41Z"/><path d="M490.35,373.51l4-.35a8.91,8.91,0,0,0,1.33,4,7.35,7.35,0,0,0,3.24,2.51,12.45,12.45,0,0,0,4.95.95,11.89,11.89,0,0,0,4.3-.72,6,6,0,0,0,2.78-2,4.6,4.6,0,0,0,.92-2.76,4.25,4.25,0,0,0-.88-2.65,6.68,6.68,0,0,0-2.9-1.9,59.35,59.35,0,0,0-5.74-1.57,29.35,29.35,0,0,1-6.22-2,8.63,8.63,0,0,1-3.43-3,7.3,7.3,0,0,1-1.14-4,8.17,8.17,0,0,1,1.39-4.56,8.63,8.63,0,0,1,4-3.22,15.36,15.36,0,0,1,5.91-1.1,16.16,16.16,0,0,1,6.32,1.16,9.2,9.2,0,0,1,4.21,3.39,9.85,9.85,0,0,1,1.58,5.08l-4.09.31a6.59,6.59,0,0,0-2.23-4.62,8.68,8.68,0,0,0-5.61-1.56c-2.58,0-4.46.48-5.64,1.42a4.24,4.24,0,0,0-1.77,3.42,3.66,3.66,0,0,0,1.25,2.85q1.24,1.13,6.43,2.3a42.7,42.7,0,0,1,7.13,2.05,9.72,9.72,0,0,1,4.15,3.29,7.94,7.94,0,0,1,1.35,4.58,8.76,8.76,0,0,1-1.48,4.84,9.64,9.64,0,0,1-4.23,3.54,14.74,14.74,0,0,1-6.2,1.27,18.52,18.52,0,0,1-7.33-1.28,10.31,10.31,0,0,1-4.64-3.83A10.91,10.91,0,0,1,490.35,373.51Z"/><path d="M151,497.93l-12.49-32.21h4.62l8.37,23.4c.67,1.87,1.24,3.63,1.69,5.27.5-1.76,1.08-3.51,1.74-5.27l8.7-23.4H168l-12.61,32.21Z"/><path d="M170.52,482.24q0-8,4.3-12.56a14.66,14.66,0,0,1,11.12-4.53,15.39,15.39,0,0,1,8,2.13,13.88,13.88,0,0,1,5.46,5.94,20.65,20.65,0,0,1-.09,17.41,13.53,13.53,0,0,1-5.61,5.86,15.93,15.93,0,0,1-7.82,2,15.2,15.2,0,0,1-8.13-2.2,14.07,14.07,0,0,1-5.43-6A18.15,18.15,0,0,1,170.52,482.24Zm4.39.07q0,5.82,3.13,9.17a10.93,10.93,0,0,0,15.78,0q3.1-3.39,3.11-9.61A16.4,16.4,0,0,0,195.6,475a10.22,10.22,0,0,0-3.89-4.55,10.52,10.52,0,0,0-5.75-1.61,10.88,10.88,0,0,0-7.78,3.1Q174.91,475,174.91,482.31Z"/><path d="M206.64,497.93V465.72h4.26v28.41h15.87v3.8Z"/><path d="M253,465.72h4.26v18.61a21.81,21.81,0,0,1-1.1,7.71,9.44,9.44,0,0,1-4,4.65,14.08,14.08,0,0,1-7.53,1.79,15.47,15.47,0,0,1-7.4-1.56,8.91,8.91,0,0,1-4.11-4.52,21.51,21.51,0,0,1-1.23-8.07V465.72h4.26v18.59a18.14,18.14,0,0,0,.78,6.18,6,6,0,0,0,2.68,3.07,9.4,9.4,0,0,0,4.65,1.07c3.13,0,5.37-.71,6.7-2.13s2-4.15,2-8.19Z"/><path d="M264.21,497.93V465.72h6.42l7.62,22.8c.7,2.13,1.22,3.72,1.54,4.77q.54-1.76,1.71-5.16l7.71-22.41H295v32.21h-4.11V471l-9.36,27h-3.84l-9.32-27.42v27.42Z"/><path d="M301.91,497.93V465.72h23.3v3.8h-19v9.86H324v3.78H306.18v11H326v3.8Z"/></svg>
