<svg id="Layer_1" data-name="Layer 1" xmlns="http://www.w3.org/2000/svg" width="500" height="270" viewBox="0 0 500 270"><defs><style>.cls-1{fill:#e53838;}</style></defs><title>spiligen2</title><rect class="cls-1" x="45.85" y="40.44" width="408.3" height="192.39" rx="12" ry="12"/><path d="M140.75,143.76l6.33-.62a7.65,7.65,0,0,0,2.32,4.68,7,7,0,0,0,4.71,1.5,7.28,7.28,0,0,0,4.74-1.33,4,4,0,0,0,1.59-3.11,2.94,2.94,0,0,0-.67-1.95,5.39,5.39,0,0,0-2.34-1.39q-1.14-.39-5.21-1.41-5.22-1.29-7.34-3.18a8.43,8.43,0,0,1-3-6.49,8.27,8.27,0,0,1,1.39-4.6,8.74,8.74,0,0,1,4-3.26,16.09,16.09,0,0,1,6.34-1.12c4.05,0,7.09.88,9.13,2.66a9.35,9.35,0,0,1,3.22,7.09l-6.5.29a5.53,5.53,0,0,0-1.79-3.57,6.54,6.54,0,0,0-4.12-1.09,7.41,7.41,0,0,0-4.44,1.17,2.33,2.33,0,0,0-1,2,2.47,2.47,0,0,0,1,1.95c.82.69,2.82,1.41,6,2.15a31.73,31.73,0,0,1,7,2.32,9,9,0,0,1,3.56,3.28,10.17,10.17,0,0,1-.25,10.31,9.24,9.24,0,0,1-4.35,3.59,18.17,18.17,0,0,1-7,1.18c-4.08,0-7.2-.94-9.39-2.82S141.18,147.36,140.75,143.76Z"/><path d="M172.42,154.24V122h10.43a38.14,38.14,0,0,1,7.74.48,8.4,8.4,0,0,1,4.63,3.15,10,10,0,0,1,1.87,6.28,10.45,10.45,0,0,1-1.08,5,8.81,8.81,0,0,1-2.73,3.18,9.47,9.47,0,0,1-3.37,1.53,38,38,0,0,1-6.75.46h-4.24v12.15Zm6.5-26.76v9.14h3.56a16.66,16.66,0,0,0,5.14-.51,4.22,4.22,0,0,0,2-1.58,4.34,4.34,0,0,0,.74-2.51,4.22,4.22,0,0,0-1-2.9,4.5,4.5,0,0,0-2.62-1.42,30.73,30.73,0,0,0-4.68-.22Z"/><path d="M202.23,154.24V122h6.51v32.21Z"/><path d="M215.11,154.24V122.29h6.5v26.52h16.17v5.43Z"/><path d="M253.91,154.24V122h6.51v32.21Z"/><path d="M281.6,142.4V137h14V149.8a17.64,17.64,0,0,1-5.93,3.48,21.38,21.38,0,0,1-7.85,1.51,17.65,17.65,0,0,1-8.81-2.12,13.5,13.5,0,0,1-5.65-6.07,19.6,19.6,0,0,1-1.89-8.58,18.51,18.51,0,0,1,2.11-8.94,14.17,14.17,0,0,1,6.18-6,16.62,16.62,0,0,1,7.71-1.6q6,0,9.37,2.51a11.4,11.4,0,0,1,4.34,7l-6.46,1.21a6.86,6.86,0,0,0-2.56-3.75,7.71,7.71,0,0,0-4.69-1.37,8.83,8.83,0,0,0-6.78,2.7q-2.52,2.7-2.52,8,0,5.73,2.55,8.6a8.53,8.53,0,0,0,6.68,2.87,11.32,11.32,0,0,0,4.1-.8,14.45,14.45,0,0,0,3.53-2V142.4Z"/><path d="M301.61,154.24V122H325.5v5.45H308.12v7.14h16.17V140H308.12v8.77h18v5.43Z"/><path d="M331.69,154.24V122H338l13.19,21.51V122h6v32.21h-6.53l-13-21v21Z"/></svg>
