<svg id="Layer_1" data-name="Layer 1" xmlns="http://www.w3.org/2000/svg" width="500" height="270" viewBox="0 0 500 270"><defs><style>.cls-1{fill:#4ee555;}</style></defs><title>spil_igen</title><rect class="cls-1" x="45.85" y="38.81" width="408.3" height="192.39" rx="12" ry="12"/><path d="M140.75,142.13l6.33-.62a7.71,7.71,0,0,0,2.32,4.68,7,7,0,0,0,4.71,1.49,7.28,7.28,0,0,0,4.74-1.32,4,4,0,0,0,1.59-3.11,2.92,2.92,0,0,0-.67-1.95,5.39,5.39,0,0,0-2.34-1.39q-1.14-.41-5.21-1.41c-3.48-.86-5.93-1.93-7.34-3.19a8.39,8.39,0,0,1-3-6.48,8.27,8.27,0,0,1,1.39-4.6,8.67,8.67,0,0,1,4-3.26,16.08,16.08,0,0,1,6.34-1.13q6.08,0,9.13,2.66a9.37,9.37,0,0,1,3.22,7.1l-6.5.29a5.53,5.53,0,0,0-1.79-3.57,6.54,6.54,0,0,0-4.12-1.09,7.48,7.48,0,0,0-4.44,1.16,2.35,2.35,0,0,0-1,2,2.49,2.49,0,0,0,1,2c.82.69,2.82,1.41,6,2.15a31.73,31.73,0,0,1,7,2.32,9.08,9.08,0,0,1,3.56,3.27,10.19,10.19,0,0,1-.25,10.32,9.24,9.24,0,0,1-4.35,3.59,18.17,18.17,0,0,1-7,1.18c-4.08,0-7.2-.94-9.39-2.83S141.18,145.73,140.75,142.13Z"/><path d="M172.42,152.61V120.39h10.43a37.87,37.87,0,0,1,7.74.49,8.4,8.4,0,0,1,4.63,3.15,10,10,0,0,1,1.87,6.27,10.49,10.49,0,0,1-1.08,5,8.81,8.81,0,0,1-2.73,3.18,9.27,9.27,0,0,1-3.37,1.52,36.9,36.9,0,0,1-6.75.47h-4.24v12.15Zm6.5-26.77V135h3.56a16.75,16.75,0,0,0,5.14-.5,4.28,4.28,0,0,0,2-1.58,4.36,4.36,0,0,0,.74-2.51,4.2,4.2,0,0,0-1-2.9,4.51,4.51,0,0,0-2.62-1.43,32.16,32.16,0,0,0-4.68-.22Z"/><path d="M202.23,152.61V120.39h6.51v32.22Z"/><path d="M215.11,152.61v-32h6.5v26.52h16.17v5.43Z"/><path d="M253.91,152.61V120.39h6.51v32.22Z"/><path d="M281.6,140.76v-5.42h14v12.83a17.64,17.64,0,0,1-5.93,3.48,21.59,21.59,0,0,1-7.85,1.51A17.65,17.65,0,0,1,273,151a13.5,13.5,0,0,1-5.65-6.07,19.6,19.6,0,0,1-1.89-8.58,18.51,18.51,0,0,1,2.11-8.94,14.17,14.17,0,0,1,6.18-6,16.61,16.61,0,0,1,7.71-1.61q6,0,9.37,2.52a11.4,11.4,0,0,1,4.34,7l-6.46,1.2a6.84,6.84,0,0,0-2.56-3.74,7.71,7.71,0,0,0-4.69-1.38,8.83,8.83,0,0,0-6.78,2.71q-2.52,2.7-2.52,8,0,5.73,2.55,8.6a8.53,8.53,0,0,0,6.68,2.87,11.32,11.32,0,0,0,4.1-.8,14.45,14.45,0,0,0,3.53-2v-4.09Z"/><path d="M301.61,152.61V120.39H325.5v5.45H308.12V133h16.17v5.42H308.12v8.77h18v5.43Z"/><path d="M331.69,152.61V120.39H338l13.19,21.52V120.39h6v32.22h-6.53l-13-21v21Z"/></svg>
