<svg id="Layer_1" data-name="Layer 1" xmlns="http://www.w3.org/2000/svg" width="300" height="200" viewBox="0 0 300 200"><defs><style>.cls-1{fill:#a8a7a7;}</style></defs><title>tid</title><rect x="67.92" y="56.31" width="166.3" height="76.97" rx="12" ry="12"/><rect class="cls-1" x="63.61" y="52.18" width="166.3" height="76.97" rx="12" ry="12"/><path d="M116.4,88.18c0,10.16-3.77,15.78-10.4,15.78-5.84,0-9.8-5.48-9.89-15.37S100.44,73,106.51,73C112.81,73,116.4,78.65,116.4,88.18Zm-16.24.46c0,7.77,2.39,12.19,6.07,12.19,4.14,0,6.12-4.83,6.12-12.47,0-7.36-1.89-12.19-6.07-12.19C102.74,76.17,100.16,80.49,100.16,88.64Z"/><path d="M128.91,77.32h-.09l-5.2,2.81L122.84,77l6.53-3.49h3.45v29.9h-3.91Z"/><path d="M144,84.86a2.74,2.74,0,1,1,5.48,0,2.74,2.74,0,1,1-5.48,0Zm0,16.24a2.74,2.74,0,1,1,2.72,2.86A2.71,2.71,0,0,1,144,101.1Z"/><path d="M173.12,88.18c0,10.16-3.78,15.78-10.4,15.78-5.84,0-9.8-5.48-9.89-15.37S157.15,73,163.23,73C169.53,73,173.12,78.65,173.12,88.18Zm-16.24.46c0,7.77,2.39,12.19,6.07,12.19,4.14,0,6.12-4.83,6.12-12.47,0-7.36-1.89-12.19-6.08-12.19C159.45,76.17,156.88,80.49,156.88,88.64Z"/><path d="M196.71,88.18c0,10.16-3.77,15.78-10.39,15.78-5.85,0-9.8-5.48-9.89-15.37S180.75,73,186.82,73C193.13,73,196.71,78.65,196.71,88.18Zm-16.24.46c0,7.77,2.4,12.19,6.08,12.19,4.14,0,6.12-4.83,6.12-12.47,0-7.36-1.89-12.19-6.08-12.19C183.05,76.17,180.47,80.49,180.47,88.64Z"/></svg>
