<svg id="Layer_1" data-name="Layer 1" xmlns="http://www.w3.org/2000/svg" width="800" height="600" viewBox="0 0 800 600"><defs><style>.cls-1{fill:#11d32d;}.cls-2{fill:#4ee555;}</style></defs><title>TILLYKKE</title><rect class="cls-1" x="36.3" y="60.61" width="728.94" height="502.98" rx="12" ry="12"/><path d="M159.92,148.26V121.49h-9.56V116H176v5.45h-9.54v26.77Z"/><path d="M180,148.26V116h6.5v32.22Z"/><path d="M192.83,148.26V116.31h6.51v26.52h16.17v5.43Z"/><path d="M220.32,148.26V116.31h6.5v26.52H243v5.43Z"/><path d="M252,148.26V134.7L240.16,116h7.63l7.58,12.75L262.79,116h7.5l-11.85,18.7v13.52Z"/><path d="M273.6,148.26V116h6.51v14.31L293.25,116H302l-12.13,12.55,12.79,19.67h-8.41l-8.86-15.12-5.27,5.38v9.74Z"/><path d="M306.1,148.26V116h6.51v14.31L325.75,116h8.74l-12.13,12.55,12.79,19.67h-8.42l-8.85-15.12-5.27,5.38v9.74Z"/><path d="M338.51,148.26V116H362.4v5.45H345v7.14h16.17v5.43H345v8.77h18v5.43Z"/><path d="M370.9,140l-1.6-16.35V116H376v7.56L374.39,140Zm-1.34,8.31v-6.18h6.17v6.18Z"/><path d="M396,116h11.89a23.2,23.2,0,0,1,6.13.62,10.82,10.82,0,0,1,4.86,3,14.27,14.27,0,0,1,3.07,5.22,23.89,23.89,0,0,1,1.06,7.62,21.12,21.12,0,0,1-1,6.85,14.25,14.25,0,0,1-3.45,5.69,11.36,11.36,0,0,1-4.57,2.57,19.49,19.49,0,0,1-5.76.69H396Zm6.51,5.45v21.34h4.85a17.46,17.46,0,0,0,3.94-.31,6,6,0,0,0,2.62-1.34,6.81,6.81,0,0,0,1.7-3.11,21,21,0,0,0,.66-5.9,19.17,19.17,0,0,0-.66-5.73,7.29,7.29,0,0,0-1.84-3.12,6.16,6.16,0,0,0-3-1.52,29.94,29.94,0,0,0-5.34-.31Z"/><path d="M428.47,116H435v17.45a36.37,36.37,0,0,0,.24,5.38,5.27,5.27,0,0,0,2,3.18,6.93,6.93,0,0,0,4.3,1.2,6.5,6.5,0,0,0,4.17-1.14,4.5,4.5,0,0,0,1.7-2.78,37.81,37.81,0,0,0,.28-5.47V116h6.5V133a43.84,43.84,0,0,1-.52,8.2,9,9,0,0,1-1.95,4,9.78,9.78,0,0,1-3.79,2.63,16.53,16.53,0,0,1-6.19,1,17.86,17.86,0,0,1-7-1.06,9.94,9.94,0,0,1-3.77-2.77,8.86,8.86,0,0,1-1.82-3.57,38.74,38.74,0,0,1-.64-8.17Z"/><path d="M481.73,148.26,470.22,116h7l8.15,23.84L493.31,116h6.9l-11.54,32.22Z"/><path d="M529.24,148.26h-7.08l-2.81-7.32H506.47l-2.66,7.32h-6.9L509.46,116h6.88Zm-12-12.75-4.44-11.95-4.35,11.95Z"/><path d="M532.75,148.26V116h6.33l13.18,21.51V116h6v32.22h-6.52l-13-21v21Z"/><path d="M565.16,116h11.89a23.2,23.2,0,0,1,6.13.62,10.74,10.74,0,0,1,4.85,3,14.15,14.15,0,0,1,3.08,5.22,23.91,23.91,0,0,1,1,7.62,21.41,21.41,0,0,1-1,6.85,14.25,14.25,0,0,1-3.45,5.69,11.43,11.43,0,0,1-4.57,2.57,19.49,19.49,0,0,1-5.76.69H565.16Zm6.5,5.45v21.34h4.86a17.3,17.3,0,0,0,3.93-.31,6,6,0,0,0,2.63-1.34,6.9,6.9,0,0,0,1.7-3.11,21,21,0,0,0,.66-5.9,19.17,19.17,0,0,0-.66-5.73,7.29,7.29,0,0,0-1.84-3.12,6.2,6.2,0,0,0-3-1.52,29.94,29.94,0,0,0-5.34-.31Z"/><path d="M604.93,148.26V121.49h-9.56V116H621v5.45h-9.53v26.77Z"/><path d="M627.54,140l-1.6-16.35V116h6.68v7.56L631,140Zm-1.34,8.31v-6.18h6.18v6.18Z"/><rect class="cls-2" x="201.35" y="299.97" width="408.3" height="192.39" rx="12" ry="12"/><path d="M296.25,403.29l6.33-.62a7.71,7.71,0,0,0,2.32,4.68,7,7,0,0,0,4.71,1.5,7.28,7.28,0,0,0,4.74-1.33,4,4,0,0,0,1.59-3.11,2.9,2.9,0,0,0-.67-1.94,5.33,5.33,0,0,0-2.34-1.4q-1.14-.39-5.21-1.41c-3.48-.86-5.93-1.92-7.33-3.18a8.38,8.38,0,0,1-3-6.48,8.28,8.28,0,0,1,1.39-4.61,8.76,8.76,0,0,1,4-3.26,16,16,0,0,1,6.33-1.12c4.05,0,7.09.88,9.13,2.66a9.35,9.35,0,0,1,3.22,7.09l-6.5.29a5.53,5.53,0,0,0-1.79-3.57,6.54,6.54,0,0,0-4.12-1.09,7.41,7.41,0,0,0-4.44,1.17,2.34,2.34,0,0,0-1,2,2.47,2.47,0,0,0,1,1.95c.82.69,2.82,1.41,6,2.15a32.08,32.08,0,0,1,7,2.32,9,9,0,0,1,3.56,3.28,10.11,10.11,0,0,1-.25,10.31,9.26,9.26,0,0,1-4.35,3.6,18.34,18.34,0,0,1-7,1.17q-6.1,0-9.38-2.82T296.25,403.29Z"/><path d="M327.92,413.77V381.56h10.43a38.14,38.14,0,0,1,7.74.48,8.51,8.51,0,0,1,4.64,3.15,10,10,0,0,1,1.86,6.28,10.61,10.61,0,0,1-1.07,5,8.88,8.88,0,0,1-2.74,3.17,9.47,9.47,0,0,1-3.37,1.53,37,37,0,0,1-6.75.46h-4.24v12.15Zm6.5-26.76v9.14H338a16.66,16.66,0,0,0,5.14-.51,4.25,4.25,0,0,0,2-1.58,4.33,4.33,0,0,0,.73-2.5,4.18,4.18,0,0,0-1-2.91,4.5,4.5,0,0,0-2.62-1.42,30.64,30.64,0,0,0-4.68-.22Z"/><path d="M357.73,413.77V381.56h6.51v32.21Z"/><path d="M370.61,413.77V381.82h6.5v26.52h16.18v5.43Z"/><path d="M409.41,413.77V381.56h6.51v32.21Z"/><path d="M437.1,401.93V396.5h14v12.83a17.59,17.59,0,0,1-5.92,3.48,21.47,21.47,0,0,1-7.86,1.51,17.68,17.68,0,0,1-8.81-2.12,13.51,13.51,0,0,1-5.65-6.07,19.57,19.57,0,0,1-1.89-8.58,18.62,18.62,0,0,1,2.11-8.94,14.22,14.22,0,0,1,6.18-6A16.62,16.62,0,0,1,437,381q6,0,9.37,2.51a11.35,11.35,0,0,1,4.34,7l-6.46,1.21a6.85,6.85,0,0,0-2.56-3.75,7.77,7.77,0,0,0-4.69-1.37,8.83,8.83,0,0,0-6.78,2.7c-1.68,1.8-2.51,4.48-2.51,8,0,3.82.84,6.69,2.54,8.6a8.53,8.53,0,0,0,6.68,2.87,11.28,11.28,0,0,0,4.1-.8,14,14,0,0,0,3.53-1.95v-4.08Z"/><path d="M457.12,413.77V381.56H481V387H463.62v7.14h16.17v5.43H463.62v8.76h18v5.43Z"/><path d="M487.2,413.77V381.56h6.32l13.19,21.51V381.56h6v32.21h-6.53l-13-21v21Z"/></svg>
