<svg id="Layer_1" data-name="Layer 1" xmlns="http://www.w3.org/2000/svg" xmlns:xlink="http://www.w3.org/1999/xlink" width="550" height="850" viewBox="0 0 550 850"><defs><style>.cls-1,.cls-21,.cls-22{fill:none;}.cls-2{fill:#a8360e;}.cls-3{fill:#553000;}.cls-3,.cls-4{opacity:0.76;}.cls-4,.cls-5{fill:#352600;}.cls-5{stroke:#7c5508;}.cls-21,.cls-22,.cls-5{stroke-miterlimit:10;}.cls-6{fill:#f9d4ac;}.cls-7{fill:#000c55;}.cls-8{fill:url(#New_Pattern_Swatch_3);}.cls-9{fill:#89531d;}.cls-10{fill:#d30d0d;}.cls-11{fill:#e54545;}.cls-12{fill:#ef9595;}.cls-13{fill:#56cc2f;}.cls-14{fill:#56291d;}.cls-15{fill:#7ebbb2;opacity:0.75;}.cls-16{fill:#e8d350;}.cls-17{fill:#e2b983;}.cls-18{fill:#744800;}.cls-19{fill:#e2a683;}.cls-20{fill:#fff;}.cls-21{stroke:#000c55;stroke-width:2px;}.cls-22{stroke:#4c3202;stroke-width:0.75px;}.cls-23{fill:#b2884b;}.cls-24{fill:#c69c6d;}.cls-25{fill:#ffcd9e;}.cls-26{fill:#ffcf9e;}</style><pattern id="New_Pattern_Swatch_3" data-name="New Pattern Swatch 3" width="279.97" height="270.04" patternTransform="translate(19.93 255.31)" patternUnits="userSpaceOnUse" viewBox="0 0 279.97 270.04"><rect class="cls-1" width="279.97" height="270.04"/><rect class="cls-2" width="279.97" height="270.04"/><rect class="cls-3" x="263.23" width="15.87" height="270.04"/><rect class="cls-3" x="224.73" width="15.87" height="270.04"/><rect class="cls-3" x="186.23" width="15.87" height="270.04"/><rect class="cls-3" x="147.73" width="15.87" height="270.04"/><rect class="cls-3" x="109.23" width="15.87" height="270.04"/><rect class="cls-3" x="70.73" width="15.87" height="270.04"/><rect class="cls-3" x="32.23" width="15.87" height="270.04"/><polygon class="cls-4" points="279.97 252.99 279.97 245.44 0 245.44 0 252.99 279.97 252.99"/><polygon class="cls-4" points="279.97 228.44 279.97 220.9 0 220.9 0 228.44 279.97 228.44"/><polygon class="cls-4" points="279.97 203.9 279.97 196.35 0 196.35 0 203.9 279.97 203.9"/><polygon class="cls-4" points="279.97 179.35 279.97 171.81 0 171.81 0 179.35 279.97 179.35"/><polygon class="cls-4" points="279.97 154.81 279.97 147.26 0 147.26 0 154.81 279.97 154.81"/><polygon class="cls-4" points="279.97 130.26 279.97 122.72 0 122.72 0 130.26 279.97 130.26"/><polygon class="cls-4" points="279.97 105.72 279.97 98.18 0 98.18 0 105.72 279.97 105.72"/><polygon class="cls-4" points="279.97 81.18 279.97 73.63 0 73.63 0 81.18 279.97 81.18"/><polygon class="cls-4" points="279.97 56.63 279.97 49.09 0 49.09 0 56.63 279.97 56.63"/><polygon class="cls-4" points="279.97 32.09 279.97 24.54 0 24.54 0 32.09 279.97 32.09"/><polygon class="cls-4" points="279.97 7.54 279.97 0 0 0 0 7.54 279.97 7.54"/><line class="cls-5" x1="258.26" x2="258.26" y2="270.04"/><line class="cls-5" x1="219.82" x2="219.82" y2="270.04"/><line class="cls-5" x1="181.24" x2="181.24" y2="270.04"/><line class="cls-5" x1="142.42" x2="142.42" y2="270.04"/><line class="cls-5" x1="142.78" x2="142.78" y2="270.04"/><line class="cls-5" x1="104.24" x2="104.24" y2="270.04"/><line class="cls-5" x1="65.74" x2="65.74" y2="270.04"/><line class="cls-5" x1="27.22" x2="27.22" y2="270.04"/></pattern></defs><title>Titelhipster</title><rect class="cls-6" x="216.61" y="759.83" width="32" height="54.58" rx="9.37" ry="9.37"/><rect class="cls-6" x="294.22" y="759.83" width="32" height="54.58" rx="9.37" ry="9.37"/><rect class="cls-7" x="286.73" y="539.45" width="46.98" height="247.67" rx="12" ry="12"/><rect class="cls-7" x="208.8" y="539.45" width="46.98" height="247.67" rx="12" ry="12"/><path class="cls-8" d="M223.65,286.77h95.51a44.66,44.66,0,0,1,44.66,44.66V542.57a12,12,0,0,1-12,12H191a12,12,0,0,1-12-12V331.43A44.66,44.66,0,0,1,223.65,286.77Z"/><path class="cls-9" d="M288.51,825.78c-.09,5.7,5.43,10.41,12.33,10.53l83.44,1.38s20.79,1.53,21-12c.25-14.72-17-13.66-17-13.66-1.84-.35-26.61,1.14-49.79-12.19a27.23,27.23,0,0,0-13-3.46l-24-.4c-6.9-.11-12.58,4.41-12.67,10.12Z"/><path class="cls-9" d="M258.37,825.78c.1,5.7-5.42,10.41-12.33,10.53l-83.43,1.38s-20.79,1.53-21-12c-.24-14.72,17-13.66,17-13.66,1.83-.35,26.6,1.14,49.79-12.19a27.23,27.23,0,0,1,13-3.46l24-.4c6.91-.11,12.58,4.41,12.67,10.12Z"/><ellipse class="cls-10" cx="298.66" cy="400.96" rx="20.12" ry="17.57" transform="translate(-120.23 128.02) rotate(-20.23)"/><ellipse class="cls-11" cx="304.46" cy="389.25" rx="4.3" ry="5.23" transform="translate(-179.63 488.57) rotate(-63.56)"/><ellipse class="cls-12" cx="303.76" cy="388.83" rx="1.71" ry="2.08" transform="translate(-179.65 487.71) rotate(-63.56)"/><path class="cls-13" d="M279,383.9l.15-.18.14-.16.29-.32.55-.55a13,13,0,0,1,1.07-.88,9.48,9.48,0,0,1,2-1.12,6.17,6.17,0,0,1,3.6-.36A6.11,6.11,0,0,1,290,382.1a8.9,8.9,0,0,1,1.37,1.83c.11.2.22.38.32.59s.21.41.3.65.2.47.29.72l.14.41.06.21.06.23-.14.18-.15.16-.29.32a7.13,7.13,0,0,1-.55.55c-.19.18-.36.32-.54.47s-.35.28-.53.41a9.12,9.12,0,0,1-2,1.13,6,6,0,0,1-6.74-1.44,9.29,9.29,0,0,1-1.38-1.83,12.78,12.78,0,0,1-.62-1.23c-.1-.22-.19-.47-.29-.72l-.13-.41-.07-.2Z"/><path class="cls-13" d="M300.46,375.8l.1.21.08.2.17.4c.1.25.19.5.26.73a11.6,11.6,0,0,1,.35,1.34,9.78,9.78,0,0,1,.17,2.28,6.24,6.24,0,0,1-1.19,3.42,6.09,6.09,0,0,1-2.94,2.1,8.74,8.74,0,0,1-2.24.48l-.67,0h-.72l-.77-.05-.43-.05-.22,0-.23,0-.1-.21-.09-.2-.17-.4c-.09-.25-.19-.5-.26-.73s-.14-.46-.2-.69-.1-.43-.15-.65a8.83,8.83,0,0,1-.17-2.28,6.08,6.08,0,0,1,1.2-3.41,6.17,6.17,0,0,1,2.95-2.1,9.18,9.18,0,0,1,2.24-.48c.43,0,.88-.05,1.38,0,.24,0,.51,0,.77.05l.43.05.21,0Z"/><path class="cls-14" d="M292.81,386.28a3.93,3.93,0,0,0-.72-2.54,8.44,8.44,0,0,0-.79-.91l-.35-.35c-.06-.05-.32-.35-.19-.19a2.1,2.1,0,0,1-.22-.3s0-.06,0-.06.07,0,0,.07c.12-.12.11-.21.21-.35,1-1.28,2.73-2.13,4.07-2.92s0-2.57-1.23-1.84c-1.72,1-6.09,3.13-5.11,5.84a5.51,5.51,0,0,0,1.42,1.81,2.12,2.12,0,0,1,.72,1.85c-.1,1.43,2.11,1.29,2.22-.11Z"/><path class="cls-8" d="M126.92,421.33l13,6.49a11.11,11.11,0,0,0,14.85-4.95l50-100A11.12,11.12,0,0,0,199.81,308l-13-6.48A11.11,11.11,0,0,0,172,306.46l-50,100A11.09,11.09,0,0,0,126.92,421.33Z"/><path class="cls-8" d="M416.31,425.9l-13,6.48a11.09,11.09,0,0,1-14.85-4.95l-50-100a11.1,11.1,0,0,1,4.95-14.85l13-6.48A11.09,11.09,0,0,1,371.23,311l50,100A11.09,11.09,0,0,1,416.31,425.9Z"/><path class="cls-15" d="M239.55,375.4c-.06-.29-.13-.59-.21-.89-2.49-9.09-12.32-14.7-23.81-14.57l-4.78-17.42a2.29,2.29,0,0,0-2.83-1.61l-13.33,3.65a2.3,2.3,0,0,0-1.61,2.83l4.76,17.39c-10,5.74-15.68,15.61-13.18,24.74a12.18,12.18,0,0,0,.44,1.33,4.22,4.22,0,0,0,.14.79l27.63,100.84c1,3.61,5.69,5.49,10.44,4.19l37.61-10.31c4.76-1.3,7.84-5.32,6.86-8.92L240.05,376.59A5.66,5.66,0,0,0,239.55,375.4Z"/><path class="cls-16" d="M208.75,404.2H250a2.73,2.73,0,0,1,2.73,2.73v69.71a12,12,0,0,1-12,12H218a12,12,0,0,1-12-12V406.93a2.73,2.73,0,0,1,2.73-2.73Z" transform="translate(-109.81 76.48) rotate(-15.32)"/><rect class="cls-17" x="186.18" y="67.75" width="171.35" height="247.61" rx="50.16" ry="50.16"/><path class="cls-18" d="M294.15,342.44h-44.6a63.37,63.37,0,0,1-63.37-63.37V206s28.72,41.45,81.06,41.45c58.15,0,90.28-41.45,90.28-41.45v73.08A63.37,63.37,0,0,1,294.15,342.44Z"/><path class="cls-19" d="M186.18,147a19.32,19.32,0,1,0,0,38.63"/><path class="cls-19" d="M356.63,145.5a19.32,19.32,0,0,1,0,38.63"/><circle class="cls-20" cx="306.12" cy="166.3" r="16.34"/><path d="M315.52,164.81a9.41,9.41,0,1,1-18.81,0"/><path d="M296.71,164.83a9.41,9.41,0,1,1,18.81,0"/><path class="cls-18" d="M217.91,266.63c0-22.7,22.09-41.11,49.33-41.11s49.32,18.41,49.32,41.11"/><rect class="cls-19" x="254.56" y="156.99" width="25.35" height="71.53" rx="7.42" ry="7.42"/><path class="cls-21" d="M254.44,167.9c0-6.86,5.38-12.48,11.95-12.48H268c6.58,0,11.95,5.62,11.95,12.48"/><line class="cls-22" x1="201.48" y1="247.59" x2="201.48" y2="272.54"/><line class="cls-22" x1="224.3" y1="255.8" x2="224.3" y2="280.75"/><line class="cls-22" x1="310.15" y1="261.74" x2="310.15" y2="286.69"/><line class="cls-22" x1="336.7" y1="260.07" x2="336.7" y2="285.01"/><line class="cls-22" x1="354.67" y1="249.27" x2="354.67" y2="274.22"/><line class="cls-22" x1="342.67" y1="230.86" x2="342.67" y2="255.81"/><line class="cls-22" x1="327.95" y1="236.8" x2="327.95" y2="261.74"/><line class="cls-22" x1="300.29" y1="241.5" x2="300.29" y2="266.45"/><line class="cls-22" x1="188.65" y1="216.56" x2="188.65" y2="241.5"/><line class="cls-22" x1="210.23" y1="233.6" x2="210.23" y2="258.55"/><rect class="cls-7" x="175.13" y="88.93" width="191.16" height="42.61" rx="12" ry="12"/><path class="cls-7" d="M191,92a79.75,79.75,0,0,1,159.49,0"/><circle class="cls-21" cx="228.38" cy="164.15" r="26.18"/><circle class="cls-21" cx="306.12" cy="164.15" r="26.18"/><line class="cls-21" x1="203.2" y1="156.99" x2="186.18" y2="146.98"/><line class="cls-21" x1="331.3" y1="156.99" x2="356.63" y2="145.5"/><path class="cls-19" d="M325.43,164.81a19.32,19.32,0,0,0-38.63,0s3.68-5.06,19.32-5.06C321,159.75,325.43,164.81,325.43,164.81Z"/><circle class="cls-20" cx="228.38" cy="166.3" r="16.34"/><path d="M237.79,164.81a9.41,9.41,0,0,1-18.82,0"/><path d="M219,164.83a9.41,9.41,0,1,1,18.82,0"/><path class="cls-19" d="M247.69,164.81a19.31,19.31,0,0,0-38.62,0s3.68-5.06,19.31-5.06C243.24,159.75,247.69,164.81,247.69,164.81Z"/><path d="M290.44,251.55c0,10.44-10.16,18.9-22.69,18.9s-22.69-8.46-22.69-18.9"/><path class="cls-20" d="M290,255s-19.27,11.42-44.59,0l-.38-3.44h45.38Z"/><ellipse class="cls-10" cx="262.06" cy="408.71" rx="17.2" ry="19.71" transform="translate(-223.38 416.75) rotate(-58.28)"/><ellipse class="cls-11" cx="274.59" cy="406.12" rx="4.21" ry="5.12" transform="translate(-76.13 63.58) rotate(-11.61)"/><ellipse class="cls-12" cx="274.48" cy="405.32" rx="1.67" ry="2.04" transform="translate(-75.97 63.55) rotate(-11.61)"/><path class="cls-13" d="M263.36,383.27h.23l.21,0,.42,0a5.67,5.67,0,0,1,.75.1,9.22,9.22,0,0,1,1.32.29,9,9,0,0,1,2.07.86,5.85,5.85,0,0,1,3,6.05,8.69,8.69,0,0,1-.58,2.17c-.09.2-.16.39-.26.6s-.2.41-.32.63-.25.43-.39.65l-.23.36-.12.17-.14.19h-.44l-.42,0-.76-.1c-.25,0-.46-.08-.69-.13a6.45,6.45,0,0,1-.63-.16,8.65,8.65,0,0,1-2.07-.86,6,6,0,0,1-2.45-2.56,6.08,6.08,0,0,1-.52-3.5,9.14,9.14,0,0,1,.58-2.17,11,11,0,0,1,.58-1.22,7.44,7.44,0,0,1,.38-.66l.23-.35.12-.18Z"/><path class="cls-13" d="M282.54,394.91l-.1.21-.11.18-.2.37a6.42,6.42,0,0,1-.41.64,12.66,12.66,0,0,1-.82,1.08,9.12,9.12,0,0,1-1.66,1.51,6,6,0,0,1-3.35,1.14,6,6,0,0,1-3.4-1,9.08,9.08,0,0,1-1.71-1.44l-.44-.49c-.14-.19-.29-.35-.43-.56s-.29-.41-.43-.63l-.22-.36-.11-.18-.11-.2.1-.21.1-.19.2-.37c.14-.22.28-.45.41-.64s.28-.39.41-.57.28-.34.42-.51a9,9,0,0,1,1.65-1.51,6,6,0,0,1,3.36-1.13,6,6,0,0,1,3.39,1,9.13,9.13,0,0,1,1.72,1.44c.29.32.58.65.87,1,.14.19.29.41.43.63l.22.36.11.18Z"/><path class="cls-14" d="M269.84,395.34a3.81,3.81,0,0,0,1.52-2.09,6.44,6.44,0,0,0,.23-1.16l.06-.48c0-.07.08-.46,0-.26a3.57,3.57,0,0,1,.1-.35l0-.06c-.05,0,0,.06-.06.05.17,0,.23-.05.4-.05,1.57,0,3.29.81,4.71,1.37s2-1.55.68-2.06c-1.82-.72-6.09-2.81-7.59-.42a5.31,5.31,0,0,0-.53,2.19,2.12,2.12,0,0,1-1,1.68c-1.16.77.28,2.4,1.42,1.64Z"/><path class="cls-23" d="M318.76,349c-.33-.07-.66-.11-1-.16l-2,10.76a4.28,4.28,0,0,1,.81.07c3.22.68,6.16,5.61,7.68,12.88,1.91,9.11,1.57,20.74-.94,32.75-5.2,24.82-17.1,39.23-23.68,39.17l-2,10.76c14.62,2,30.07-18.16,36.26-47.72C340.14,377.28,333.67,352.12,318.76,349Z"/><path class="cls-23" d="M316.78,348.64c.34.06.66.14,1,.22l-2,10.76a3.75,3.75,0,0,0-.77-.23c-3.24-.55-7.79,3-11.88,9.16-5.11,7.77-9.06,18.72-11.13,30.81-4.27,25,1.51,42.77,7.65,45.13l-2,10.75c-14.34-3.47-21.31-27.92-16.22-57.69C286.53,367.1,301.77,346.08,316.78,348.64Z"/><ellipse class="cls-10" cx="342.93" cy="418.79" rx="18.98" ry="16.57" transform="translate(-180.48 280.86) rotate(-35.92)"/><ellipse class="cls-11" cx="345.21" cy="406.68" rx="4.05" ry="4.94" transform="translate(-118.7 670.01) rotate(-79.25)"/><ellipse class="cls-12" cx="344.47" cy="406.48" rx="1.61" ry="1.96" transform="translate(-119.11 669.12) rotate(-79.25)"/><path class="cls-13" d="M320.75,408.31l.08-.2.09-.18.18-.37c.12-.22.24-.44.37-.63a9.49,9.49,0,0,1,.74-1.07,8.5,8.5,0,0,1,1.53-1.53,5.64,5.64,0,0,1,6.49-.44,8.31,8.31,0,0,1,1.71,1.31l.44.45c.15.17.29.32.44.51s.3.38.45.59l.22.34.12.17.11.19-.09.2-.09.19-.18.36c-.12.22-.24.44-.36.64s-.25.38-.37.57-.25.33-.37.5a8.5,8.5,0,0,1-1.53,1.53,5.75,5.75,0,0,1-3.18,1.24,5.84,5.84,0,0,1-3.31-.82,8.72,8.72,0,0,1-1.72-1.31,12.1,12.1,0,0,1-.88-1l-.44-.58-.23-.34-.11-.17Z"/><path class="cls-13" d="M338.14,395.49l.15.17.13.16.25.31c.15.21.3.41.42.6a9.68,9.68,0,0,1,.66,1.13,8.69,8.69,0,0,1,.74,2,5.93,5.93,0,0,1-.21,3.4,5.84,5.84,0,0,1-2.13,2.67,9.06,9.06,0,0,1-1.92,1c-.19.06-.38.14-.59.2s-.42.13-.65.18l-.72.16-.4.06-.21,0-.22,0-.15-.17-.12-.16-.26-.31c-.15-.21-.3-.41-.42-.6s-.24-.39-.36-.58-.2-.37-.3-.55a8.41,8.41,0,0,1-.74-2,5.76,5.76,0,0,1,.22-3.4,5.85,5.85,0,0,1,2.14-2.66,8.53,8.53,0,0,1,1.91-1,11.55,11.55,0,0,1,1.25-.39c.22-.06.46-.11.71-.16l.4-.06.2,0Z"/><path class="cls-14" d="M333.87,407a3.7,3.7,0,0,0-1.3-2.12,6.8,6.8,0,0,0-.95-.63l-.4-.23c-.07,0-.39-.24-.23-.12a2.88,2.88,0,0,1-.27-.22l0-.05c0,.06.06,0,0,.07.07-.14,0-.22.1-.37a13,13,0,0,1,2.95-3.7c.93-1-.66-2.33-1.59-1.35-1.3,1.35-4.73,4.39-3.15,6.6a5.18,5.18,0,0,0,1.75,1.28,2,2,0,0,1,1.13,1.51c.27,1.31,2.24.63,2-.67Z"/><ellipse class="cls-10" cx="320.75" cy="411.73" rx="13.52" ry="15.49" transform="translate(-151.38 634.22) rotate(-77.31)"/><ellipse class="cls-11" cx="329.39" cy="406.6" rx="3.31" ry="4.03" transform="translate(-161.24 224.67) rotate(-30.64)"/><ellipse class="cls-12" cx="329.11" cy="406.03" rx="1.32" ry="1.6" transform="translate(-161 224.45) rotate(-30.64)"/><path class="cls-13" d="M315.19,392.5l.17-.06.16,0,.32-.08.59-.12c.38-.07.72-.1,1.05-.13a6.92,6.92,0,0,1,1.76.12,4.57,4.57,0,0,1,3.77,3.73,6.43,6.43,0,0,1,.13,1.75c0,.17,0,.34,0,.52s0,.35-.08.54-.07.39-.12.59l-.08.32,0,.16-.06.18-.17,0-.16.05-.32.08c-.21,0-.4.1-.59.13l-.55.08-.51,0a7,7,0,0,1-1.76-.11,4.69,4.69,0,0,1-2.47-1.28,4.81,4.81,0,0,1-1.29-2.47,6.88,6.88,0,0,1-.12-1.75,8.4,8.4,0,0,1,.12-1.06c0-.19.07-.39.11-.59l.08-.32.05-.16Z"/><path class="cls-13" d="M332.42,396.23l0,.18,0,.17-.05.32c-.05.21-.09.4-.14.58a9.16,9.16,0,0,1-.34,1A7.23,7.23,0,0,1,331,400a4.61,4.61,0,0,1-5,1.84,7.2,7.2,0,0,1-1.64-.63l-.45-.25-.46-.3-.49-.36-.25-.21-.13-.11-.13-.12,0-.18,0-.17.05-.32c0-.21.09-.41.14-.59s.1-.35.16-.53.12-.32.17-.48a7.05,7.05,0,0,1,.85-1.55,4.6,4.6,0,0,1,5-1.82,7.27,7.27,0,0,1,1.65.63,10.51,10.51,0,0,1,.91.55l.48.36.25.21.13.1Z"/><path class="cls-14" d="M323.1,399.8a3,3,0,0,0,.6-1.93,5.94,5.94,0,0,0-.13-.93c0-.12-.05-.24-.08-.37s-.06-.36-.05-.2a2.81,2.81,0,0,1,0-.29s0-.05,0,0,0,0,0,0c.13,0,.16-.09.28-.14a10.59,10.59,0,0,1,3.85-.18c1.1,0,1.07-1.67,0-1.71-1.53-.06-5.24-.52-5.74,1.63a4.09,4.09,0,0,0,.17,1.77,1.66,1.66,0,0,1-.32,1.5c-.66.88.83,1.72,1.48.85Z"/><ellipse class="cls-10" cx="359.6" cy="425.24" rx="20.92" ry="23.96" transform="matrix(0.52, -0.85, 0.85, 0.52, -191.05, 508.5)"/><ellipse class="cls-11" cx="374.83" cy="422.07" rx="5.12" ry="6.23" transform="translate(-77.85 84.85) rotate(-11.71)"/><ellipse class="cls-12" cx="374.7" cy="421.1" rx="2.04" ry="2.48" transform="translate(-77.66 84.8) rotate(-11.71)"/><path class="cls-13" d="M361.13,394.3h.53l.51,0c.32,0,.64.07.92.12a13.31,13.31,0,0,1,1.61.35,10.85,10.85,0,0,1,2.52,1.05,7.1,7.1,0,0,1,3.64,7.35,10.6,10.6,0,0,1-.7,2.64l-.31.72c-.13.26-.24.5-.39.77s-.3.53-.47.8l-.28.43-.15.21-.17.23h-.53l-.52,0-.92-.11-.84-.16-.77-.19a10.5,10.5,0,0,1-2.52-1.05,7.18,7.18,0,0,1-3-3.11,7.33,7.33,0,0,1-.65-4.26,11.34,11.34,0,0,1,.7-2.63,16.3,16.3,0,0,1,.7-1.49c.14-.26.3-.53.47-.8l.28-.43.14-.21Z"/><path class="cls-13" d="M384.48,408.42l-.13.25-.12.23-.25.45c-.16.27-.33.54-.49.78a14.7,14.7,0,0,1-1,1.3,10.83,10.83,0,0,1-2,1.84,7.38,7.38,0,0,1-4.08,1.4,7.17,7.17,0,0,1-4.13-1.2,10.72,10.72,0,0,1-2.09-1.75l-.53-.59c-.17-.22-.35-.43-.53-.68s-.35-.49-.53-.76l-.26-.44-.14-.22-.13-.25.12-.25.13-.23.24-.45c.17-.27.33-.54.5-.78s.33-.47.5-.7.33-.41.5-.61a10.63,10.63,0,0,1,2-1.85,7.13,7.13,0,0,1,8.21-.16,11.09,11.09,0,0,1,2.09,1.75,14,14,0,0,1,1.05,1.26,9.21,9.21,0,0,1,.53.76l.27.44.13.22Z"/><path class="cls-14" d="M369,409a4.63,4.63,0,0,0,1.84-2.54,9.64,9.64,0,0,0,.28-1.42c0-.19,0-.38.07-.58s.09-.56,0-.32a3.39,3.39,0,0,1,.11-.43s.05-.06,0-.06,0,.06-.06.05a2.74,2.74,0,0,0,.48-.06c1.91,0,4,1,5.73,1.66,1.58.62,2.4-1.89.82-2.51-2.21-.86-7.41-3.39-9.23-.49a6.55,6.55,0,0,0-.65,2.66A2.55,2.55,0,0,1,367.3,407c-1.41.94.35,2.92,1.74,2Z"/><path class="cls-23" d="M311.28,515.12,256.61,502c-9.9-2.38-17.42-10.81-19.29-21.66l-11.17-64.51c-1.83-10.58,7.18-20.1,16.84-17.79L372.21,429c9.81,2.35,13.45,15.23,6.73,23.78l-41.08,52.33C331.23,513.57,321,517.43,311.28,515.12Z"/><path class="cls-24" d="M307,497.25l-35.55-8.52a17.1,17.1,0,0,1-12.72-13.36L250.85,436a9,9,0,0,1,10.73-10.65l84,20.13a9,9,0,0,1,4.6,14.52l-26.09,31.4A17.08,17.08,0,0,1,307,497.25Z"/><rect class="cls-25" x="212.48" y="441.25" width="34.49" height="65.26" rx="7.05" ry="7.05" transform="translate(-295.14 430.76) rotate(-59.44)"/><path class="cls-25" d="M294.67,491.68h0c.6-1.79-1.58-4.47-4.85-5.95l-34.34-15.64c-3.27-1.49-6.43-1.24-7,.55h0c-.6,1.79,1.58,4.47,4.84,5.95l34.35,15.64C290.91,493.72,294.07,493.47,294.67,491.68Z"/><path class="cls-25" d="M297.23,502.42h0c.58-1.8-2-4.65-5.73-6.33l-39.27-17.74c-3.73-1.69-7.25-1.6-7.83.2h0c-.58,1.8,2,4.65,5.73,6.33l39.27,17.74C293.13,504.31,296.65,504.22,297.23,502.42Z"/><path class="cls-25" d="M286.34,507.35h0c.6-1.79-1.64-4.49-5-6l-35-15.93c-3.33-1.52-6.54-1.29-7.14.5h0c-.59,1.79,1.64,4.49,5,6l35,15.93C282.54,509.37,285.75,509.14,286.34,507.35Z"/><path class="cls-25" d="M271.8,511.07h0c.63-1.78-1-4.23-3.62-5.44L240.6,492.88c-2.62-1.21-5.28-.75-5.9,1h0c-.63,1.78,1,4.22,3.62,5.43l27.58,12.75C268.52,513.31,271.18,512.84,271.8,511.07Z"/><path class="cls-25" d="M273.3,462.56h0c-.62-3-3.2-5.22-5.72-4.93L241,460.71c-2.53.29-4.08,3-3.45,6h0c.63,3,3.2,5.22,5.73,4.93l26.56-3.08C272.38,468.26,273.93,465.56,273.3,462.56Z"/><rect class="cls-26" x="302.04" y="446.33" width="34.49" height="65.26" rx="7.05" ry="7.05" transform="translate(144.29 1027.35) rotate(-128.61)"/><path class="cls-26" d="M257.48,505.68h0c-.85-1.68.94-4.64,4-6.57l31.82-20.3c3-1.93,6.18-2.12,7-.44h0c.85,1.69-.93,4.65-4,6.58l-31.82,20.3C261.48,507.17,258.32,507.37,257.48,505.68Z"/><path class="cls-26" d="M256.44,516.67h0c-.82-1.7,1.33-4.88,4.79-7.07l36.39-23.07c3.46-2.19,7-2.59,7.79-.89h0c.83,1.7-1.33,4.88-4.79,7.07l-36.39,23.07C260.77,518,257.27,518.37,256.44,516.67Z"/><path class="cls-26" d="M267.91,520h0c-.84-1.69,1-4.68,4.08-6.64l32.46-20.69c3.09-2,6.3-2.19,7.14-.5h0c.84,1.69-1,4.68-4.08,6.64l-32.46,20.69C272,521.49,268.75,521.72,267.91,520Z"/><path class="cls-26" d="M282.83,521.67h0c-.87-1.67.41-4.32,2.83-5.89l25.52-16.49c2.43-1.56,5.12-1.48,6,.2h0c.87,1.67-.41,4.32-2.83,5.88l-25.52,16.49C286.4,523.43,283.7,523.34,282.83,521.67Z"/><path class="cls-26" d="M274.55,473.85h0c.2-3.06,2.44-5.62,5-5.68l26.73-.67c2.54-.06,4.45,2.39,4.25,5.45h0c-.2,3.06-2.44,5.62-5,5.68l-26.73.67C276.26,479.37,274.35,476.91,274.55,473.85Z"/><path class="cls-8" d="M120.47,405.89l-7.6,13.8A12,12,0,0,0,117.6,436L214,489a12,12,0,0,0,16.3-4.73l7.6-13.8a12,12,0,0,0-4.73-16.3l-96.35-53A12,12,0,0,0,120.47,405.89Z"/><path class="cls-8" d="M412.27,399.32l8.7,11.6a11.11,11.11,0,0,1-2.22,15.5l-89.46,67.11a11.11,11.11,0,0,1-15.5-2.22l-8.69-11.59a11.1,11.1,0,0,1,2.21-15.5l89.46-67.11A11.11,11.11,0,0,1,412.27,399.32Z"/></svg>
