<svg id="Layer_1" data-name="Layer 1" xmlns="http://www.w3.org/2000/svg" width="400" height="300" viewBox="0 0 400 300"><defs><style>.cls-1{fill:#fff;}</style></defs><title>Titel</title><path class="cls-1" d="M52.6,154.11q-8-.56-15.89-1c9.16-20,17.75-43.64,26-70.13a362.66,362.66,0,0,1,51.47-17V85.88Q98.27,89,82.58,93.15c.91,3.74,1.81,7.54,2.73,11.38q13.8-2.88,27.77-5.07,0,9.78,0,19.57-11.9,1.2-23.71,2.73,1.5,6.49,3,13.16,10.89-.79,21.81-1.45v19.76L81,153.39q-1.74-8.05-3.44-15.87-9.94.82-19.85,1.76Q55.15,146.9,52.6,154.11Zm16.74-54q-3.24,12-6.55,23.27c3.78-.65,7.57-1.29,11.37-1.89Q71.72,110.49,69.34,100.09Z"/><path class="cls-1" d="M149.33,121.48c3.94-21.25,7.88-42.87,11.84-64.73q8.66-.16,17.33.11c-7.35,32.55-14.63,64.85-21.9,96.24l-14.91,0c-7.37-30.63-14.72-60.06-22-87.64q8.57-2.73,17.18-5.12Q143.1,90.16,149.33,121.48Z"/><path class="cls-1" d="M174.64,152.17c7.67-32,15.39-64.56,23.18-97q7.52-.11,15,.11c7.72,32.5,15.37,65,23,96.87q-8.06.81-16.12,1.65-2.16-10.53-4.33-21.09-10.1-.08-20.18,0-2.17,10.57-4.34,21.12Q182.75,153,174.64,152.17Zm30.65-68.6q-2.88,13.92-5.75,27.87c3.83,0,7.66,0,11.49,0Q208.17,97.52,205.29,83.57Z"/><path class="cls-1" d="M275.54,154.13c-5.75-12.32-11.48-25.12-17.21-38.22q-.06,18.61-.11,37.21l-16,0q.13-47.85.26-95.71,13.47,1.49,26.82,4c11.79,2.3,20.5,13.74,20.5,29.45s-8.41,20.14-15.09,22.35c6.42,13.61,12.85,26.75,19.32,39.19Q284.81,153.19,275.54,154.13Zm-9.75-55.34c4.5.45,8.6-1.7,8.61-8.54s-4-10.15-8.48-10.79c-2.52-.36-5-.69-7.56-1l-.06,19.6C260.8,98.28,263.29,98.52,265.79,98.79Z"/><path class="cls-1" d="M299.14,90.84c0-17.63,10.43-21.63,22.53-17.21S343.35,89.19,346,102.9c-5-.19-10-.16-15.09,0-.88-6.33-4.26-10.86-9-12.21-4.54-1.26-6.81.19-6.79,3.71,0,4.26,3.51,6.55,10.55,11.27,12.48,8.38,21.19,14.43,21.59,28.36.45,14.78-10.95,20.48-23.38,20.65-12.9.14-24.05-8.06-26.21-24.91q7.89-2.62,15.73-4.81c.68,7.83,4.71,11.93,10.55,12.34,4.72.35,7.16-1.15,7.11-4.62-.06-4.27-3.58-6.38-10-10.14C308.25,115,299.16,108.15,299.14,90.84Z"/><path class="cls-1" d="M366,109.49c.34,6.25-4.09,6.73-12,5q-.48-2.89-1-5.82c4.2,2.13,9.2,3.74,9,.48-.08-1.89-1.49-3-3.56-4.12-4-2.06-6.86-5.67-7-10.29-.15-4.8,2.63-6.62,6.54-4.74s7.23,6,7.48,10.55C365.67,103.53,365.82,106.51,366,109.49Z"/><path class="cls-1" d="M60.49,240.33q-7.79-3-15.5-6.3c8.85-17.1,17.85-37.23,26.81-59.68h52.13q-.25,9.12-.5,18.23-15.89-.6-31.74-1.48,1.22,5.73,2.43,11.55Q108,203.91,122,204.8q-.26,9-.5,18-11.91-1.2-23.76-2.82,1.34,6.48,2.67,13.07,10.89,1.83,21.84,3.22-.24,9.06-.49,18.12-16.72-2.73-33.25-6.75-1.51-8.06-3-15.94-9.92-1.95-19.77-4.27Q63.1,234,60.49,240.33Zm17.7-47q-3.54,10.38-7.08,20.23,5.7,1,11.42,1.82Q80.35,204.19,78.19,193.37Z"/><path class="cls-1" d="M156.86,174.35c11.68,0,20,8,19.91,23.32-.06,10.88-6.35,15.75-10.72,18.08,4.39,2.61,11.27,7.85,11.21,19.74-.08,16.2-8.89,24.15-21.47,23.07q-12.6-1.05-25.14-2.84,1-40.68,2-81.37Zm-9.07,16.56q-.15,8.11-.29,16.23l5.35.21c4.65.18,8.59-1.51,8.67-8s-3.87-8.24-8.4-8.32Zm-.59,32.56q-.15,8.73-.32,17.44l5.59.45c4.95.37,9.11-1.75,9.19-8.26s-3.92-9-9-9.3C150.85,223.7,149,223.59,147.2,223.47Z"/><path class="cls-1" d="M201.56,174.35,201.8,239q14-.22,28-1.13.16,10.31.31,20.62a442.88,442.88,0,0,1-44.46,1.54l.24-85.71Z"/><path class="cls-1" d="M235.6,174.35h43.29q.28,8.79.59,17.58-13.92.67-27.88,1.12l.3,12.43q13.44-.72,26.86-1.77l.57,17.33q-13.45,1.67-27,2.82.15,6.7.31,13.4,14.16-1.51,28.24-3.76.28,8.79.59,17.58a440.56,440.56,0,0,1-44.41,6.8Q236.34,216.12,235.6,174.35Z"/><path class="cls-1" d="M322.43,241.29c-6.07-7.24-12.17-15.31-18.25-24.08q.57,14.14,1.15,28.27-7.89,2.09-15.83,3.87-1.37-37.5-2.72-75h26.31c11.61.16,20.61,6.65,21.14,17.65s-7.55,16.33-14,19.53A233.5,233.5,0,0,0,340.44,234Q331.49,237.76,322.43,241.29Zm-11.52-38.47c4.43-.53,8.38-3,8.15-8s-4.26-6.71-8.69-6.48l-7.44.42q.31,7.44.61,14.89Q307.23,203.26,310.91,202.82Z"/></svg>
