<svg id="Layer_1" data-name="Layer 1" xmlns="http://www.w3.org/2000/svg" width="1275" height="1275" viewBox="0 0 1275 1275"><defs><style>.cls-1{fill:#6b572f;}.cls-2{fill:#7f6840;}.cls-3{fill:#33b21c;}</style></defs><title>titeltrae</title><rect class="cls-1" x="649.02" y="693.01" width="170.52" height="530.82" rx="12" ry="12"/><path class="cls-2" d="M719.21,1225.26H647.86c-6.6,0-12-5.4,1.16-12V706.44c-13.16-6.6-7.76-12-1.16-12h71.35c6.6,0,12,5.4,25.15,12v506.82C731.21,1219.86,725.81,1225.26,719.21,1225.26Z"/><path class="cls-3" d="M1251.13,583.88c-1.31-80.6-48.43-151.06-119.42-192.89,32.68-26.76,52.85-64.94,52.16-107-1.29-79.14-75.83-142.1-166.49-140.62a183.67,183.67,0,0,0-67.19,13.75c-47-54.21-122.07-88.69-206.1-87.32A286.9,286.9,0,0,0,663.75,82.5v715a323.66,323.66,0,0,0,120.33-42.36C834.43,800,905,827.26,982.75,826,1133.12,823.54,1253.28,715.14,1251.13,583.88Z"/><path class="cls-3" d="M663.5,82.5c-63.84,19.79-115.88,61.18-144.78,113.91-27.86-19.26-63.27-30.53-101.66-29.9-88.16,1.44-158.61,65-157.35,142a123,123,0,0,0,7.34,39.82c-2.23,0-4.45-.07-6.69,0-133.2,2.18-239.64,98.2-237.74,214.47S134,771.48,267.23,769.31c52.43-.86,100.68-16.3,139.84-41.75,54.83,46.61,130.19,74.8,213,73.45a344.6,344.6,0,0,0,43.48-3.48Z"/><path class="cls-3" d="M932.57,822.83a313.51,313.51,0,0,0,89.53,0Z"/></svg>
